<?xml version="1.0" encoding="UTF-8" standalone="no"?>
<!-- Created with Inkscape (http://www.inkscape.org/) -->

<svg
   xmlns:dc="http://purl.org/dc/elements/1.1/"
   xmlns:cc="http://creativecommons.org/ns#"
   xmlns:rdf="http://www.w3.org/1999/02/22-rdf-syntax-ns#"
   xmlns:svg="http://www.w3.org/2000/svg"
   xmlns="http://www.w3.org/2000/svg"
   xmlns:sodipodi="http://sodipodi.sourceforge.net/DTD/sodipodi-0.dtd"
   xmlns:inkscape="http://www.inkscape.org/namespaces/inkscape"
   id="svg2"
   version="1.1"
   inkscape:version="0.92.3 (2405546, 2018-03-11)"
   xml:space="preserve"
   width="10124.513"
   height="4360.7139"
   viewBox="0 0 10124.513 4360.7139"
   sodipodi:docname="pers-maps-circle.svg"><metadata
     id="metadata8"><rdf:RDF><cc:Work
         rdf:about=""><dc:format>image/svg+xml</dc:format><dc:type
           rdf:resource="http://purl.org/dc/dcmitype/StillImage" /><dc:title></dc:title></cc:Work></rdf:RDF></metadata><defs
     id="defs6"><clipPath
       clipPathUnits="userSpaceOnUse"
       id="clipPath132"><path
         d="M 4989.137,3484.629 H 6433.891 V 2333.93 H 4989.137 Z"
         id="path134"
         inkscape:connector-curvature="0" /></clipPath><clipPath
       clipPathUnits="userSpaceOnUse"
       id="clipPath140"><path
         d="M 0,0 H 8100 V 3489 H 0 Z"
         id="path142"
         inkscape:connector-curvature="0" /></clipPath></defs><sodipodi:namedview
     pagecolor="#ffffff"
     bordercolor="#666666"
     borderopacity="1"
     objecttolerance="10"
     gridtolerance="10"
     guidetolerance="10"
     inkscape:pageopacity="0"
     inkscape:pageshadow="2"
     inkscape:window-width="1920"
     inkscape:window-height="1012"
     id="namedview4"
     showgrid="false"
     fit-margin-top="0"
     fit-margin-left="0"
     fit-margin-right="0"
     fit-margin-bottom="0"
     inkscape:zoom="0.045676116"
     inkscape:cx="2487.0297"
     inkscape:cy="8275.1866"
     inkscape:window-x="0"
     inkscape:window-y="32"
     inkscape:window-maximized="1"
     inkscape:current-layer="layer1" /><g
     id="g10"
     inkscape:groupmode="layer"
     inkscape:label="pers-maps-circle"
     transform="matrix(1.25,0,0,-1.25,0.005,4360.7865)"
     style="display:none"><g
   transform="matrix(1,0,0,-1,0,3488.6172)"
   id="g18"><path
     inkscape:connector-curvature="0"
     id="path20"
     style="fill:#b3b3b3;fill-opacity:1;fill-rule:nonzero;stroke:#000000;stroke-width:0.80000001;stroke-linecap:butt;stroke-linejoin:miter;stroke-miterlimit:4;stroke-dasharray:none;stroke-opacity:1"
     d="m 3.996,1154.688 722.375,442.863 722.375,-442.863" /></g><g
   transform="matrix(1,0,0,-1,0,3488.6172)"
   id="g22"><path
     inkscape:connector-curvature="0"
     id="path24"
     style="fill:none;stroke:#000000;stroke-width:12;stroke-linecap:butt;stroke-linejoin:miter;stroke-miterlimit:4;stroke-dasharray:12, 24;stroke-dashoffset:0;stroke-opacity:1"
     d="m 369.352,1425.883 v 2035" /></g><g
   transform="matrix(1,0,0,-1,0,3488.6172)"
   id="g26"><path
     inkscape:connector-curvature="0"
     id="path28"
     style="fill:none;stroke:#000000;stroke-width:12;stroke-linecap:butt;stroke-linejoin:miter;stroke-miterlimit:4;stroke-dasharray:none;stroke-opacity:1"
     d="M 104.676,1593.859 H 7998.922" /></g><g
   transform="matrix(1,0,0,-1,0,3488.6172)"
   id="g30"><path
     inkscape:connector-curvature="0"
     id="path32"
     style="fill:#000000;fill-opacity:1;fill-rule:evenodd;stroke:#000000;stroke-width:12;stroke-linecap:butt;stroke-linejoin:miter;stroke-miterlimit:4;stroke-dasharray:none;stroke-opacity:1"
     d="m 224.676,1593.859 48,-48 -168,48 168,48 z" /></g><g
   transform="matrix(-1,0,0,1,0,3488.6172)"
   id="g34"><path
     inkscape:connector-curvature="0"
     id="path36"
     style="fill:#000000;fill-opacity:1;fill-rule:evenodd;stroke:#000000;stroke-width:12;stroke-linecap:butt;stroke-linejoin:miter;stroke-miterlimit:4;stroke-dasharray:none;stroke-opacity:1"
     d="m -7878.922,-1593.859 48,-48 -168,48 168,48 z" /></g><g
   transform="matrix(1,0,0,-1,0,3488.6172)"
   id="g52"><path
     inkscape:connector-curvature="0"
     id="path54"
     style="fill:none;stroke:#000000;stroke-width:8;stroke-linecap:butt;stroke-linejoin:miter;stroke-miterlimit:4;stroke-dasharray:none;stroke-opacity:1"
     d="M 3327.422,3.988 H 4772.176 V 1154.687 H 3327.422 Z" /></g><g
   transform="matrix(1,0,0,-1,0,3488.6172)"
   id="g56"
   style="fill:#c837ab"><path
     inkscape:connector-curvature="0"
     id="path58"
     style="fill:#c837ab;fill-opacity:1;fill-rule:nonzero;stroke:#000000;stroke-width:8;stroke-linecap:butt;stroke-linejoin:miter;stroke-miterlimit:4;stroke-dasharray:none;stroke-opacity:1"
     d="M 6650.852,3.988 H 8095.606 V 1154.687 H 6650.852 Z" /></g><g
   transform="matrix(1,0,0,-1,0,3488.6172)"
   id="g120"><path
     inkscape:connector-curvature="0"
     id="path122"
     style="fill:none;stroke:#000000;stroke-width:8;stroke-linecap:butt;stroke-linejoin:miter;stroke-miterlimit:4;stroke-dasharray:none;stroke-opacity:1"
     d="m 1665.711,3.988 h 1444.75 v 1150.699 h -1444.75 z" /></g><g
   transform="matrix(1,0,0,-1,0,3488.6172)"
   id="g124"><path
     inkscape:connector-curvature="0"
     id="path126"
     style="fill:none;stroke:#000000;stroke-width:8;stroke-linecap:butt;stroke-linejoin:miter;stroke-miterlimit:4;stroke-dasharray:none;stroke-opacity:1"
     d="M 4989.137,3.988 H 6433.891 V 1154.687 H 4989.137 Z" /></g><g
   id="g128"
   style="fill:#c837ab"><g
     id="g130"
     clip-path="url(#clipPath132)"
     style="fill:#c837ab"><g
       id="g136"
       transform="translate(0,-0.382812)"
       style="fill:#c837ab"><g
         id="g138"
         style="fill:#c837ab" /><g
         id="g144"
         style="fill:#c837ab"><g
           clip-path="url(#clipPath140)"
           id="g146"
           style="fill:#c837ab"><g
             id="g148"
             style="fill:#c837ab"><path
               d="m 6412.473,2631.961 c 0,-134.149 -108.821,-242.973 -243.211,-242.973 -134.211,0 -243.032,108.824 -243.032,242.973 0,134.207 108.821,242.973 243.032,242.973 134.39,0 243.211,-108.766 243.211,-242.973 z"
               style="fill:#c837ab;fill-opacity:1;fill-rule:nonzero;stroke:none"
               id="path150"
               inkscape:connector-curvature="0" /><path
               d="m 6497.535,2762.055 c 0,-134.149 -108.824,-242.973 -243.211,-242.973 -134.211,0 -243.031,108.824 -243.031,242.973 0,134.211 108.82,242.972 243.031,242.972 134.387,0 243.211,-108.761 243.211,-242.972 z"
               style="fill:#c837ab;fill-opacity:1;fill-rule:nonzero;stroke:none"
               id="path152"
               inkscape:connector-curvature="0" /><path
               d="m 6422.484,2852.113 c 0,-134.148 -108.82,-242.972 -243.211,-242.972 -134.211,0 -243.031,108.824 -243.031,242.972 0,134.211 108.82,242.973 243.031,242.973 134.391,0 243.211,-108.762 243.211,-242.973 z"
               style="fill:#c837ab;fill-opacity:1;fill-rule:nonzero;stroke:none"
               id="path154"
               inkscape:connector-curvature="0" /><path
               d="m 6392.469,2967.207 c 0,-134.152 -108.824,-242.973 -243.215,-242.973 -134.207,0 -243.031,108.821 -243.031,242.973 0,134.207 108.824,242.973 243.031,242.973 134.391,0 243.215,-108.766 243.215,-242.973 z"
               style="fill:#c837ab;fill-opacity:1;fill-rule:nonzero;stroke:none"
               id="path156"
               inkscape:connector-curvature="0" /><path
               d="m 6392.469,3062.273 c 0,-134.148 -108.824,-242.972 -243.215,-242.972 -134.207,0 -243.031,108.824 -243.031,242.972 0,134.211 108.824,242.973 243.031,242.973 134.391,0 243.215,-108.762 243.215,-242.973 z"
               style="fill:#c837ab;fill-opacity:1;fill-rule:nonzero;stroke:none"
               id="path158"
               inkscape:connector-curvature="0" /><path
               d="m 6497.535,2922.176 c 0,-134.153 -108.824,-242.973 -243.211,-242.973 -134.211,0 -243.031,108.82 -243.031,242.973 0,134.207 108.82,242.969 243.031,242.969 134.387,0 243.211,-108.762 243.211,-242.969 z"
               style="fill:#c837ab;fill-opacity:1;fill-rule:nonzero;stroke:none"
               id="path160"
               inkscape:connector-curvature="0" /><path
               d="m 6317.406,3087.297 c 0,-134.152 -108.824,-242.973 -243.215,-242.973 -134.207,0 -243.031,108.821 -243.031,242.973 0,134.207 108.824,242.969 243.031,242.969 134.391,0 243.215,-108.762 243.215,-242.969 z"
               style="fill:#c837ab;fill-opacity:1;fill-rule:nonzero;stroke:none"
               id="path162"
               inkscape:connector-curvature="0" /><path
               d="m 6367.434,3182.355 c 0,-134.148 -108.821,-242.968 -243.211,-242.968 -134.211,0 -243.032,108.82 -243.032,242.968 0,134.211 108.821,242.973 243.032,242.973 134.39,0 243.211,-108.762 243.211,-242.973 z"
               style="fill:#c837ab;fill-opacity:1;fill-rule:nonzero;stroke:none"
               id="path164"
               inkscape:connector-curvature="0" /><path
               d="m 6217.336,3162.344 c 0,-134.149 -108.824,-242.969 -243.215,-242.969 -134.207,0 -243.031,108.82 -243.031,242.969 0,134.211 108.824,242.972 243.031,242.972 134.391,0 243.215,-108.761 243.215,-242.972 z"
               style="fill:#c837ab;fill-opacity:1;fill-rule:nonzero;stroke:none"
               id="path166"
               inkscape:connector-curvature="0" /><path
               d="m 6147.293,2481.844 c 0,-134.149 -108.82,-242.969 -243.211,-242.969 -134.211,0 -243.031,108.82 -243.031,242.969 0,134.211 108.82,242.972 243.031,242.972 134.391,0 243.211,-108.761 243.211,-242.972 z"
               style="fill:#c837ab;fill-opacity:1;fill-rule:nonzero;stroke:none"
               id="path168"
               inkscape:connector-curvature="0" /><path
               d="m 6227.348,2586.922 c 0,-134.149 -108.825,-242.973 -243.215,-242.973 -134.207,0 -243.031,108.824 -243.031,242.973 0,134.211 108.824,242.973 243.031,242.973 134.39,0 243.215,-108.762 243.215,-242.973 z"
               style="fill:#c837ab;fill-opacity:1;fill-rule:nonzero;stroke:none"
               id="path170"
               inkscape:connector-curvature="0" /><path
               d="m 6327.406,2616.941 c 0,-134.152 -108.824,-242.972 -243.215,-242.972 -134.207,0 -243.031,108.82 -243.031,242.972 0,134.207 108.824,242.969 243.031,242.969 134.391,0 243.215,-108.762 243.215,-242.969 z"
               style="fill:#c837ab;fill-opacity:1;fill-rule:nonzero;stroke:none"
               id="path172"
               inkscape:connector-curvature="0" /><path
               d="m 6097.25,3267.418 c 0,-134.148 -108.824,-242.973 -243.215,-242.973 -134.207,0 -243.031,108.825 -243.031,242.973 0,134.211 108.824,242.973 243.031,242.973 134.391,0 243.215,-108.762 243.215,-242.973 z"
               style="fill:#c837ab;fill-opacity:1;fill-rule:nonzero;stroke:none"
               id="path174"
               inkscape:connector-curvature="0" /><path
               d="m 5521.828,2747.039 c 0,-134.148 -108.82,-242.969 -243.211,-242.969 -134.211,0 -243.031,108.821 -243.031,242.969 0,134.211 108.82,242.973 243.031,242.973 134.391,0 243.211,-108.762 243.211,-242.973 z"
               style="fill:#c837ab;fill-opacity:1;fill-rule:nonzero;stroke:none"
               id="path176"
               inkscape:connector-curvature="0" /><path
               d="m 5606.891,2682.004 c 0,-134.152 -108.821,-242.973 -243.211,-242.973 -134.211,0 -243.032,108.821 -243.032,242.973 0,134.207 108.821,242.973 243.032,242.973 134.39,0 243.211,-108.766 243.211,-242.973 z"
               style="fill:#c837ab;fill-opacity:1;fill-rule:nonzero;stroke:none"
               id="path178"
               inkscape:connector-curvature="0" /><path
               d="m 5751.988,2631.961 c 0,-134.149 -108.824,-242.973 -243.211,-242.973 -134.211,0 -243.031,108.824 -243.031,242.973 0,134.207 108.82,242.973 243.031,242.973 134.387,0 243.211,-108.766 243.211,-242.973 z"
               style="fill:#c837ab;fill-opacity:1;fill-rule:nonzero;stroke:none"
               id="path180"
               inkscape:connector-curvature="0" /><path
               d="m 5807.035,2561.902 c 0,-134.148 -108.824,-242.972 -243.215,-242.972 -134.211,0 -243.031,108.824 -243.031,242.972 0,134.207 108.82,242.973 243.031,242.973 134.391,0 243.215,-108.766 243.215,-242.973 z"
               style="fill:#c837ab;fill-opacity:1;fill-rule:nonzero;stroke:none"
               id="path182"
               inkscape:connector-curvature="0" /><path
               d="m 5822.043,2726.211 c 0,-134.149 -108.824,-242.973 -243.211,-242.973 -134.211,0 -243.035,108.824 -243.035,242.973 0,134.207 108.824,242.973 243.035,242.973 134.387,0 243.211,-108.766 243.211,-242.973 z"
               style="fill:#c837ab;fill-opacity:1;fill-rule:nonzero;stroke:none"
               id="path184"
               inkscape:connector-curvature="0" /><path
               d="m 5956.133,2640.941 c 0,-134.152 -108.824,-242.972 -243.215,-242.972 -134.207,0 -243.031,108.82 -243.031,242.972 0,134.207 108.824,242.969 243.031,242.969 134.391,0 243.215,-108.762 243.215,-242.969 z"
               style="fill:#c837ab;fill-opacity:1;fill-rule:nonzero;stroke:none"
               id="path186"
               inkscape:connector-curvature="0" /><path
               d="m 5997.164,2501.859 c 0,-134.148 -108.824,-242.972 -243.215,-242.972 -134.207,0 -243.031,108.824 -243.031,242.972 0,134.211 108.824,242.973 243.031,242.973 134.391,0 243.215,-108.762 243.215,-242.973 z"
               style="fill:#c837ab;fill-opacity:1;fill-rule:nonzero;stroke:none"
               id="path188"
               inkscape:connector-curvature="0" /><path
               d="m 5731.984,3216.387 c 0,-134.153 -108.824,-242.973 -243.214,-242.973 -134.208,0 -243.032,108.82 -243.032,242.973 0,134.207 108.824,242.972 243.032,242.972 134.39,0 243.214,-108.765 243.214,-242.972 z"
               style="fill:#c837ab;fill-opacity:1;fill-rule:nonzero;stroke:none"
               id="path190"
               inkscape:connector-curvature="0" /><path
               d="m 5596.879,3292.441 c 0,-134.152 -108.824,-242.972 -243.211,-242.972 -134.211,0 -243.031,108.82 -243.031,242.972 0,134.207 108.82,242.969 243.031,242.969 134.387,0 243.211,-108.762 243.211,-242.969 z"
               style="fill:#c837ab;fill-opacity:1;fill-rule:nonzero;stroke:none"
               id="path192"
               inkscape:connector-curvature="0" /><path
               d="m 5476.648,3072.273 c 0,-134.148 -108.824,-242.972 -243.21,-242.972 -134.211,0 -243.036,108.824 -243.036,242.972 0,134.211 108.825,242.973 243.036,242.973 134.386,0 243.21,-108.762 243.21,-242.973 z"
               style="fill:#c837ab;fill-opacity:1;fill-rule:nonzero;stroke:none"
               id="path194"
               inkscape:connector-curvature="0" /><path
               d="m 5446.766,3062.273 c 0,-134.148 -108.821,-242.972 -243.211,-242.972 -134.207,0 -243.032,108.824 -243.032,242.972 0,134.211 108.821,242.973 243.032,242.973 134.39,0 243.211,-108.762 243.211,-242.973 z"
               style="fill:#c837ab;fill-opacity:1;fill-rule:nonzero;stroke:none"
               id="path196"
               inkscape:connector-curvature="0" /><path
               d="m 5426.75,2962.203 c 0,-134.148 -108.824,-242.973 -243.215,-242.973 -134.207,0 -243.031,108.825 -243.031,242.973 0,134.207 108.824,242.973 243.031,242.973 134.391,0 243.215,-108.766 243.215,-242.973 z"
               style="fill:#c837ab;fill-opacity:1;fill-rule:nonzero;stroke:none"
               id="path198"
               inkscape:connector-curvature="0" /><path
               d="m 5411.734,2872.133 c 0,-134.149 -108.82,-242.973 -243.214,-242.973 -134.208,0 -243.028,108.824 -243.028,242.973 0,134.207 108.82,242.972 243.028,242.972 134.394,0 243.214,-108.765 243.214,-242.972 z"
               style="fill:#c837ab;fill-opacity:1;fill-rule:nonzero;stroke:none"
               id="path200"
               inkscape:connector-curvature="0" /><path
               d="m 5411.43,2857.125 c 0,-134.152 -108.821,-242.973 -243.215,-242.973 -134.207,0 -243.027,108.821 -243.027,242.973 0,134.207 108.82,242.969 243.027,242.969 134.394,0 243.215,-108.762 243.215,-242.969 z"
               style="fill:#c837ab;fill-opacity:1;fill-rule:nonzero;stroke:none"
               id="path202"
               inkscape:connector-curvature="0" /><path
               d="m 5806.238,3209.215 c 0,-134.149 -108.82,-242.969 -243.211,-242.969 -134.211,0 -243.031,108.82 -243.031,242.969 0,134.211 108.82,242.973 243.031,242.973 134.391,0 243.211,-108.762 243.211,-242.973 z"
               style="fill:#c837ab;fill-opacity:1;fill-rule:nonzero;stroke:none"
               id="path204"
               inkscape:connector-curvature="0" /><path
               d="m 5827.039,3337.477 c 0,-134.149 -108.82,-242.969 -243.211,-242.969 -134.211,0 -243.035,108.82 -243.035,242.969 0,134.211 108.824,242.972 243.035,242.972 134.391,0 243.211,-108.761 243.211,-242.972 z"
               style="fill:#c837ab;fill-opacity:1;fill-rule:nonzero;stroke:none"
               id="path206"
               inkscape:connector-curvature="0" /><path
               d="m 5957.141,3239.227 c 0,-134.149 -108.825,-242.973 -243.211,-242.973 -134.211,0 -243.035,108.824 -243.035,242.973 0,134.211 108.824,242.972 243.035,242.972 134.386,0 243.211,-108.761 243.211,-242.972 z"
               style="fill:#c837ab;fill-opacity:1;fill-rule:nonzero;stroke:none"
               id="path208"
               inkscape:connector-curvature="0" /></g></g></g></g></g></g><path
   inkscape:connector-curvature="0"
   id="path212"
   style="fill:#c837ab;fill-opacity:1;fill-rule:nonzero;stroke:#d35fbc"
   d="m 7531.516,3267.035 c 0,-8.648 -7.016,-15.664 -15.68,-15.664 -8.652,0 -15.668,7.016 -15.668,15.664 0,8.653 7.016,15.664 15.668,15.664 8.664,0 15.68,-7.011 15.68,-15.664 z" /><path
   inkscape:connector-curvature="0"
   id="path214"
   style="fill:#c837ab;fill-opacity:1;fill-rule:nonzero;stroke:#d35fbc"
   d="m 7846.738,2631.578 c 0,-8.648 -7.015,-15.664 -15.676,-15.664 -8.652,0 -15.667,7.016 -15.667,15.664 0,8.652 7.015,15.664 15.667,15.664 8.661,0 15.676,-7.012 15.676,-15.664 z" /><path
   inkscape:connector-curvature="0"
   id="path216"
   style="fill:#c837ab;fill-opacity:1;fill-rule:nonzero;stroke:#d35fbc"
   d="m 7931.801,2761.672 c 0,-8.649 -7.016,-15.664 -15.68,-15.664 -8.648,0 -15.664,7.015 -15.664,15.664 0,8.652 7.016,15.664 15.664,15.664 8.664,0 15.68,-7.012 15.68,-15.664 z" /><path
   inkscape:connector-curvature="0"
   id="path218"
   style="fill:#c837ab;fill-opacity:1;fill-rule:nonzero;stroke:#d35fbc"
   d="m 7856.75,2851.73 c 0,-8.648 -7.016,-15.664 -15.676,-15.664 -8.652,0 -15.668,7.016 -15.668,15.664 0,8.653 7.016,15.665 15.668,15.665 8.66,0 15.676,-7.012 15.676,-15.665 z" /><path
   inkscape:connector-curvature="0"
   id="path220"
   style="fill:#c837ab;fill-opacity:1;fill-rule:nonzero;stroke:#d35fbc"
   d="m 7826.734,2966.824 c 0,-8.648 -7.015,-15.664 -15.679,-15.664 -8.653,0 -15.668,7.016 -15.668,15.664 0,8.653 7.015,15.664 15.668,15.664 8.664,0 15.679,-7.011 15.679,-15.664 z" /><path
   inkscape:connector-curvature="0"
   id="path222"
   style="fill:#c837ab;fill-opacity:1;fill-rule:nonzero;stroke:#d35fbc"
   d="m 7826.734,3061.891 c 0,-8.649 -7.015,-15.664 -15.679,-15.664 -8.653,0 -15.668,7.015 -15.668,15.664 0,8.652 7.015,15.664 15.668,15.664 8.664,0 15.679,-7.012 15.679,-15.664 z" /><path
   inkscape:connector-curvature="0"
   id="path224"
   style="fill:#c837ab;fill-opacity:1;fill-rule:nonzero;stroke:#d35fbc"
   d="m 7931.801,2921.793 c 0,-8.648 -7.016,-15.664 -15.68,-15.664 -8.648,0 -15.664,7.016 -15.664,15.664 0,8.648 7.016,15.66 15.664,15.66 8.664,0 15.68,-7.012 15.68,-15.66 z" /><path
   inkscape:connector-curvature="0"
   id="path226"
   style="fill:#c837ab;fill-opacity:1;fill-rule:nonzero;stroke:#d35fbc"
   d="m 7751.672,3086.914 c 0,-8.648 -7.016,-15.664 -15.68,-15.664 -8.652,0 -15.668,7.016 -15.668,15.664 0,8.648 7.016,15.66 15.668,15.66 8.664,0 15.68,-7.012 15.68,-15.66 z" /><path
   inkscape:connector-curvature="0"
   id="path228"
   style="fill:#c837ab;fill-opacity:1;fill-rule:nonzero;stroke:#d35fbc"
   d="m 7801.699,3181.973 c 0,-8.649 -7.011,-15.661 -15.676,-15.661 -8.652,0 -15.668,7.012 -15.668,15.661 0,8.652 7.016,15.664 15.668,15.664 8.665,0 15.676,-7.012 15.676,-15.664 z" /><path
   inkscape:connector-curvature="0"
   id="path230"
   style="fill:#c837ab;fill-opacity:1;fill-rule:nonzero;stroke:#d35fbc"
   d="m 7651.602,3161.961 c 0,-8.649 -7.016,-15.66 -15.68,-15.66 -8.652,0 -15.668,7.011 -15.668,15.66 0,8.652 7.016,15.664 15.668,15.664 8.664,0 15.68,-7.012 15.68,-15.664 z" /><path
   inkscape:connector-curvature="0"
   id="path232"
   style="fill:#c837ab;fill-opacity:1;fill-rule:nonzero;stroke:#d35fbc"
   d="m 6956.094,2746.656 c 0,-8.648 -7.012,-15.66 -15.676,-15.66 -8.652,0 -15.668,7.012 -15.668,15.66 0,8.653 7.016,15.664 15.668,15.664 8.664,0 15.676,-7.011 15.676,-15.664 z" /><path
   inkscape:connector-curvature="0"
   id="path234"
   style="fill:#c837ab;fill-opacity:1;fill-rule:nonzero;stroke:#d35fbc"
   d="m 7041.156,2681.621 c 0,-8.648 -7.015,-15.664 -15.679,-15.664 -8.649,0 -15.665,7.016 -15.665,15.664 0,8.652 7.016,15.664 15.665,15.664 8.664,0 15.679,-7.012 15.679,-15.664 z" /><path
   inkscape:connector-curvature="0"
   id="path236"
   style="fill:#c837ab;fill-opacity:1;fill-rule:nonzero;stroke:#d35fbc"
   d="m 7186.254,2631.578 c 0,-8.648 -7.016,-15.664 -15.68,-15.664 -8.652,0 -15.664,7.016 -15.664,15.664 0,8.652 7.012,15.664 15.664,15.664 8.664,0 15.68,-7.012 15.68,-15.664 z" /><path
   inkscape:connector-curvature="0"
   id="path238"
   style="fill:#c837ab;fill-opacity:1;fill-rule:nonzero;stroke:#d35fbc"
   d="m 7241.301,2561.52 c 0,-8.649 -7.016,-15.665 -15.68,-15.665 -8.652,0 -15.668,7.016 -15.668,15.665 0,8.652 7.016,15.664 15.668,15.664 8.664,0 15.68,-7.012 15.68,-15.664 z" /><path
   inkscape:connector-curvature="0"
   id="path240"
   style="fill:#c837ab;fill-opacity:1;fill-rule:nonzero;stroke:#d35fbc"
   d="m 7256.309,2706.629 c 0,-8.649 -7.016,-15.664 -15.68,-15.664 -8.652,0 -15.668,7.015 -15.668,15.664 0,8.652 7.016,15.664 15.668,15.664 8.664,0 15.68,-7.012 15.68,-15.664 z" /><path
   inkscape:connector-curvature="0"
   id="path242"
   style="fill:#c837ab;fill-opacity:1;fill-rule:nonzero;stroke:#d35fbc"
   d="m 7366.398,2616.559 c 0,-8.649 -7.015,-15.664 -15.679,-15.664 -8.653,0 -15.668,7.015 -15.668,15.664 0,8.652 7.015,15.66 15.668,15.66 8.664,0 15.679,-7.008 15.679,-15.66 z" /><path
   inkscape:connector-curvature="0"
   id="path244"
   style="fill:#c837ab;fill-opacity:1;fill-rule:nonzero;stroke:#d35fbc"
   d="m 7431.43,2501.477 c 0,-8.649 -7.016,-15.665 -15.68,-15.665 -8.652,0 -15.668,7.016 -15.668,15.665 0,8.652 7.016,15.664 15.668,15.664 8.664,0 15.68,-7.012 15.68,-15.664 z" /><path
   inkscape:connector-curvature="0"
   id="path246"
   style="fill:#c837ab;fill-opacity:1;fill-rule:nonzero;stroke:#d35fbc"
   d="m 7581.559,2481.461 c 0,-8.645 -7.016,-15.66 -15.68,-15.66 -8.649,0 -15.664,7.015 -15.664,15.66 0,8.652 7.015,15.664 15.664,15.664 8.664,0 15.68,-7.012 15.68,-15.664 z" /><path
   inkscape:connector-curvature="0"
   id="path248"
   style="fill:#c837ab;fill-opacity:1;fill-rule:nonzero;stroke:#d35fbc"
   d="m 7661.613,2586.539 c 0,-8.648 -7.015,-15.664 -15.679,-15.664 -8.653,0 -15.668,7.016 -15.668,15.664 0,8.652 7.015,15.664 15.668,15.664 8.664,0 15.679,-7.012 15.679,-15.664 z" /><path
   inkscape:connector-curvature="0"
   id="path250"
   style="fill:#c837ab;fill-opacity:1;fill-rule:nonzero;stroke:#d35fbc"
   d="m 7761.672,2616.559 c 0,-8.649 -7.016,-15.664 -15.68,-15.664 -8.652,0 -15.668,7.015 -15.668,15.664 0,8.652 7.016,15.66 15.668,15.66 8.664,0 15.68,-7.008 15.68,-15.66 z" /><path
   inkscape:connector-curvature="0"
   id="path252"
   style="fill:#c837ab;fill-opacity:1;fill-rule:nonzero;stroke:#d35fbc"
   d="m 7166.25,3232.004 c 0,-8.649 -7.016,-15.664 -15.68,-15.664 -8.652,0 -15.668,7.015 -15.668,15.664 0,8.652 7.016,15.664 15.668,15.664 8.664,0 15.68,-7.012 15.68,-15.664 z" /><path
   inkscape:connector-curvature="0"
   id="path254"
   style="fill:#c837ab;fill-opacity:1;fill-rule:nonzero;stroke:#d35fbc"
   d="m 7031.145,3292.059 c 0,-8.649 -7.016,-15.664 -15.68,-15.664 -8.653,0 -15.664,7.015 -15.664,15.664 0,8.648 7.011,15.66 15.664,15.66 8.664,0 15.68,-7.012 15.68,-15.66 z" /><path
   inkscape:connector-curvature="0"
   id="path256"
   style="fill:#c837ab;fill-opacity:1;fill-rule:nonzero;stroke:#d35fbc"
   d="m 6986.113,3071.891 c 0,-8.649 -7.015,-15.664 -15.679,-15.664 -8.653,0 -15.668,7.015 -15.668,15.664 0,8.652 7.015,15.664 15.668,15.664 8.664,0 15.679,-7.012 15.679,-15.664 z" /><path
   inkscape:connector-curvature="0"
   id="path258"
   style="fill:#c837ab;fill-opacity:1;fill-rule:nonzero;stroke:#d35fbc"
   d="m 6881.031,3061.891 c 0,-8.649 -7.011,-15.664 -15.676,-15.664 -8.652,0 -15.667,7.015 -15.667,15.664 0,8.652 7.015,15.664 15.667,15.664 8.665,0 15.676,-7.012 15.676,-15.664 z" /><path
   inkscape:connector-curvature="0"
   id="path260"
   style="fill:#c837ab;fill-opacity:1;fill-rule:nonzero;stroke:#d35fbc"
   d="m 6861.016,2961.82 c 0,-8.648 -7.016,-15.664 -15.68,-15.664 -8.652,0 -15.668,7.016 -15.668,15.664 0,8.653 7.016,15.664 15.668,15.664 8.664,0 15.68,-7.011 15.68,-15.664 z" /><path
   inkscape:connector-curvature="0"
   id="path262"
   style="fill:#c837ab;fill-opacity:1;fill-rule:nonzero;stroke:#d35fbc"
   d="m 6846,2871.75 c 0,-8.648 -7.016,-15.664 -15.68,-15.664 -8.652,0 -15.668,7.016 -15.668,15.664 0,8.652 7.016,15.664 15.668,15.664 8.664,0 15.68,-7.012 15.68,-15.664 z" /><path
   inkscape:connector-curvature="0"
   id="path264"
   style="fill:#c837ab;fill-opacity:1;fill-rule:nonzero;stroke:#d35fbc"
   d="m 6956.094,2856.742 c 0,-8.648 -7.012,-15.664 -15.676,-15.664 -8.652,0 -15.668,7.016 -15.668,15.664 0,8.653 7.016,15.66 15.668,15.66 8.664,0 15.676,-7.007 15.676,-15.66 z" /><path
   inkscape:connector-curvature="0"
   id="path266"
   style="fill:#c837ab;fill-opacity:1;fill-rule:nonzero;stroke:#d35fbc"
   d="m 7261.305,3252.035 c 0,-8.648 -7.016,-15.664 -15.68,-15.664 -8.652,0 -15.668,7.016 -15.668,15.664 0,8.649 7.016,15.66 15.668,15.66 8.664,0 15.68,-7.011 15.68,-15.66 z" /><path
   inkscape:connector-curvature="0"
   id="path268"
   style="fill:#c837ab;fill-opacity:1;fill-rule:nonzero;stroke:#d35fbc"
   d="m 7261.305,3337.094 c 0,-8.645 -7.016,-15.66 -15.68,-15.66 -8.652,0 -15.668,7.015 -15.668,15.66 0,8.652 7.016,15.664 15.668,15.664 8.664,0 15.68,-7.012 15.68,-15.664 z" /><path
   inkscape:connector-curvature="0"
   id="path270"
   style="fill:#c837ab;fill-opacity:1;fill-rule:nonzero;stroke:#d35fbc"
   d="m 7391.406,3282.043 c 0,-8.645 -7.015,-15.66 -15.679,-15.66 -8.653,0 -15.668,7.015 -15.668,15.66 0,8.652 7.015,15.664 15.668,15.664 8.664,0 15.679,-7.012 15.679,-15.664 z" /><path
   inkscape:connector-curvature="0"
   id="path272"
   style="fill:#c837ab;fill-opacity:1;fill-rule:nonzero;stroke:#d35fbc"
   d="m 2602.734,3267.035 c 0,-39.746 -32.242,-71.992 -72.062,-71.992 -39.766,0 -72.008,32.246 -72.008,71.992 0,39.766 32.242,71.992 72.008,71.992 39.82,0 72.062,-32.226 72.062,-71.992 z" /><path
   inkscape:connector-curvature="0"
   id="path274"
   style="fill:#c837ab;fill-opacity:1;fill-rule:nonzero;stroke:#d35fbc"
   d="m 2917.961,2631.578 c 0,-39.746 -32.246,-71.992 -72.063,-71.992 -39.765,0 -72.011,32.246 -72.011,71.992 0,39.766 32.246,71.992 72.011,71.992 39.817,0 72.063,-32.226 72.063,-71.992 z" /><path
   inkscape:connector-curvature="0"
   id="path276"
   style="fill:#c837ab;fill-opacity:1;fill-rule:nonzero;stroke:#d35fbc"
   d="m 3003.023,2761.672 c 0,-39.746 -32.246,-71.992 -72.066,-71.992 -39.766,0 -72.008,32.246 -72.008,71.992 0,39.766 32.242,71.992 72.008,71.992 39.82,0 72.066,-32.226 72.066,-71.992 z" /><path
   inkscape:connector-curvature="0"
   id="path278"
   style="fill:#c837ab;fill-opacity:1;fill-rule:nonzero;stroke:#d35fbc"
   d="m 2927.973,2851.73 c 0,-39.746 -32.246,-71.992 -72.063,-71.992 -39.765,0 -72.012,32.246 -72.012,71.992 0,39.766 32.247,71.993 72.012,71.993 39.817,0 72.063,-32.227 72.063,-71.993 z" /><path
   inkscape:connector-curvature="0"
   id="path280"
   style="fill:#c837ab;fill-opacity:1;fill-rule:nonzero;stroke:#d35fbc"
   d="m 2897.953,2966.824 c 0,-39.75 -32.242,-71.992 -72.062,-71.992 -39.766,0 -72.008,32.242 -72.008,71.992 0,39.766 32.242,71.992 72.008,71.992 39.82,0 72.062,-32.226 72.062,-71.992 z" /><path
   inkscape:connector-curvature="0"
   id="path282"
   style="fill:#c837ab;fill-opacity:1;fill-rule:nonzero;stroke:#d35fbc"
   d="m 2897.953,3061.891 c 0,-39.746 -32.242,-71.993 -72.062,-71.993 -39.766,0 -72.008,32.247 -72.008,71.993 0,39.765 32.242,71.992 72.008,71.992 39.82,0 72.062,-32.227 72.062,-71.992 z" /><path
   inkscape:connector-curvature="0"
   id="path284"
   style="fill:#c837ab;fill-opacity:1;fill-rule:nonzero;stroke:#d35fbc"
   d="m 3003.023,2921.793 c 0,-39.75 -32.246,-71.992 -72.066,-71.992 -39.766,0 -72.008,32.242 -72.008,71.992 0,39.762 32.242,71.988 72.008,71.988 39.82,0 72.066,-32.226 72.066,-71.988 z" /><path
   inkscape:connector-curvature="0"
   id="path286"
   style="fill:#c837ab;fill-opacity:1;fill-rule:nonzero;stroke:#d35fbc"
   d="m 2822.891,3086.914 c 0,-39.75 -32.243,-71.992 -72.063,-71.992 -39.766,0 -72.008,32.242 -72.008,71.992 0,39.766 32.242,71.988 72.008,71.988 39.82,0 72.063,-32.222 72.063,-71.988 z" /><path
   inkscape:connector-curvature="0"
   id="path288"
   style="fill:#c837ab;fill-opacity:1;fill-rule:nonzero;stroke:#d35fbc"
   d="m 2872.922,3181.973 c 0,-39.746 -32.246,-71.993 -72.063,-71.993 -39.765,0 -72.011,32.247 -72.011,71.993 0,39.765 32.246,71.992 72.011,71.992 39.817,0 72.063,-32.227 72.063,-71.992 z" /><path
   inkscape:connector-curvature="0"
   id="path290"
   style="fill:#c837ab;fill-opacity:1;fill-rule:nonzero;stroke:#d35fbc"
   d="m 2722.82,3161.961 c 0,-39.746 -32.242,-71.988 -72.062,-71.988 -39.766,0 -72.008,32.242 -72.008,71.988 0,39.766 32.242,71.992 72.008,71.992 39.82,0 72.062,-32.226 72.062,-71.992 z" /><path
   inkscape:connector-curvature="0"
   id="path292"
   style="fill:#c837ab;fill-opacity:1;fill-rule:nonzero;stroke:#d35fbc"
   d="m 2027.316,2746.656 c 0,-39.746 -32.246,-71.988 -72.062,-71.988 -39.766,0 -72.012,32.242 -72.012,71.988 0,39.766 32.246,71.992 72.012,71.992 39.816,0 72.062,-32.226 72.062,-71.992 z" /><path
   inkscape:connector-curvature="0"
   id="path294"
   style="fill:#c837ab;fill-opacity:1;fill-rule:nonzero;stroke:#d35fbc"
   d="m 2112.379,2681.621 c 0,-39.75 -32.246,-71.992 -72.063,-71.992 -39.765,0 -72.011,32.242 -72.011,71.992 0,39.766 32.246,71.992 72.011,71.992 39.817,0 72.063,-32.226 72.063,-71.992 z" /><path
   inkscape:connector-curvature="0"
   id="path296"
   style="fill:#c837ab;fill-opacity:1;fill-rule:nonzero;stroke:#d35fbc"
   d="m 2257.477,2631.578 c 0,-39.746 -32.247,-71.992 -72.067,-71.992 -39.765,0 -72.008,32.246 -72.008,71.992 0,39.766 32.243,71.992 72.008,71.992 39.82,0 72.067,-32.226 72.067,-71.992 z" /><path
   inkscape:connector-curvature="0"
   id="path298"
   style="fill:#c837ab;fill-opacity:1;fill-rule:nonzero;stroke:#d35fbc"
   d="m 2312.52,2561.52 c 0,-39.75 -32.243,-71.993 -72.063,-71.993 -39.766,0 -72.012,32.243 -72.012,71.993 0,39.765 32.246,71.992 72.012,71.992 39.82,0 72.063,-32.227 72.063,-71.992 z" /><path
   inkscape:connector-curvature="0"
   id="path300"
   style="fill:#c837ab;fill-opacity:1;fill-rule:nonzero;stroke:#d35fbc"
   d="m 2327.527,2706.629 c 0,-39.75 -32.242,-71.992 -72.062,-71.992 -39.766,0 -72.008,32.242 -72.008,71.992 0,39.766 32.242,71.992 72.008,71.992 39.82,0 72.062,-32.226 72.062,-71.992 z" /><path
   inkscape:connector-curvature="0"
   id="path302"
   style="fill:#c837ab;fill-opacity:1;fill-rule:nonzero;stroke:#d35fbc"
   d="m 2437.617,2616.559 c 0,-39.75 -32.242,-71.993 -72.062,-71.993 -39.766,0 -72.008,32.243 -72.008,71.993 0,39.765 32.242,71.988 72.008,71.988 39.82,0 72.062,-32.223 72.062,-71.988 z" /><path
   inkscape:connector-curvature="0"
   id="path304"
   style="fill:#c837ab;fill-opacity:1;fill-rule:nonzero;stroke:#d35fbc"
   d="m 2502.648,2501.477 c 0,-39.747 -32.242,-71.993 -72.062,-71.993 -39.766,0 -72.008,32.246 -72.008,71.993 0,39.765 32.242,71.992 72.008,71.992 39.82,0 72.062,-32.227 72.062,-71.992 z" /><path
   inkscape:connector-curvature="0"
   id="path306"
   style="fill:#c837ab;fill-opacity:1;fill-rule:nonzero;stroke:#d35fbc"
   d="m 2652.781,2481.461 c 0,-39.746 -32.246,-71.988 -72.062,-71.988 -39.766,0 -72.012,32.242 -72.012,71.988 0,39.766 32.246,71.992 72.012,71.992 39.816,0 72.062,-32.226 72.062,-71.992 z" /><path
   inkscape:connector-curvature="0"
   id="path308"
   style="fill:#c837ab;fill-opacity:1;fill-rule:nonzero;stroke:#d35fbc"
   d="m 2732.832,2586.539 c 0,-39.746 -32.242,-71.992 -72.062,-71.992 -39.766,0 -72.008,32.246 -72.008,71.992 0,39.766 32.242,71.992 72.008,71.992 39.82,0 72.062,-32.226 72.062,-71.992 z" /><path
   inkscape:connector-curvature="0"
   id="path310"
   style="fill:#c837ab;fill-opacity:1;fill-rule:nonzero;stroke:#d35fbc"
   d="m 2832.891,2616.559 c 0,-39.75 -32.243,-71.993 -72.063,-71.993 -39.766,0 -72.008,32.243 -72.008,71.993 0,39.765 32.242,71.988 72.008,71.988 39.82,0 72.063,-32.223 72.063,-71.988 z" /><path
   inkscape:connector-curvature="0"
   id="path312"
   style="fill:#c837ab;fill-opacity:1;fill-rule:nonzero;stroke:#d35fbc"
   d="m 2237.469,3232.004 c 0,-39.75 -32.242,-71.992 -72.063,-71.992 -39.765,0 -72.008,32.242 -72.008,71.992 0,39.766 32.243,71.992 72.008,71.992 39.821,0 72.063,-32.226 72.063,-71.992 z" /><path
   inkscape:connector-curvature="0"
   id="path314"
   style="fill:#c837ab;fill-opacity:1;fill-rule:nonzero;stroke:#d35fbc"
   d="m 2102.367,3292.059 c 0,-39.75 -32.246,-71.993 -72.066,-71.993 -39.766,0 -72.008,32.243 -72.008,71.993 0,39.765 32.242,71.988 72.008,71.988 39.82,0 72.066,-32.223 72.066,-71.988 z" /><path
   inkscape:connector-curvature="0"
   id="path316"
   style="fill:#c837ab;fill-opacity:1;fill-rule:nonzero;stroke:#d35fbc"
   d="m 2057.332,3071.891 c 0,-39.746 -32.242,-71.993 -72.062,-71.993 -39.766,0 -72.008,32.247 -72.008,71.993 0,39.765 32.242,71.992 72.008,71.992 39.82,0 72.062,-32.227 72.062,-71.992 z" /><path
   inkscape:connector-curvature="0"
   id="path318"
   style="fill:#c837ab;fill-opacity:1;fill-rule:nonzero;stroke:#d35fbc"
   d="m 1952.254,3061.891 c 0,-39.746 -32.246,-71.993 -72.063,-71.993 -39.765,0 -72.011,32.247 -72.011,71.993 0,39.765 32.246,71.992 72.011,71.992 39.817,0 72.063,-32.227 72.063,-71.992 z" /><path
   inkscape:connector-curvature="0"
   id="path320"
   style="fill:#c837ab;fill-opacity:1;fill-rule:nonzero;stroke:#d35fbc"
   d="m 1932.234,2961.82 c 0,-39.746 -32.242,-71.992 -72.062,-71.992 -39.766,0 -72.008,32.246 -72.008,71.992 0,39.766 32.242,71.992 72.008,71.992 39.82,0 72.062,-32.226 72.062,-71.992 z" /><path
   inkscape:connector-curvature="0"
   id="path322"
   style="fill:#c837ab;fill-opacity:1;fill-rule:nonzero;stroke:#d35fbc"
   d="m 1917.219,2871.75 c 0,-39.75 -32.242,-71.992 -72.063,-71.992 -39.765,0 -72.008,32.242 -72.008,71.992 0,39.766 32.243,71.992 72.008,71.992 39.821,0 72.063,-32.226 72.063,-71.992 z" /><path
   inkscape:connector-curvature="0"
   id="path324"
   style="fill:#c837ab;fill-opacity:1;fill-rule:nonzero;stroke:#d35fbc"
   d="m 2027.316,2856.742 c 0,-39.75 -32.246,-71.992 -72.062,-71.992 -39.766,0 -72.012,32.242 -72.012,71.992 0,39.766 32.246,71.992 72.012,71.992 39.816,0 72.062,-32.226 72.062,-71.992 z" /><path
   inkscape:connector-curvature="0"
   id="path326"
   style="fill:#c837ab;fill-opacity:1;fill-rule:nonzero;stroke:#d35fbc"
   d="m 2332.523,3252.035 c 0,-39.75 -32.242,-71.992 -72.062,-71.992 -39.766,0 -72.008,32.242 -72.008,71.992 0,39.766 32.242,71.988 72.008,71.988 39.82,0 72.062,-32.222 72.062,-71.988 z" /><path
   inkscape:connector-curvature="0"
   id="path328"
   style="fill:#c837ab;fill-opacity:1;fill-rule:nonzero;stroke:#d35fbc"
   d="m 2332.523,3337.094 c 0,-39.746 -32.242,-71.989 -72.062,-71.989 -39.766,0 -72.008,32.243 -72.008,71.989 0,39.765 32.242,71.992 72.008,71.992 39.82,0 72.062,-32.227 72.062,-71.992 z" /><path
   inkscape:connector-curvature="0"
   id="path330"
   style="fill:#c837ab;fill-opacity:1;fill-rule:nonzero;stroke:#d35fbc"
   d="m 2462.625,3282.043 c 0,-39.746 -32.242,-71.988 -72.063,-71.988 -39.765,0 -72.007,32.242 -72.007,71.988 0,39.766 32.242,71.992 72.007,71.992 39.821,0 72.063,-32.226 72.063,-71.992 z" /><g
   transform="matrix(1,0,0,-1,0,3488.6172)"
   id="g332"><path
     inkscape:connector-curvature="0"
     id="path334"
     style="fill:none;stroke:#000000;stroke-width:8;stroke-linecap:butt;stroke-linejoin:miter;stroke-miterlimit:4;stroke-dasharray:none;stroke-opacity:1"
     d="M 3327.422,3.988 H 4772.176 V 1154.687 H 3327.422 Z" /></g><path
   inkscape:connector-curvature="0"
   id="path336"
   style="fill:#c837ab;fill-opacity:1;fill-rule:nonzero;stroke:#d35fbc"
   d="m 4333.109,3267.035 c 0,-77.633 -62.976,-140.609 -140.75,-140.609 -77.664,0 -140.64,62.976 -140.64,140.609 0,77.668 62.976,140.61 140.64,140.61 77.774,0 140.75,-62.942 140.75,-140.61 z" /><path
   inkscape:connector-curvature="0"
   id="path338"
   style="fill:#c837ab;fill-opacity:1;fill-rule:nonzero;stroke:#d35fbc"
   d="m 4648.332,2631.578 c 0,-77.633 -62.977,-140.609 -140.746,-140.609 -77.668,0 -140.645,62.976 -140.645,140.609 0,77.668 62.977,140.61 140.645,140.61 77.769,0 140.746,-62.942 140.746,-140.61 z" /><path
   inkscape:connector-curvature="0"
   id="path340"
   style="fill:#c837ab;fill-opacity:1;fill-rule:nonzero;stroke:#d35fbc"
   d="m 4733.395,2761.672 c 0,-77.633 -62.977,-140.61 -140.747,-140.61 -77.668,0 -140.644,62.977 -140.644,140.61 0,77.668 62.976,140.609 140.644,140.609 77.77,0 140.747,-62.941 140.747,-140.609 z" /><path
   inkscape:connector-curvature="0"
   id="path342"
   style="fill:#c837ab;fill-opacity:1;fill-rule:nonzero;stroke:#d35fbc"
   d="m 4658.344,2851.73 c 0,-77.632 -62.973,-140.609 -140.746,-140.609 -77.668,0 -140.645,62.977 -140.645,140.609 0,77.668 62.977,140.61 140.645,140.61 77.773,0 140.746,-62.942 140.746,-140.61 z" /><path
   inkscape:connector-curvature="0"
   id="path344"
   style="fill:#c837ab;fill-opacity:1;fill-rule:nonzero;stroke:#d35fbc"
   d="m 4628.328,2966.824 c 0,-77.633 -62.976,-140.609 -140.75,-140.609 -77.668,0 -140.64,62.976 -140.64,140.609 0,77.668 62.972,140.61 140.64,140.61 77.774,0 140.75,-62.942 140.75,-140.61 z" /><path
   inkscape:connector-curvature="0"
   id="path346"
   style="fill:#c837ab;fill-opacity:1;fill-rule:nonzero;stroke:#d35fbc"
   d="m 4628.328,3061.891 c 0,-77.633 -62.976,-140.61 -140.75,-140.61 -77.668,0 -140.64,62.977 -140.64,140.61 0,77.668 62.972,140.609 140.64,140.609 77.774,0 140.75,-62.941 140.75,-140.609 z" /><path
   inkscape:connector-curvature="0"
   id="path348"
   style="fill:#c837ab;fill-opacity:1;fill-rule:nonzero;stroke:#d35fbc"
   d="m 4733.395,2921.793 c 0,-77.633 -62.977,-140.609 -140.747,-140.609 -77.668,0 -140.644,62.976 -140.644,140.609 0,77.664 62.976,140.605 140.644,140.605 77.77,0 140.747,-62.941 140.747,-140.605 z" /><path
   inkscape:connector-curvature="0"
   id="path350"
   style="fill:#c837ab;fill-opacity:1;fill-rule:nonzero;stroke:#d35fbc"
   d="m 4553.266,3086.914 c 0,-77.633 -62.977,-140.609 -140.75,-140.609 -77.664,0 -140.641,62.976 -140.641,140.609 0,77.664 62.977,140.606 140.641,140.606 77.773,0 140.75,-62.942 140.75,-140.606 z" /><path
   inkscape:connector-curvature="0"
   id="path352"
   style="fill:#c837ab;fill-opacity:1;fill-rule:nonzero;stroke:#d35fbc"
   d="m 4603.293,3181.973 c 0,-77.633 -62.973,-140.606 -140.746,-140.606 -77.668,0 -140.645,62.973 -140.645,140.606 0,77.668 62.977,140.609 140.645,140.609 77.773,0 140.746,-62.941 140.746,-140.609 z" /><path
   inkscape:connector-curvature="0"
   id="path354"
   style="fill:#c837ab;fill-opacity:1;fill-rule:nonzero;stroke:#d35fbc"
   d="m 4453.195,3161.961 c 0,-77.633 -62.976,-140.606 -140.75,-140.606 -77.668,0 -140.64,62.973 -140.64,140.606 0,77.668 62.972,140.609 140.64,140.609 77.774,0 140.75,-62.941 140.75,-140.609 z" /><path
   inkscape:connector-curvature="0"
   id="path356"
   style="fill:#c837ab;fill-opacity:1;fill-rule:nonzero;stroke:#d35fbc"
   d="m 3757.688,2746.656 c 0,-77.633 -62.973,-140.605 -140.747,-140.605 -77.668,0 -140.644,62.972 -140.644,140.605 0,77.668 62.976,140.61 140.644,140.61 77.774,0 140.747,-62.942 140.747,-140.61 z" /><path
   inkscape:connector-curvature="0"
   id="path358"
   style="fill:#c837ab;fill-opacity:1;fill-rule:nonzero;stroke:#d35fbc"
   d="m 3842.75,2681.621 c 0,-77.633 -62.977,-140.609 -140.746,-140.609 -77.668,0 -140.645,62.976 -140.645,140.609 0,77.664 62.977,140.609 140.645,140.609 77.769,0 140.746,-62.945 140.746,-140.609 z" /><path
   inkscape:connector-curvature="0"
   id="path360"
   style="fill:#c837ab;fill-opacity:1;fill-rule:nonzero;stroke:#d35fbc"
   d="m 3987.848,2631.578 c 0,-77.633 -62.977,-140.609 -140.746,-140.609 -77.668,0 -140.645,62.976 -140.645,140.609 0,77.668 62.977,140.61 140.645,140.61 77.769,0 140.746,-62.942 140.746,-140.61 z" /><path
   inkscape:connector-curvature="0"
   id="path362"
   style="fill:#c837ab;fill-opacity:1;fill-rule:nonzero;stroke:#d35fbc"
   d="m 4042.891,2561.52 c 0,-77.633 -62.973,-140.61 -140.746,-140.61 -77.668,0 -140.645,62.977 -140.645,140.61 0,77.668 62.977,140.609 140.645,140.609 77.773,0 140.746,-62.941 140.746,-140.609 z" /><path
   inkscape:connector-curvature="0"
   id="path364"
   style="fill:#c837ab;fill-opacity:1;fill-rule:nonzero;stroke:#d35fbc"
   d="m 4057.902,2706.629 c 0,-77.633 -62.976,-140.609 -140.75,-140.609 -77.668,0 -140.64,62.976 -140.64,140.609 0,77.668 62.972,140.609 140.64,140.609 77.774,0 140.75,-62.941 140.75,-140.609 z" /><path
   inkscape:connector-curvature="0"
   id="path366"
   style="fill:#c837ab;fill-opacity:1;fill-rule:nonzero;stroke:#d35fbc"
   d="m 4167.992,2616.559 c 0,-77.633 -62.976,-140.61 -140.75,-140.61 -77.668,0 -140.644,62.977 -140.644,140.61 0,77.664 62.976,140.605 140.644,140.605 77.774,0 140.75,-62.941 140.75,-140.605 z" /><path
   inkscape:connector-curvature="0"
   id="path368"
   style="fill:#c837ab;fill-opacity:1;fill-rule:nonzero;stroke:#d35fbc"
   d="m 4233.023,2501.477 c 0,-77.633 -62.976,-140.61 -140.75,-140.61 -77.668,0 -140.64,62.977 -140.64,140.61 0,77.668 62.972,140.609 140.64,140.609 77.774,0 140.75,-62.941 140.75,-140.609 z" /><path
   inkscape:connector-curvature="0"
   id="path370"
   style="fill:#c837ab;fill-opacity:1;fill-rule:nonzero;stroke:none"
   d="m 4383.152,2481.461 c 0,-77.633 -62.976,-140.606 -140.746,-140.606 -77.668,0 -140.644,62.973 -140.644,140.606 0,77.668 62.976,140.609 140.644,140.609 77.77,0 140.746,-62.941 140.746,-140.609 z" /><path
   inkscape:connector-curvature="0"
   id="path372"
   style="fill:#c837ab;fill-opacity:1;fill-rule:nonzero;stroke:#d35fbc"
   d="m 4463.207,2586.539 c 0,-77.633 -62.977,-140.609 -140.75,-140.609 -77.668,0 -140.641,62.976 -140.641,140.609 0,77.668 62.973,140.609 140.641,140.609 77.773,0 140.75,-62.941 140.75,-140.609 z" /><path
   inkscape:connector-curvature="0"
   id="path374"
   style="fill:#c837ab;fill-opacity:1;fill-rule:nonzero;stroke:#d35fbc"
   d="m 4563.266,2616.559 c 0,-77.633 -62.977,-140.61 -140.75,-140.61 -77.668,0 -140.641,62.977 -140.641,140.61 0,77.664 62.973,140.605 140.641,140.605 77.773,0 140.75,-62.941 140.75,-140.605 z" /><path
   inkscape:connector-curvature="0"
   id="path376"
   style="fill:#c837ab;fill-opacity:1;fill-rule:nonzero;stroke:#d35fbc"
   d="m 3967.844,3232.004 c 0,-77.633 -62.977,-140.609 -140.75,-140.609 -77.668,0 -140.641,62.976 -140.641,140.609 0,77.668 62.973,140.609 140.641,140.609 77.773,0 140.75,-62.941 140.75,-140.609 z" /><path
   inkscape:connector-curvature="0"
   id="path378"
   style="fill:#c837ab;fill-opacity:1;fill-rule:nonzero;stroke:#d35fbc"
   d="m 3832.738,3292.059 c 0,-77.633 -62.976,-140.61 -140.746,-140.61 -77.668,0 -140.644,62.977 -140.644,140.61 0,77.664 62.976,140.605 140.644,140.605 77.77,0 140.746,-62.941 140.746,-140.605 z" /><path
   inkscape:connector-curvature="0"
   id="path380"
   style="fill:#c837ab;fill-opacity:1;fill-rule:nonzero;stroke:#d35fbc"
   d="m 3787.707,3071.891 c 0,-77.633 -62.977,-140.61 -140.746,-140.61 -77.672,0 -140.645,62.977 -140.645,140.61 0,77.668 62.973,140.609 140.645,140.609 77.769,0 140.746,-62.941 140.746,-140.609 z" /><path
   inkscape:connector-curvature="0"
   id="path382"
   style="fill:#c837ab;fill-opacity:1;fill-rule:nonzero;stroke:#d35fbc"
   d="m 3682.625,3061.891 c 0,-77.633 -62.977,-140.61 -140.746,-140.61 -77.668,0 -140.645,62.977 -140.645,140.61 0,77.668 62.977,140.609 140.645,140.609 77.769,0 140.746,-62.941 140.746,-140.609 z" /><path
   inkscape:connector-curvature="0"
   id="path384"
   style="fill:#c837ab;fill-opacity:1;fill-rule:nonzero;stroke:#d35fbc"
   d="m 3662.609,2961.82 c 0,-77.632 -62.976,-140.609 -140.75,-140.609 -77.668,0 -140.64,62.977 -140.64,140.609 0,77.668 62.972,140.61 140.64,140.61 77.774,0 140.75,-62.942 140.75,-140.61 z" /><path
   inkscape:connector-curvature="0"
   id="path386"
   style="fill:#c837ab;fill-opacity:1;fill-rule:nonzero;stroke:#d35fbc"
   d="m 3647.594,2871.75 c 0,-77.633 -62.977,-140.609 -140.75,-140.609 -77.664,0 -140.641,62.976 -140.641,140.609 0,77.668 62.977,140.609 140.641,140.609 77.773,0 140.75,-62.941 140.75,-140.609 z" /><path
   inkscape:connector-curvature="0"
   id="path388"
   style="fill:#c837ab;fill-opacity:1;fill-rule:nonzero;stroke:#d35fbc"
   d="m 3757.688,2856.742 c 0,-77.633 -62.973,-140.609 -140.747,-140.609 -77.668,0 -140.644,62.976 -140.644,140.609 0,77.664 62.976,140.606 140.644,140.606 77.774,0 140.747,-62.942 140.747,-140.606 z" /><path
   inkscape:connector-curvature="0"
   id="path390"
   style="fill:#c837ab;fill-opacity:1;fill-rule:nonzero;stroke:#d35fbc"
   d="m 4062.898,3252.035 c 0,-77.633 -62.976,-140.609 -140.75,-140.609 -77.668,0 -140.64,62.976 -140.64,140.609 0,77.664 62.972,140.606 140.64,140.606 77.774,0 140.75,-62.942 140.75,-140.606 z" /><path
   inkscape:connector-curvature="0"
   id="path392"
   style="fill:#c837ab;fill-opacity:1;fill-rule:nonzero;stroke:#d35fbc"
   d="m 4062.898,3337.094 c 0,-77.633 -62.976,-140.606 -140.75,-140.606 -77.668,0 -140.64,62.973 -140.64,140.606 0,77.668 62.972,140.609 140.64,140.609 77.774,0 140.75,-62.941 140.75,-140.609 z" /><path
   inkscape:connector-curvature="0"
   id="path394"
   style="fill:#c837ab;fill-opacity:1;fill-rule:nonzero;stroke:#d35fbc"
   d="m 4193,3282.043 c 0,-77.633 -62.977,-140.605 -140.75,-140.605 -77.664,0 -140.641,62.972 -140.641,140.605 0,77.668 62.977,140.609 140.641,140.609 77.773,0 140.75,-62.941 140.75,-140.609 z" /><g
   transform="matrix(1,-0.901351,-0.901351,-1,0,3488.6172)"
   id="g396"><path
     inkscape:connector-curvature="0"
     id="path398"
     style="fill:#ff2a2a;fill-opacity:1;fill-rule:nonzero;stroke:#ff5555;stroke-width:30.58081818;stroke-linecap:round;stroke-linejoin:round;stroke-miterlimit:10;stroke-dasharray:none;stroke-opacity:1"
     d="M 4640.097,2329.697 10180.953,-2630.15" /></g><g
   transform="matrix(1,-0.901351,-0.901351,-1,0,3488.6172)"
   id="g400"><path
     inkscape:connector-curvature="0"
     id="path402"
     style="fill:#ffffff;fill-opacity:1;fill-rule:nonzero;stroke:#ff0000;stroke-width:29.17853355;stroke-linecap:round;stroke-linejoin:round;stroke-miterlimit:10;stroke-dasharray:none;stroke-opacity:1"
     d="m 5684.611,1191.946 70.715,122.472 h -141.433 l 70.718,-122.473" /></g><g
   transform="matrix(1,-0.901351,-0.901351,-1,0,3488.6172)"
   id="g404"><path
     inkscape:connector-curvature="0"
     id="path406"
     style="fill:#ffffff;fill-opacity:1;fill-rule:nonzero;stroke:#ff0000;stroke-width:29.17853355;stroke-linecap:round;stroke-linejoin:round;stroke-miterlimit:10;stroke-dasharray:none;stroke-opacity:1"
     d="m 7464.114,-307.537 70.716,122.491 h -141.434 l 70.718,-122.491" /></g><g
   transform="matrix(1,-0.901351,-0.901351,-1,0,3488.6172)"
   id="g408"><path
     inkscape:connector-curvature="0"
     id="path410"
     style="fill:#ffffff;fill-opacity:1;fill-rule:nonzero;stroke:#ff0000;stroke-width:29.17853355;stroke-linecap:round;stroke-linejoin:round;stroke-miterlimit:10;stroke-dasharray:none;stroke-opacity:1"
     d="m 5684.611,1191.946 70.715,122.472 h -141.433 l 70.718,-122.473" /></g><g
   transform="matrix(1,-0.901351,-0.901351,-1,0,3488.6172)"
   id="g412"><path
     inkscape:connector-curvature="0"
     id="path414"
     style="fill:#ffffff;fill-opacity:1;fill-rule:nonzero;stroke:#ff0000;stroke-width:29.17853355;stroke-linecap:round;stroke-linejoin:round;stroke-miterlimit:10;stroke-dasharray:none;stroke-opacity:1"
     d="m 7464.114,-307.537 70.716,122.491 h -141.434 l 70.718,-122.491" /></g><g
   transform="matrix(1,0,0,-1,0,3488.6172)"
   id="g416"><path
     inkscape:connector-curvature="0"
     id="path418"
     style="fill:none;stroke:#000000;stroke-width:11.6536417;stroke-linecap:butt;stroke-linejoin:miter;stroke-miterlimit:20;stroke-dasharray:none;stroke-opacity:1"
     d="m 2278.539,2806.035 262.461,-5" /></g><g
   transform="matrix(1,0.0190505,0.0190505,-1,0,3488.6172)"
   id="g420"><path
     inkscape:connector-curvature="0"
     id="path422"
     style="fill:none;stroke:#000000;stroke-width:11.65152836;stroke-linecap:butt;stroke-linejoin:miter;stroke-miterlimit:4;stroke-dasharray:none;stroke-opacity:1"
     d="m 2224.276,2901.073 -10e-4,-105.328" /></g><g
   transform="matrix(1,0.0190505,0.0190505,-1,0,3488.6172)"
   id="g424"><path
     inkscape:connector-curvature="0"
     id="path426"
     style="fill:none;stroke:#000000;stroke-width:11.65152836;stroke-linecap:butt;stroke-linejoin:miter;stroke-miterlimit:4;stroke-dasharray:none;stroke-opacity:1"
     d="M 2486.737,2901.073 V 2795.745" /></g><g
   transform="matrix(1,0,0,-1,0,3488.6172)"
   id="g428"><path
     inkscape:connector-curvature="0"
     id="path430"
     style="fill:none;stroke:#000000;stroke-width:11.91299343;stroke-linecap:butt;stroke-linejoin:miter;stroke-miterlimit:20;stroke-dasharray:none;stroke-opacity:1"
     d="M 2657.152,3434.711 H 5935.496" /></g><g
   transform="matrix(1,0,0,-1,0,3488.6172)"
   id="g432"><path
     inkscape:connector-curvature="0"
     id="path434"
     style="fill:none;stroke:#000000;stroke-width:11.91299343;stroke-linecap:butt;stroke-linejoin:miter;stroke-miterlimit:4;stroke-dasharray:none;stroke-opacity:1"
     d="M 2657.152,3488.559 V 3380.863" /></g><g
   transform="matrix(1,0,0,-1,0,3488.6172)"
   id="g436"><path
     inkscape:connector-curvature="0"
     id="path438"
     style="fill:none;stroke:#000000;stroke-width:11.91299343;stroke-linecap:butt;stroke-linejoin:miter;stroke-miterlimit:4;stroke-dasharray:none;stroke-opacity:1"
     d="M 5935.496,3488.559 V 3380.863" /></g><text
   id="text440"
   style="font-variant:normal;font-weight:normal;line-height:0%;font-family:'DejaVu Sans';-inkscape-font-specification:DejaVuSans;writing-mode:lr-tb;fill:#000000;fill-opacity:1;fill-rule:nonzero;stroke:none"
   transform="scale(1,-1)"
   x="3610.8228"
   y="-82.707245"><tspan
     id="tspan442"
     sodipodi:role="line"
     y="-82.707245"
     x="3610.8228 3793.4148 3873.1907 4055.7827 4147.0786 4226.8545 4402.5347 4578.5029"
     style="font-size:288px;line-height:1.25">big loop</tspan><tspan
     id="tspan444"
     sodipodi:role="line"
     y="-769.71515"
     x="2021.2922 2203.5962 2379.5642 2459.3403 2609.1003"
     style="font-size:288px;line-height:1.25">noise</tspan></text>

<g
   transform="matrix(1,0,0,-1,0,3488.6172)"
   id="g446"><path
     inkscape:connector-curvature="0"
     id="path448"
     style="fill:#ffffff;fill-opacity:1;fill-rule:nonzero;stroke:#000000;stroke-width:9.60000038;stroke-linecap:butt;stroke-linejoin:miter;stroke-miterlimit:4;stroke-dasharray:none;stroke-opacity:1"
     d="m 2727.383,1593.859 c 0,27.489 -22.285,49.774 -49.774,49.774 -27.488,0 -49.773,-22.285 -49.773,-49.774 0,-27.488 22.285,-49.773 49.773,-49.773 27.489,0 49.774,22.285 49.774,49.773 z" /></g><g
   transform="matrix(1,0,0,-1,0,3488.6172)"
   id="g450"><path
     inkscape:connector-curvature="0"
     id="path452"
     style="fill:#ffffff;fill-opacity:1;fill-rule:nonzero;stroke:#000000;stroke-width:9.60000038;stroke-linecap:butt;stroke-linejoin:miter;stroke-miterlimit:4;stroke-dasharray:none;stroke-opacity:1"
     d="m 2590.773,1593.859 c 0,27.489 -22.285,49.774 -49.773,49.774 -27.488,0 -49.773,-22.285 -49.773,-49.774 0,-27.488 22.285,-49.773 49.773,-49.773 27.488,0 49.773,22.285 49.773,49.773 z" /></g><g
   transform="matrix(1,0,0,-1,0,3488.6172)"
   id="g454"><path
     inkscape:connector-curvature="0"
     id="path456"
     style="fill:#ffffff;fill-opacity:1;fill-rule:nonzero;stroke:#000000;stroke-width:9.60000038;stroke-linecap:butt;stroke-linejoin:miter;stroke-miterlimit:4;stroke-dasharray:none;stroke-opacity:1"
     d="m 2328.312,1593.859 c 0,27.489 -22.285,49.774 -49.773,49.774 -27.488,0 -49.773,-22.285 -49.773,-49.774 0,-27.488 22.285,-49.773 49.773,-49.773 27.488,0 49.773,22.285 49.773,49.773 z" /></g><g
   transform="matrix(1,0,0,-1,0,3488.6172)"
   id="g458"><path
     inkscape:connector-curvature="0"
     id="path460"
     style="fill:#ffffff;fill-opacity:1;fill-rule:nonzero;stroke:#000000;stroke-width:9.60000038;stroke-linecap:butt;stroke-linejoin:miter;stroke-miterlimit:4;stroke-dasharray:none;stroke-opacity:1"
     d="m 5839.816,1593.859 c 0,27.489 -22.285,49.774 -49.773,49.774 -27.488,0 -49.773,-22.285 -49.773,-49.774 0,-27.488 22.285,-49.773 49.773,-49.773 27.488,0 49.773,22.285 49.773,49.773 z" /></g><g
   transform="matrix(1,0,0,-1,0,3488.6172)"
   id="g462"><path
     inkscape:connector-curvature="0"
     id="path464"
     style="fill:#ffffff;fill-opacity:1;fill-rule:nonzero;stroke:#000000;stroke-width:9.60000038;stroke-linecap:butt;stroke-linejoin:miter;stroke-miterlimit:4;stroke-dasharray:none;stroke-opacity:1"
     d="m 5991.012,1593.859 c 0,27.489 -22.282,49.774 -49.774,49.774 -27.488,0 -49.769,-22.285 -49.769,-49.774 0,-27.488 22.281,-49.773 49.769,-49.773 27.492,0 49.774,22.285 49.774,49.773 z" /></g><g
   transform="matrix(1,0,0,-1,0,3488.6172)"
   id="g466"><path
     inkscape:connector-curvature="0"
     id="path468"
     style="fill:#ffffff;fill-opacity:1;fill-rule:nonzero;stroke:#000000;stroke-width:9.60000038;stroke-linecap:butt;stroke-linejoin:miter;stroke-miterlimit:4;stroke-dasharray:none;stroke-opacity:1"
     d="m 5676.352,1593.859 c 0,27.489 -22.286,49.774 -49.774,49.774 -27.488,0 -49.773,-22.285 -49.773,-49.774 0,-27.488 22.285,-49.773 49.773,-49.773 27.488,0 49.774,22.285 49.774,49.773 z" /></g><g
   transform="matrix(1,0,0,-1,0,3488.6172)"
   id="g470"><path
     inkscape:connector-curvature="0"
     id="path472"
     style="fill:none;stroke:#000000;stroke-width:11.6536417;stroke-linecap:butt;stroke-linejoin:miter;stroke-miterlimit:20;stroke-dasharray:none;stroke-opacity:1"
     d="m 5636.566,2174.859 163.465,-5" /></g><g
   transform="matrix(1,0.0305874,0.0305874,-1,0,3488.6172)"
   id="g474"><path
     inkscape:connector-curvature="0"
     id="path476"
     style="fill:none;stroke:#000000;stroke-width:11.64819527;stroke-linecap:butt;stroke-linejoin:miter;stroke-miterlimit:4;stroke-dasharray:none;stroke-opacity:1"
     d="M 5564.836,2397.722 V 2292.421" /></g><g
   transform="matrix(1,0.0305874,0.0305874,-1,0,3488.6172)"
   id="g478"><path
     inkscape:connector-curvature="0"
     id="path480"
     style="fill:none;stroke:#000000;stroke-width:11.64819527;stroke-linecap:butt;stroke-linejoin:miter;stroke-miterlimit:4;stroke-dasharray:none;stroke-opacity:1"
     d="M 5728.3,2397.722 V 2292.421" /></g><text
   id="text482"
   style="font-variant:normal;font-weight:normal;line-height:0%;font-family:'DejaVu Sans';-inkscape-font-specification:DejaVuSans;writing-mode:lr-tb;fill:#000000;fill-opacity:1;fill-rule:nonzero;stroke:none"
   transform="scale(1,-1)"
   x="5324.1265"
   y="-1400.892"><tspan
     id="tspan484"
     sodipodi:role="line"
     y="-1400.892"
     x="5324.1265 5506.7188 5586.4946 5768.7988 5927.1987"
     style="font-size:288px;line-height:1.25">pinch</tspan></text>

<g
   id="g4006"
   transform="matrix(1,0,0,-1,1661.715,3488.6172)"><path
     d="m 3.996,1154.688 722.375,442.863 722.375,-442.863"
     style="fill:#b3b3b3;fill-opacity:1;fill-rule:nonzero;stroke:#000000;stroke-width:0.80000001;stroke-linecap:butt;stroke-linejoin:miter;stroke-miterlimit:4;stroke-dasharray:none;stroke-opacity:1"
     id="path4008"
     inkscape:connector-curvature="0" /></g><g
   transform="matrix(1,0,0,-1,4985.143,3488.6172)"
   id="g4010"><path
     inkscape:connector-curvature="0"
     id="path4012"
     style="fill:#b3b3b3;fill-opacity:1;fill-rule:nonzero;stroke:#000000;stroke-width:0.80000001;stroke-linecap:butt;stroke-linejoin:miter;stroke-miterlimit:4;stroke-dasharray:none;stroke-opacity:1"
     d="m 3.996,1154.688 722.375,442.863 722.375,-442.863" /></g><g
   id="g4014"
   transform="matrix(1,0,0,-1,3323.428,3488.6172)"><path
     d="m 3.996,1154.688 722.375,442.863 722.375,-442.863"
     style="fill:#b3b3b3;fill-opacity:1;fill-rule:nonzero;stroke:#000000;stroke-width:0.80000001;stroke-linecap:butt;stroke-linejoin:miter;stroke-miterlimit:4;stroke-dasharray:none;stroke-opacity:1"
     id="path4016"
     inkscape:connector-curvature="0" /></g><g
   id="g4018"
   transform="matrix(1,0,0,-1,6646.858,3488.6172)"><path
     d="m 3.996,1154.688 722.375,442.863 722.375,-442.863"
     style="fill:#b3b3b3;fill-opacity:1;fill-rule:nonzero;stroke:#000000;stroke-width:0.80000001;stroke-linecap:butt;stroke-linejoin:miter;stroke-miterlimit:4;stroke-dasharray:none;stroke-opacity:1"
     id="path4020"
     inkscape:connector-curvature="0" /></g></g><g
     inkscape:groupmode="layer"
     id="layer1"
     inkscape:label="points"><g
       transform="matrix(1.25,0,0,-1.25,0.005,4360.7865)"
       style=""
       id="g299"><g
         id="g14"
         transform="matrix(1,0,0,-1,0,3488.6172)"><path
           d="m 3.996,3.988 h 1444.75 V 1154.687 H 3.996 Z"
           style="fill:none;stroke:#000000;stroke-width:8;stroke-linecap:butt;stroke-linejoin:miter;stroke-miterlimit:4;stroke-dasharray:none;stroke-opacity:1"
           id="path16"
           inkscape:connector-curvature="0" /></g><g
         id="g48"
         transform="matrix(1,0,0,-1,0,3488.6172)"><path
           d="m 3.996,3.988 h 1444.75 V 1154.687 H 3.996 Z"
           style="fill:none;stroke:#000000;stroke-width:8;stroke-linecap:butt;stroke-linejoin:miter;stroke-miterlimit:4;stroke-dasharray:none;stroke-opacity:1"
           id="path50"
           inkscape:connector-curvature="0" /></g><path
         d="m 881.523,3267.035 c 0,-6.918 -5.613,-12.531 -12.543,-12.531 -6.921,0 -12.535,5.613 -12.535,12.531 0,6.922 5.614,12.531 12.535,12.531 6.93,0 12.543,-5.609 12.543,-12.531 z"
         style="fill:#c837ab;fill-opacity:1;fill-rule:nonzero;stroke:#d35fbc"
         id="path60"
         inkscape:connector-curvature="0" /><path
         d="m 1196.75,2631.578 c 0,-6.918 -5.613,-12.531 -12.543,-12.531 -6.922,0 -12.535,5.613 -12.535,12.531 0,6.922 5.613,12.531 12.535,12.531 6.93,0 12.543,-5.609 12.543,-12.531 z"
         style="fill:#c837ab;fill-opacity:1;fill-rule:nonzero;stroke:#d35fbc"
         id="path62"
         inkscape:connector-curvature="0" /><path
         d="m 1281.809,2761.672 c 0,-6.918 -5.61,-12.531 -12.543,-12.531 -6.922,0 -12.532,5.613 -12.532,12.531 0,6.922 5.61,12.531 12.532,12.531 6.933,0 12.543,-5.609 12.543,-12.531 z"
         style="fill:#c837ab;fill-opacity:1;fill-rule:nonzero;stroke:#d35fbc"
         id="path64"
         inkscape:connector-curvature="0" /><path
         d="m 1206.762,2851.73 c 0,-6.918 -5.614,-12.531 -12.543,-12.531 -6.922,0 -12.535,5.613 -12.535,12.531 0,6.922 5.613,12.532 12.535,12.532 6.929,0 12.543,-5.61 12.543,-12.532 z"
         style="fill:#c837ab;fill-opacity:1;fill-rule:nonzero;stroke:#d35fbc"
         id="path66"
         inkscape:connector-curvature="0" /><path
         d="m 1176.742,2966.824 c 0,-6.918 -5.613,-12.531 -12.543,-12.531 -6.922,0 -12.535,5.613 -12.535,12.531 0,6.922 5.613,12.531 12.535,12.531 6.93,0 12.543,-5.609 12.543,-12.531 z"
         style="fill:#c837ab;fill-opacity:1;fill-rule:nonzero;stroke:#d35fbc"
         id="path68"
         inkscape:connector-curvature="0" /><path
         d="m 1176.742,3061.891 c 0,-6.918 -5.613,-12.532 -12.543,-12.532 -6.922,0 -12.535,5.614 -12.535,12.532 0,6.921 5.613,12.531 12.535,12.531 6.93,0 12.543,-5.61 12.543,-12.531 z"
         style="fill:#c837ab;fill-opacity:1;fill-rule:nonzero;stroke:#d35fbc"
         id="path70"
         inkscape:connector-curvature="0" /><path
         d="m 1281.809,2921.793 c 0,-6.922 -5.61,-12.531 -12.543,-12.531 -6.922,0 -12.532,5.609 -12.532,12.531 0,6.918 5.61,12.527 12.532,12.527 6.933,0 12.543,-5.609 12.543,-12.527 z"
         style="fill:#c837ab;fill-opacity:1;fill-rule:nonzero;stroke:#d35fbc"
         id="path72"
         inkscape:connector-curvature="0" /><path
         d="m 1101.68,3086.914 c 0,-6.922 -5.614,-12.531 -12.543,-12.531 -6.922,0 -12.535,5.609 -12.535,12.531 0,6.918 5.613,12.527 12.535,12.527 6.929,0 12.543,-5.609 12.543,-12.527 z"
         style="fill:#c837ab;fill-opacity:1;fill-rule:nonzero;stroke:#d35fbc"
         id="path74"
         inkscape:connector-curvature="0" /><path
         d="m 1151.711,3181.973 c 0,-6.918 -5.613,-12.532 -12.543,-12.532 -6.922,0 -12.535,5.614 -12.535,12.532 0,6.922 5.613,12.531 12.535,12.531 6.93,0 12.543,-5.609 12.543,-12.531 z"
         style="fill:#c837ab;fill-opacity:1;fill-rule:nonzero;stroke:#d35fbc"
         id="path76"
         inkscape:connector-curvature="0" /><path
         d="m 1001.609,3161.961 c 0,-6.918 -5.613,-12.531 -12.543,-12.531 -6.921,0 -12.535,5.613 -12.535,12.531 0,6.922 5.614,12.531 12.535,12.531 6.93,0 12.543,-5.609 12.543,-12.531 z"
         style="fill:#c837ab;fill-opacity:1;fill-rule:nonzero;stroke:#d35fbc"
         id="path78"
         inkscape:connector-curvature="0" /><path
         d="m 306.105,2746.656 c 0,-6.918 -5.613,-12.527 -12.543,-12.527 -6.921,0 -12.535,5.609 -12.535,12.527 0,6.922 5.614,12.532 12.535,12.532 6.93,0 12.543,-5.61 12.543,-12.532 z"
         style="fill:#c837ab;fill-opacity:1;fill-rule:nonzero;stroke:#d35fbc"
         id="path80"
         inkscape:connector-curvature="0" /><path
         d="m 391.168,2681.621 c 0,-6.918 -5.613,-12.531 -12.547,-12.531 -6.918,0 -12.531,5.613 -12.531,12.531 0,6.922 5.613,12.531 12.531,12.531 6.934,0 12.547,-5.609 12.547,-12.531 z"
         style="fill:#c837ab;fill-opacity:1;fill-rule:nonzero;stroke:#d35fbc"
         id="path82"
         inkscape:connector-curvature="0" /><path
         d="m 536.262,2631.578 c 0,-6.918 -5.61,-12.531 -12.543,-12.531 -6.922,0 -12.531,5.613 -12.531,12.531 0,6.922 5.609,12.531 12.531,12.531 6.933,0 12.543,-5.609 12.543,-12.531 z"
         style="fill:#c837ab;fill-opacity:1;fill-rule:nonzero;stroke:#d35fbc"
         id="path84"
         inkscape:connector-curvature="0" /><path
         d="m 591.309,2561.52 c 0,-6.918 -5.614,-12.532 -12.543,-12.532 -6.922,0 -12.536,5.614 -12.536,12.532 0,6.921 5.614,12.531 12.536,12.531 6.929,0 12.543,-5.61 12.543,-12.531 z"
         style="fill:#c837ab;fill-opacity:1;fill-rule:nonzero;stroke:#d35fbc"
         id="path86"
         inkscape:connector-curvature="0" /><path
         d="m 606.316,2706.629 c 0,-6.918 -5.613,-12.531 -12.543,-12.531 -6.921,0 -12.535,5.613 -12.535,12.531 0,6.922 5.614,12.531 12.535,12.531 6.93,0 12.543,-5.609 12.543,-12.531 z"
         style="fill:#c837ab;fill-opacity:1;fill-rule:nonzero;stroke:#d35fbc"
         id="path88"
         inkscape:connector-curvature="0" /><path
         d="m 716.406,2616.559 c 0,-6.922 -5.613,-12.532 -12.543,-12.532 -6.922,0 -12.535,5.61 -12.535,12.532 0,6.921 5.613,12.531 12.535,12.531 6.93,0 12.543,-5.61 12.543,-12.531 z"
         style="fill:#c837ab;fill-opacity:1;fill-rule:nonzero;stroke:#d35fbc"
         id="path90"
         inkscape:connector-curvature="0" /><path
         d="m 781.438,2501.477 c 0,-6.918 -5.614,-12.532 -12.543,-12.532 -6.922,0 -12.536,5.614 -12.536,12.532 0,6.921 5.614,12.531 12.536,12.531 6.929,0 12.543,-5.61 12.543,-12.531 z"
         style="fill:#c837ab;fill-opacity:1;fill-rule:nonzero;stroke:#d35fbc"
         id="path92"
         inkscape:connector-curvature="0" /><path
         d="m 931.57,2481.461 c 0,-6.918 -5.613,-12.527 -12.543,-12.527 -6.922,0 -12.535,5.609 -12.535,12.527 0,6.922 5.613,12.531 12.535,12.531 6.93,0 12.543,-5.609 12.543,-12.531 z"
         style="fill:#c837ab;fill-opacity:1;fill-rule:nonzero;stroke:#d35fbc"
         id="path94"
         inkscape:connector-curvature="0" /><path
         d="m 1011.621,2586.539 c 0,-6.918 -5.613,-12.531 -12.543,-12.531 -6.922,0 -12.535,5.613 -12.535,12.531 0,6.922 5.613,12.531 12.535,12.531 6.93,0 12.543,-5.609 12.543,-12.531 z"
         style="fill:#c837ab;fill-opacity:1;fill-rule:nonzero;stroke:#d35fbc"
         id="path96"
         inkscape:connector-curvature="0" /><path
         d="m 1111.68,2616.559 c 0,-6.922 -5.614,-12.532 -12.543,-12.532 -6.922,0 -12.535,5.61 -12.535,12.532 0,6.921 5.613,12.531 12.535,12.531 6.929,0 12.543,-5.61 12.543,-12.531 z"
         style="fill:#c837ab;fill-opacity:1;fill-rule:nonzero;stroke:#d35fbc"
         id="path98"
         inkscape:connector-curvature="0" /><path
         d="m 516.258,3232.004 c 0,-6.918 -5.613,-12.531 -12.543,-12.531 -6.922,0 -12.535,5.613 -12.535,12.531 0,6.922 5.613,12.531 12.535,12.531 6.93,0 12.543,-5.609 12.543,-12.531 z"
         style="fill:#c837ab;fill-opacity:1;fill-rule:nonzero;stroke:#d35fbc"
         id="path100"
         inkscape:connector-curvature="0" /><path
         d="m 381.152,3292.059 c 0,-6.922 -5.609,-12.532 -12.543,-12.532 -6.921,0 -12.531,5.61 -12.531,12.532 0,6.918 5.61,12.527 12.531,12.527 6.934,0 12.543,-5.609 12.543,-12.527 z"
         style="fill:#c837ab;fill-opacity:1;fill-rule:nonzero;stroke:#d35fbc"
         id="path102"
         inkscape:connector-curvature="0" /><path
         d="m 336.121,3071.891 c 0,-6.918 -5.613,-12.532 -12.543,-12.532 -6.922,0 -12.535,5.614 -12.535,12.532 0,6.921 5.613,12.531 12.535,12.531 6.93,0 12.543,-5.61 12.543,-12.531 z"
         style="fill:#c837ab;fill-opacity:1;fill-rule:nonzero;stroke:#d35fbc"
         id="path104"
         inkscape:connector-curvature="0" /><path
         d="m 231.043,3061.891 c 0,-6.918 -5.613,-12.532 -12.543,-12.532 -6.922,0 -12.535,5.614 -12.535,12.532 0,6.921 5.613,12.531 12.535,12.531 6.93,0 12.543,-5.61 12.543,-12.531 z"
         style="fill:#c837ab;fill-opacity:1;fill-rule:nonzero;stroke:#d35fbc"
         id="path106"
         inkscape:connector-curvature="0" /><path
         d="m 211.023,2961.82 c 0,-6.918 -5.613,-12.531 -12.543,-12.531 -6.921,0 -12.535,5.613 -12.535,12.531 0,6.922 5.614,12.532 12.535,12.532 6.93,0 12.543,-5.61 12.543,-12.532 z"
         style="fill:#c837ab;fill-opacity:1;fill-rule:nonzero;stroke:#d35fbc"
         id="path108"
         inkscape:connector-curvature="0" /><path
         d="m 196.008,2871.75 c 0,-6.918 -5.61,-12.531 -12.543,-12.531 -6.922,0 -12.531,5.613 -12.531,12.531 0,6.922 5.609,12.531 12.531,12.531 6.933,0 12.543,-5.609 12.543,-12.531 z"
         style="fill:#c837ab;fill-opacity:1;fill-rule:nonzero;stroke:#d35fbc"
         id="path110"
         inkscape:connector-curvature="0" /><path
         d="m 306.105,2856.742 c 0,-6.922 -5.613,-12.531 -12.543,-12.531 -6.921,0 -12.535,5.609 -12.535,12.531 0,6.922 5.614,12.531 12.535,12.531 6.93,0 12.543,-5.609 12.543,-12.531 z"
         style="fill:#c837ab;fill-opacity:1;fill-rule:nonzero;stroke:#d35fbc"
         id="path112"
         inkscape:connector-curvature="0" /><path
         d="m 611.312,3252.035 c 0,-6.922 -5.613,-12.531 -12.542,-12.531 -6.922,0 -12.536,5.609 -12.536,12.531 0,6.922 5.614,12.527 12.536,12.527 6.929,0 12.542,-5.605 12.542,-12.527 z"
         style="fill:#c837ab;fill-opacity:1;fill-rule:nonzero;stroke:#d35fbc"
         id="path114"
         inkscape:connector-curvature="0" /><path
         d="m 611.312,3337.094 c 0,-6.918 -5.613,-12.528 -12.542,-12.528 -6.922,0 -12.536,5.61 -12.536,12.528 0,6.922 5.614,12.531 12.536,12.531 6.929,0 12.542,-5.609 12.542,-12.531 z"
         style="fill:#c837ab;fill-opacity:1;fill-rule:nonzero;stroke:#d35fbc"
         id="path116"
         inkscape:connector-curvature="0" /><path
         d="m 741.414,3282.043 c 0,-6.918 -5.613,-12.527 -12.543,-12.527 -6.922,0 -12.535,5.609 -12.535,12.527 0,6.922 5.613,12.531 12.535,12.531 6.93,0 12.543,-5.609 12.543,-12.531 z"
         style="fill:#c837ab;fill-opacity:1;fill-rule:nonzero;stroke:#d35fbc"
         id="path118"
         inkscape:connector-curvature="0" /></g></g></svg>