<?xml version="1.0" encoding="UTF-8" standalone="no"?>
<!-- Created with Inkscape (http://www.inkscape.org/) -->

<svg
   xmlns:ns0="http://www.iki.fi/pav/software/textext/"
   xmlns:dc="http://purl.org/dc/elements/1.1/"
   xmlns:cc="http://creativecommons.org/ns#"
   xmlns:rdf="http://www.w3.org/1999/02/22-rdf-syntax-ns#"
   xmlns:svg="http://www.w3.org/2000/svg"
   xmlns="http://www.w3.org/2000/svg"
   xmlns:sodipodi="http://sodipodi.sourceforge.net/DTD/sodipodi-0.dtd"
   xmlns:inkscape="http://www.inkscape.org/namespaces/inkscape"
   id="svg2"
   version="1.1"
   inkscape:version="0.91 r13725"
   width="471.52813"
   height="328.06263"
   xml:space="preserve"
   sodipodi:docname="gaussianprocess.svg"><sodipodi:namedview
     pagecolor="#ffffff"
     bordercolor="#666666"
     borderopacity="1"
     objecttolerance="10"
     gridtolerance="10"
     guidetolerance="10"
     inkscape:pageopacity="0"
     inkscape:pageshadow="2"
     inkscape:window-width="1920"
     inkscape:window-height="1029"
     id="namedview4"
     showgrid="false"
     inkscape:zoom="1.692322"
     inkscape:cx="72.102974"
     inkscape:cy="60.783288"
     inkscape:window-x="0"
     inkscape:window-y="0"
     inkscape:window-maximized="1"
     inkscape:current-layer="layer2" /><metadata
     id="metadata8"><rdf:RDF><cc:Work
         rdf:about=""><dc:format>image/svg+xml</dc:format><dc:type
           rdf:resource="http://purl.org/dc/dcmitype/StillImage" /><dc:title></dc:title></cc:Work></rdf:RDF></metadata><defs
     id="defs6" /><g
     style="display:none"
     inkscape:label="mean"
     id="layer4"
     inkscape:groupmode="layer"><g
       transform="matrix(1.25,0,0,-1.25,-121.88533,55.78653)"
       style="display:inline;fill:#00ffff;stroke:#000080"
       id="g3918"><path
         inkscape:connector-curvature="0"
         id="path40"
         style="fill:#00ffff;fill-opacity:1;fill-rule:nonzero;stroke:#000080;stroke-width:0.16;stroke-miterlimit:4;stroke-dasharray:none"
         d="m 285.50344,-47.09335 c 0.5,-0.461 1.238,-0.637 1.914,-0.637 1.261,0 2.136,0.852 2.586,1.477 0.203,-1.063 1.039,-1.477 1.726,-1.477 0.602,0 1.074,0.363 1.438,1.074 0.312,0.676 0.586,1.875 0.586,1.965 0,0.098 -0.075,0.176 -0.2,0.176 -0.175,0 -0.199,-0.102 -0.273,-0.402 -0.301,-1.161 -0.676,-2.411 -1.488,-2.411 -0.575,0 -0.614,0.512 -0.614,0.911 0,0.449 0.176,1.164 0.313,1.761 l 0.562,2.141 c 0.075,0.375 0.301,1.273 0.387,1.625 0.125,0.473 0.34,1.336 0.34,1.41 0,0.301 -0.238,0.5 -0.527,0.5 -0.188,0 -0.598,-0.086 -0.762,-0.676 l -1.387,-5.511 c -0.101,-0.399 -0.101,-0.438 -0.351,-0.762 -0.235,-0.324 -1.012,-1.399 -2.262,-1.399 -1.113,0 -1.461,0.813 -1.461,1.735 0,0.578 0.176,1.277 0.25,1.613 l 0.898,3.563 c 0.102,0.386 0.25,1.011 0.25,1.136 0,0.313 -0.25,0.489 -0.511,0.489 -0.176,0 -0.614,-0.051 -0.774,-0.688 l -2.875,-11.473 c -0.015,-0.101 -0.062,-0.226 -0.062,-0.339 0,-0.301 0.234,-0.5 0.535,-0.5 0.574,0 0.699,0.449 0.84,1.011 l 0.922,3.688 z" /></g><path
       sodipodi:nodetypes="ccc"
       inkscape:connector-curvature="0"
       id="path4086"
       d="M 113.03882,303.48897 239.83888,76.919861 363.19863,302.50602"
       style="fill:none;stroke:#00ffff;stroke-width:3;stroke-linecap:butt;stroke-linejoin:miter;stroke-miterlimit:4;stroke-dasharray:none;stroke-opacity:1" /></g><g
     style="display:inline"
     transform="matrix(1.25,0,0,-1.25,0,328.06263)"
     inkscape:label="donsker"
     inkscape:groupmode="layer"
     id="g10"><g
       id="g16"
       transform="matrix(1,0,0,-1,0,262.4501)"><path
         d="m 59.094,241.875 312,0"
         style="fill:none;stroke:#000000;stroke-width:0.80000001;stroke-linecap:butt;stroke-linejoin:miter;stroke-miterlimit:4;stroke-dasharray:none;stroke-opacity:1"
         id="path18"
         inkscape:connector-curvature="0" /></g><g
       id="g20"
       transform="matrix(-1,0,0,1,0,262.4501)"><path
         d="m -363.094,-241.875 3.199,-3.199 -11.199,3.199 11.199,3.199 -3.199,-3.199 z"
         style="fill:#000000;fill-opacity:1;fill-rule:evenodd;stroke:#000000;stroke-width:0.80000001;stroke-linecap:butt;stroke-linejoin:miter;stroke-miterlimit:4;stroke-dasharray:none;stroke-opacity:1"
         id="path22"
         inkscape:connector-curvature="0" /></g><g
       id="g24"
       transform="matrix(1,0,0,-1,0,262.4501)"><path
         d="m 49.949,262.445 0,-257.14"
         style="fill:none;stroke:#000000;stroke-width:0.80000001;stroke-linecap:butt;stroke-linejoin:miter;stroke-miterlimit:4;stroke-dasharray:none;stroke-opacity:1"
         id="path26"
         inkscape:connector-curvature="0" /></g><g
       id="g28"
       transform="matrix(0,-1,-1,0,0,262.4501)"><path
         d="m 13.305,-49.949 3.199,-3.199 -11.199,3.199 11.199,3.199 -3.199,-3.199 z"
         style="fill:#000000;fill-opacity:1;fill-rule:evenodd;stroke:#000000;stroke-width:0.80000001;stroke-linecap:butt;stroke-linejoin:miter;stroke-miterlimit:4;stroke-dasharray:none;stroke-opacity:1"
         id="path30"
         inkscape:connector-curvature="0" /></g><g
       id="g36"
       transform="matrix(1,0,0,-1,0,262.4501)"><path
         d="m 24.922,241.535 42.976,0 L 184.949,31.816 302,241.535 l 11.949,0"
         style="fill:none;stroke:#000000;stroke-width:1.60000002;stroke-linecap:round;stroke-linejoin:round;stroke-miterlimit:10;stroke-dasharray:none;stroke-opacity:1"
         id="path38"
         inkscape:connector-curvature="0" /></g><g
       id="g42"
       transform="matrix(1,0,0,-1,0,262.4501)"><path
         d="m 62.062,242.105 70.321,0 94.57,-169.437 46.317,83.316"
         style="fill:none;stroke:#000000;stroke-width:1.60000002;stroke-linecap:round;stroke-linejoin:round;stroke-miterlimit:10;stroke-dasharray:none;stroke-opacity:1"
         id="path44"
         inkscape:connector-curvature="0" /></g><path
       d="m 202.25,236.059 c -0.5,1.415 -2.062,1.415 -2.312,1.415 -0.126,0 -0.34,0 -0.34,-0.204 0,-0.16 0.113,-0.171 0.214,-0.199 0.301,-0.035 0.536,-0.074 0.848,-0.648 0.203,-0.387 2.238,-6.313 2.238,-6.352 0,-0.012 -0.011,-0.035 -0.175,-0.199 l -5.149,-5.211 c -0.238,-0.238 -0.398,-0.402 -0.398,-0.652 0,-0.274 0.234,-0.512 0.547,-0.512 0.089,0 0.3,0.039 0.425,0.148 0.313,0.301 3.153,3.778 4.95,5.914 0.527,-1.55 1.152,-3.375 1.765,-5.039 0.098,-0.296 0.199,-0.574 0.473,-0.836 0.199,-0.175 0.25,-0.175 0.801,-0.175 l 0.375,0 c 0.074,0 0.226,0 0.226,0.164 0,0.074 -0.027,0.097 -0.101,0.176 -0.188,0.222 -0.325,0.574 -0.399,0.812 l -3.988,11.398 z"
       style="fill:#000000;fill-opacity:1;fill-rule:nonzero;stroke:none"
       id="path46"
       inkscape:connector-curvature="0" /><path
       d="m 213.062,220.376 c 0,0.101 -0.085,0.176 -0.199,0.176 -0.175,0 -0.199,-0.063 -0.301,-0.399 -0.511,-1.801 -1.324,-2.414 -1.972,-2.414 -0.238,0 -0.528,0.063 -0.528,0.649 0,0.539 0.239,1.14 0.465,1.726 l 1.387,3.688 c 0.063,0.164 0.199,0.511 0.199,0.898 0,0.828 -0.601,1.578 -1.574,1.578 -1.812,0 -2.551,-2.875 -2.551,-3.027 0,-0.086 0.074,-0.188 0.211,-0.188 0.188,0 0.203,0.09 0.278,0.364 0.488,1.664 1.238,2.461 2.011,2.461 0.176,0 0.512,-0.024 0.512,-0.661 0,-0.511 -0.262,-1.164 -0.41,-1.601 l -1.391,-3.688 c -0.125,-0.312 -0.234,-0.636 -0.234,-0.988 0,-0.898 0.609,-1.609 1.562,-1.609 1.825,0 2.535,2.898 2.535,3.035 z m -0.16,9.539 c 0,0.285 -0.238,0.648 -0.675,0.648 -0.45,0 -0.965,-0.437 -0.965,-0.949 0,-0.5 0.414,-0.648 0.652,-0.648 0.535,0 0.988,0.511 0.988,0.949 z"
       style="fill:#000000;fill-opacity:1;fill-rule:nonzero;stroke:none"
       id="path48"
       inkscape:connector-curvature="0" /><path
       d="m 268.535,151.489 c -0.5,1.41 -2.062,1.41 -2.312,1.41 -0.125,0 -0.336,0 -0.336,-0.199 0,-0.16 0.109,-0.176 0.211,-0.199 0.3,-0.039 0.539,-0.074 0.851,-0.649 0.199,-0.39 2.235,-6.312 2.235,-6.351 0,-0.012 -0.012,-0.039 -0.172,-0.199 l -5.153,-5.215 c -0.238,-0.235 -0.398,-0.399 -0.398,-0.649 0,-0.273 0.238,-0.511 0.551,-0.511 0.086,0 0.297,0.035 0.422,0.148 0.312,0.301 3.152,3.777 4.953,5.914 0.523,-1.551 1.148,-3.375 1.761,-5.039 0.098,-0.301 0.2,-0.574 0.473,-0.836 0.203,-0.176 0.25,-0.176 0.801,-0.176 l 0.375,0 c 0.074,0 0.226,0 0.226,0.164 0,0.075 -0.027,0.098 -0.101,0.172 -0.188,0.227 -0.324,0.578 -0.399,0.813 l -3.988,11.402 z"
       style="fill:#000000;fill-opacity:1;fill-rule:nonzero;stroke:none"
       id="path50"
       inkscape:connector-curvature="0" /><path
       d="m 268.535,151.489 c -0.5,1.41 -2.062,1.41 -2.312,1.41 -0.125,0 -0.336,0 -0.336,-0.199 0,-0.16 0.109,-0.176 0.211,-0.199 0.3,-0.039 0.539,-0.074 0.851,-0.649 0.199,-0.39 2.235,-6.312 2.235,-6.351 0,-0.012 -0.012,-0.039 -0.172,-0.199 l -5.153,-5.215 c -0.238,-0.235 -0.398,-0.399 -0.398,-0.649 0,-0.273 0.238,-0.511 0.551,-0.511 0.086,0 0.297,0.035 0.422,0.148 0.312,0.301 3.152,3.777 4.953,5.914 0.523,-1.551 1.148,-3.375 1.761,-5.039 0.098,-0.301 0.2,-0.574 0.473,-0.836 0.203,-0.176 0.25,-0.176 0.801,-0.176 l 0.375,0 c 0.074,0 0.226,0 0.226,0.164 0,0.075 -0.027,0.098 -0.101,0.172 -0.188,0.227 -0.324,0.578 -0.399,0.813 l -3.988,11.402 z"
       style="fill:#000000;fill-opacity:1;fill-rule:nonzero;stroke:none"
       id="path52"
       inkscape:connector-curvature="0" /><path
       d="m 280.676,139.255 c 0.074,0.312 0.074,0.586 0.074,0.676 0,1.148 -0.852,1.773 -1.738,1.773 -2,0 -3.074,-2.887 -3.074,-3.023 0,-0.102 0.074,-0.188 0.199,-0.188 0.164,0 0.175,0.086 0.273,0.285 0.801,1.926 1.789,2.539 2.539,2.539 0.414,0 0.637,-0.226 0.637,-0.914 0,-0.472 -0.063,-0.672 -0.137,-1.035 l -1.887,-7.476 c -0.374,-1.461 -1.312,-2.575 -2.402,-2.575 -0.074,0 -0.484,0 -0.875,0.2 0.477,0.101 0.863,0.476 0.863,0.949 0,0.328 -0.238,0.64 -0.675,0.64 -0.524,0 -1,-0.437 -1,-1.039 0,-0.812 0.875,-1.148 1.687,-1.148 1.375,0 3.176,1.012 3.676,3 l 1.84,7.336 z m 0.812,6.086 c 0,0.488 -0.414,0.652 -0.652,0.652 -0.535,0 -1,-0.512 -1,-0.949 0,-0.301 0.25,-0.652 0.676,-0.652 0.461,0 0.976,0.425 0.976,0.949 z"
       style="fill:#000000;fill-opacity:1;fill-rule:nonzero;stroke:none"
       id="path54"
       inkscape:connector-curvature="0" /><path
       d="m 30.234,249.235 0.789,0 3.289,-5.078 c 0.219,-0.359 0.743,-1.207 0.985,-1.539 0.156,-0.262 0.219,-0.262 0.726,-0.262 l 3.024,0 c 0.394,0 0.719,0 0.719,0.395 0,0.172 -0.129,0.328 -0.325,0.375 -0.812,0.172 -1.886,1.617 -2.41,2.316 -0.156,0.227 -1.25,1.668 -2.719,4.039 1.95,0.348 3.836,1.18 3.836,3.786 0,3.05 -3.226,4.101 -5.804,4.101 l -6.891,0 c -0.391,0 -0.742,0 -0.742,-0.394 0,-0.368 0.418,-0.368 0.594,-0.368 1.25,0 1.355,-0.156 1.355,-1.25 l 0,-10.98 c 0,-1.102 -0.105,-1.25 -1.355,-1.25 -0.176,0 -0.594,0 -0.594,-0.375 0,-0.395 0.351,-0.395 0.742,-0.395 l 6.008,0 c 0.394,0 0.727,0 0.727,0.395 0,0.375 -0.376,0.375 -0.614,0.375 -1.25,0 -1.34,0.172 -1.34,1.25 l 0,4.859 z m 4.235,1.078 c 0.609,0.813 0.672,1.973 0.672,2.938 0,1.047 -0.129,2.211 -0.829,3.109 0.899,-0.199 3.067,-0.875 3.067,-3.093 0,-1.418 -0.656,-2.536 -2.91,-2.954 z m -4.235,5.106 c 0,0.461 0,1.187 1.36,1.187 1.859,0 2.785,-0.769 2.785,-3.355 0,-2.828 -0.68,-3.246 -4.145,-3.246 l 0,5.414 z m -2.98,-12.293 c 0.176,0.391 0.176,1.004 0.176,1.203 l 0,11.07 c 0,0.219 0,0.805 -0.176,1.207 l 2.5,0 c -0.285,-0.355 -0.285,-0.793 -0.285,-1.121 l 0,-11.156 c 0,-0.219 0,-0.812 0.172,-1.203 l -2.387,0 z m 4.668,6.109 c 0.152,0.028 0.238,0.047 0.422,0.047 0.324,0 0.804,0.043 1.136,0.086 0.332,-0.523 2.692,-4.426 4.512,-6.242 l -2.125,0 -3.945,6.109 z"
       style="fill:#000000;fill-opacity:1;fill-rule:nonzero;stroke:none"
       id="path72"
       inkscape:connector-curvature="0" /><path
       d="m 355.48,37.778 0.79,0 3.285,-5.082 c 0.218,-0.355 0.746,-1.203 0.988,-1.535 0.156,-0.262 0.219,-0.262 0.727,-0.262 l 3.023,0 c 0.395,0 0.719,0 0.719,0.391 0,0.176 -0.133,0.332 -0.324,0.375 -0.813,0.176 -1.887,1.621 -2.415,2.32 -0.156,0.227 -1.25,1.668 -2.718,4.039 1.949,0.348 3.84,1.18 3.84,3.785 0,3.051 -3.227,4.102 -5.809,4.102 l -6.887,0 c -0.394,0 -0.742,0 -0.742,-0.394 0,-0.368 0.418,-0.368 0.594,-0.368 1.25,0 1.355,-0.156 1.355,-1.25 l 0,-10.984 c 0,-1.098 -0.105,-1.25 -1.355,-1.25 -0.176,0 -0.594,0 -0.594,-0.375 0,-0.391 0.348,-0.391 0.742,-0.391 l 6.008,0 c 0.391,0 0.723,0 0.723,0.391 0,0.375 -0.375,0.375 -0.614,0.375 -1.25,0 -1.336,0.176 -1.336,1.25 l 0,4.863 z m 4.231,1.074 c 0.613,0.813 0.676,1.977 0.676,2.938 0,1.051 -0.133,2.215 -0.832,3.113 0.902,-0.199 3.07,-0.875 3.07,-3.094 0,-1.417 -0.656,-2.535 -2.914,-2.957 z m -4.231,5.11 c 0,0.461 0,1.187 1.356,1.187 1.863,0 2.789,-0.769 2.789,-3.359 0,-2.824 -0.684,-3.242 -4.145,-3.242 l 0,5.414 z M 352.5,31.665 c 0.176,0.394 0.176,1.008 0.176,1.207 l 0,11.07 c 0,0.219 0,0.805 -0.176,1.207 l 2.5,0 c -0.289,-0.359 -0.289,-0.797 -0.289,-1.121 l 0,-11.156 c 0,-0.219 0,-0.813 0.176,-1.207 l -2.387,0 z m 4.668,6.113 c 0.148,0.028 0.238,0.043 0.418,0.043 0.324,0 0.809,0.047 1.137,0.09 0.332,-0.527 2.695,-4.426 4.515,-6.246 l -2.125,0 -3.945,6.113 z"
       style="fill:#000000;fill-opacity:1;fill-rule:nonzero;stroke:none"
       id="path74"
       inkscape:connector-curvature="0" /><g
       id="g160"
       transform="matrix(1,0,0,-1,0,262.4501)"><path
         d="m 273.27,155.984 c 4.886,-8.754 10.918,-18.652 15.8,-27.406 21.032,37.684 63.297,113.297 63.297,113.297 l 8.992,0"
         style="fill:none;stroke:#000000;stroke-width:1.60000002;stroke-linecap:round;stroke-linejoin:round;stroke-miterlimit:10;stroke-dasharray:none;stroke-opacity:1"
         id="path162"
         inkscape:connector-curvature="0" /></g><path
       inkscape:connector-curvature="0"
       id="path3070"
       style="fill:#ff2a2a;fill-opacity:1;fill-rule:nonzero;stroke:none"
       d="m 214.04536,-37.986417 c -0.5,1.415 -2.062,1.415 -2.312,1.415 -0.126,0 -0.34,0 -0.34,-0.204 0,-0.16 0.113,-0.171 0.214,-0.199 0.301,-0.035 0.536,-0.074 0.848,-0.648 0.203,-0.387 2.238,-6.313 2.238,-6.352 0,-0.012 -0.011,-0.035 -0.175,-0.199 l -5.149,-5.211 c -0.238,-0.238 -0.398,-0.402 -0.398,-0.652 0,-0.274 0.234,-0.512 0.547,-0.512 0.089,0 0.3,0.039 0.425,0.148 0.313,0.301 3.153,3.778 4.95,5.914 0.527,-1.55 1.152,-3.375 1.765,-5.039 0.098,-0.296 0.199,-0.574 0.473,-0.836 0.199,-0.175 0.25,-0.175 0.801,-0.175 l 0.375,0 c 0.074,0 0.226,0 0.226,0.164 0,0.074 -0.027,0.097 -0.101,0.176 -0.188,0.222 -0.325,0.574 -0.399,0.812 l -3.988,11.398 z" /><g
       style="display:none"
       inkscape:label="empirical"
       id="layer3"
       inkscape:groupmode="layer"
       sodipodi:insensitive="true"><path
         sodipodi:nodetypes="cccscc"
         transform="matrix(0.8,0,0,-0.8,0,262.4501)"
         inkscape:connector-curvature="0"
         id="path3087"
         d="M 99.277569,301.52307 C 143.67397,223.37885 204.56569,99.680447 231.48383,73.971023 c 18.72946,-4.924587 20.44461,22.051095 34.8946,45.215537 14.10779,20.13799 20.67428,36.97499 26.31565,50.54885 8.26197,19.87937 24.15557,16.46998 31.67818,24.15505 22.77667,27.174 46.00805,86.92314 66.84034,108.12409"
         style="fill:none;stroke:#ff0000;stroke-width:3;stroke-linecap:butt;stroke-linejoin:miter;stroke-miterlimit:4;stroke-dasharray:12, 12;stroke-dashoffset:0;stroke-opacity:1" /><g
         style="fill:#ff0000;stroke:#ff0000"
         transform="translate(-2.3590709,1.572712)"
         id="g3888"><flowRoot
           transform="matrix(0.26346645,0,0,-0.29102753,331.46372,118.33488)"
           style="font-style:normal;font-weight:normal;font-size:40px;line-height:125%;font-family:Sans;letter-spacing:0px;word-spacing:0px;fill:#ff0000;fill-opacity:1;stroke:#ff0000;stroke-width:0.57781696;stroke-miterlimit:4;stroke-dasharray:none"
           id="flowRoot3878"
           xml:space="preserve"><flowRegion
             id="flowRegion3880"><rect
               y="152.11525"
               x="-112.05587"
               height="78.635696"
               width="62.417084"
               id="rect3882"
               style="fill:#ff0000;stroke:#ff0000;stroke-width:0.57781696;stroke-miterlimit:4;stroke-dasharray:none" /></flowRegion><flowPara
             id="flowPara3884">n</flowPara></flowRoot><path
           d="m 296.45067,78.357801 c -0.5,1.41 -2.062,1.41 -2.312,1.41 -0.125,0 -0.336,0 -0.336,-0.199 0,-0.16 0.109,-0.176 0.211,-0.199 0.3,-0.039 0.539,-0.074 0.851,-0.649 0.199,-0.39 2.235,-6.312 2.235,-6.351 0,-0.012 -0.012,-0.039 -0.172,-0.199 l -5.153,-5.215 c -0.238,-0.235 -0.398,-0.399 -0.398,-0.649 0,-0.273 0.238,-0.511 0.551,-0.511 0.086,0 0.297,0.035 0.422,0.148 0.312,0.301 3.152,3.777 4.953,5.914 0.523,-1.551 1.148,-3.375 1.761,-5.039 0.098,-0.301 0.2,-0.574 0.473,-0.836 0.203,-0.176 0.25,-0.176 0.801,-0.176 l 0.375,0 c 0.074,0 0.226,0 0.226,0.164 0,0.075 -0.027,0.098 -0.101,0.172 -0.188,0.227 -0.324,0.578 -0.399,0.813 l -3.988,11.402 z"
           style="fill:#ff0000;fill-opacity:1;fill-rule:nonzero;stroke:#ff0000;stroke-width:0.16;stroke-miterlimit:4;stroke-dasharray:none"
           id="path3886"
           inkscape:connector-curvature="0" /></g><rect
         transform="scale(1,-1)"
         y="-84.926552"
         x="288.98621"
         height="1.1795355"
         width="9.8294621"
         id="rect3897"
         style="fill:#ff0000;fill-opacity:1;stroke:#ff0000;stroke-width:0.16;stroke-linecap:round;stroke-linejoin:round;stroke-miterlimit:4;stroke-dasharray:none;stroke-dashoffset:0;stroke-opacity:1" /></g><g
       style="display:none"
       inkscape:label="at-a"
       id="layer2"
       inkscape:groupmode="layer"><path
         d="m 162.328,21.145 c 0,-1.472 -1.191,-2.664 -2.664,-2.664 -1.473,0 -2.664,1.192 -2.664,2.664 0,1.473 1.191,2.664 2.664,2.664 1.473,0 2.664,-1.191 2.664,-2.664 z"
         style="fill:#000000;fill-opacity:1;fill-rule:nonzero;stroke:none"
         id="path110"
         inkscape:connector-curvature="0" /><g
         id="g112"
         transform="matrix(1,0,0,-1,0,262.4501)"><path
           d="m 162.328,241.305 c 0,1.472 -1.191,2.664 -2.664,2.664 -1.473,0 -2.664,-1.192 -2.664,-2.664 0,-1.473 1.191,-2.664 2.664,-2.664 1.473,0 2.664,1.191 2.664,2.664 z"
           style="fill:none;stroke:#000000;stroke-width:0.0481271;stroke-linecap:butt;stroke-linejoin:miter;stroke-miterlimit:4;stroke-dasharray:0.0481271, 0.144381;stroke-dashoffset:0;stroke-opacity:0.99549501"
           id="path114"
           inkscape:connector-curvature="0" /></g><path
         inkscape:connector-curvature="0"
         id="path4028"
         d="m 159.664,22.411172 0,219.000418"
         style="fill:none;stroke:#000000;stroke-width:0.80000001px;stroke-linecap:butt;stroke-linejoin:miter;stroke-opacity:1" /><path
         inkscape:connector-curvature="0"
         id="path4034"
         style="fill:#000000;fill-opacity:1;fill-rule:nonzero;stroke:none"
         d="m 162.328,69.145 c 0,-1.472 -1.191,-2.664 -2.664,-2.664 -1.473,0 -2.664,1.192 -2.664,2.664 0,1.473 1.191,2.664 2.664,2.664 1.473,0 2.664,-1.191 2.664,-2.664 z" /><g
         transform="matrix(1,0,0,-1,0,310.4501)"
         id="g4036"><path
           inkscape:connector-curvature="0"
           id="path4038"
           style="fill:none;stroke:#000000;stroke-width:0.0481271;stroke-linecap:butt;stroke-linejoin:miter;stroke-miterlimit:4;stroke-dasharray:0.0481271, 0.144381;stroke-dashoffset:0;stroke-opacity:0.99549501"
           d="m 162.328,241.305 c 0,1.472 -1.191,2.664 -2.664,2.664 -1.473,0 -2.664,-1.192 -2.664,-2.664 0,-1.473 1.191,-2.664 2.664,-2.664 1.473,0 2.664,1.191 2.664,2.664 z" /></g><path
         d="m 162.328,142.745 c 0,-1.472 -1.191,-2.664 -2.664,-2.664 -1.473,0 -2.664,1.192 -2.664,2.664 0,1.473 1.191,2.664 2.664,2.664 1.473,0 2.664,-1.191 2.664,-2.664 z"
         style="fill:#000000;fill-opacity:1;fill-rule:nonzero;stroke:none"
         id="path4040"
         inkscape:connector-curvature="0" /><g
         id="g4042"
         transform="matrix(1.21,0,0,-1.21,-33.52944,434.72415)"><path
           d="m 162.328,241.305 c 0,1.472 -1.191,2.664 -2.664,2.664 -1.473,0 -2.664,-1.192 -2.664,-2.664 0,-1.473 1.191,-2.664 2.664,-2.664 1.473,0 2.664,1.191 2.664,2.664 z"
           style="fill:none;stroke:#000000;stroke-width:0.0481271;stroke-linecap:butt;stroke-linejoin:miter;stroke-miterlimit:4;stroke-dasharray:0.0481271, 0.144381;stroke-dashoffset:0;stroke-opacity:0.99549501"
           id="path4044"
           inkscape:connector-curvature="0" /></g><path
         inkscape:connector-curvature="0"
         id="path4046"
         style="fill:#000000;fill-opacity:1;fill-rule:nonzero;stroke:none"
         d="m 162.328,185.945 c 0,-1.472 -1.191,-2.664 -2.664,-2.664 -1.473,0 -2.664,1.192 -2.664,2.664 0,1.473 1.191,2.664 2.664,2.664 1.473,0 2.664,-1.191 2.664,-2.664 z" /><g
         transform="matrix(1.21,0,0,-1.21,-33.52944,477.92415)"
         id="g4048"><path
           inkscape:connector-curvature="0"
           id="path4050"
           style="fill:none;stroke:#000000;stroke-width:0.0481271;stroke-linecap:butt;stroke-linejoin:miter;stroke-miterlimit:4;stroke-dasharray:0.0481271, 0.144381;stroke-dashoffset:0;stroke-opacity:0.99549501"
           d="m 162.328,241.305 c 0,1.472 -1.191,2.664 -2.664,2.664 -1.473,0 -2.664,-1.192 -2.664,-2.664 0,-1.473 1.191,-2.664 2.664,-2.664 1.473,0 2.664,1.191 2.664,2.664 z" /></g><circle
         r="5.2997403"
         cy="121.72027"
         cx="122.9366"
         transform="matrix(0.8,0,0,-0.8,61.31472,283.44055)"
         id="path4052"
         style="fill:#ffd5d5;fill-opacity:1;stroke:#000000;stroke-width:1;stroke-linecap:round;stroke-linejoin:round;stroke-miterlimit:4;stroke-dasharray:none;stroke-dashoffset:0;stroke-opacity:1" /><circle
         r="5.2997403"
         cy="121.72027"
         cx="122.9366"
         style="fill:#00ffff;fill-opacity:1;stroke:#000000;stroke-width:1;stroke-linecap:round;stroke-linejoin:round;stroke-miterlimit:4;stroke-dasharray:none;stroke-dashoffset:0;stroke-opacity:1"
         id="path4054"
         transform="matrix(0.8,0,0,-0.8,61.859265,239.79154)" /><circle
         r="5.2997403"
         cy="121.72027"
         cx="122.9366"
         transform="matrix(0.8,0,0,-0.8,61.31472,165.83844)"
         id="path4056"
         style="fill:#ffd5d5;fill-opacity:1;stroke:#000000;stroke-width:1;stroke-linecap:round;stroke-linejoin:round;stroke-miterlimit:4;stroke-dasharray:none;stroke-dashoffset:0;stroke-opacity:1" /><circle
         r="5.2997403"
         cy="121.72027"
         cx="122.9366"
         style="fill:#000000;fill-opacity:1;stroke:#000000;stroke-width:1;stroke-linecap:round;stroke-linejoin:round;stroke-miterlimit:4;stroke-dasharray:none;stroke-dashoffset:0;stroke-opacity:1"
         id="path4058"
         transform="matrix(0.8,0,0,-0.8,61.31472,118.15815)" /><circle
         r="5.2997403"
         cy="121.72027"
         cx="122.9366"
         style="fill:#ff2a2a;fill-opacity:1;stroke:#000000;stroke-width:1;stroke-linecap:round;stroke-linejoin:round;stroke-miterlimit:4;stroke-dasharray:none;stroke-dashoffset:0;stroke-opacity:1"
         id="path3865"
         transform="matrix(0.8,0,0,-0.8,61.31472,265.84055)" /><flowRoot
         transform="matrix(0.33921056,0,0,-0.45002193,198.81793,92.740928)"
         style="font-style:normal;font-weight:normal;font-size:40px;line-height:125%;font-family:Sans;letter-spacing:0px;word-spacing:0px;display:inline;fill:#000000;fill-opacity:1;stroke:none"
         id="flowRoot4107"
         xml:space="preserve"><flowRegion
           id="flowRegion4109"><rect
             y="161.9447"
             x="-123.35975"
             height="59.959721"
             width="54.062042"
             id="rect4111" /></flowRegion><flowPara
           id="flowPara4113">t</flowPara></flowRoot><circle
         style="display:inline;fill:#ffd5d5;fill-opacity:1;stroke:#000000;stroke-width:0.80000001;stroke-linecap:round;stroke-linejoin:round;stroke-miterlimit:4;stroke-dasharray:none;stroke-dashoffset:0;stroke-opacity:1"
         id="circle3669"
         transform="scale(1,-1)"
         cx="159.664"
         cy="-216.46445"
         r="4.2397923" /></g><g
       transform="matrix(1,0,0,-1,-17.6,262.4501)"
       id="g3437"><path
         inkscape:connector-curvature="0"
         id="path3439"
         style="fill:none;stroke:#000000;stroke-width:1.60000002;stroke-linecap:round;stroke-linejoin:round;stroke-miterlimit:10;stroke-dasharray:none;stroke-opacity:1"
         d="m 24.922,241.535 42.976,0 L 184.949,31.816 302,241.535 l 11.949,0" /></g><g
       ns0:preamble="/home/brittany/texmf/tex/latex/mystyle/mystyle.sty"
       ns0:text="$\\lambda_k$"
       word-spacing="normal"
       letter-spacing="normal"
       font-size-adjust="none"
       font-stretch="normal"
       font-weight="normal"
       font-variant="normal"
       font-style="normal"
       stroke-miterlimit="10.433"
       xml:space="preserve"
       transform="matrix(2.0556917,0,0,1.9931583,-20.246625,-850.37784)"
       id="content"
       style="font-style:normal;font-variant:normal;font-weight:normal;font-stretch:normal;letter-spacing:normal;word-spacing:normal;text-anchor:start;fill:none;fill-opacity:1;fill-rule:evenodd;stroke:#000000;stroke-linecap:butt;stroke-linejoin:miter;stroke-miterlimit:10.43299961;stroke-dasharray:none;stroke-dashoffset:0;stroke-opacity:1"><path
         id="path3507"
         d="m 75.557,532.95 0.038,-0.1 0.039,-0.1 0.078,-0.21 0.079,-0.22 0.079,-0.22 0.078,-0.22 0.077,-0.22 0.075,-0.21 0.037,-0.1 0.036,-0.11 0.035,-0.1 0.035,-0.09 0.034,-0.1 0.032,-0.09 0.032,-0.09 0.031,-0.08 0.029,-0.08 0.028,-0.07 0.027,-0.07 0.026,-0.07 0.024,-0.05 0.023,-0.06 0.021,-0.04 0.019,-0.04 0.018,-0.03 0.016,-0.03 c 0.159,-0.22 0.259,-0.22 0.528,-0.22 l 0.219,0 c 0.1,0.01 0.11,0.07 0.11,0.1 0,0.03 -0.02,0.05 -0.05,0.09 -0.1,0.11 -0.16,0.26 -0.23,0.46 l -2.032,5.67 c -0.209,0.58 -0.747,0.7 -1.215,0.7 -0.05,0 -0.18,0 -0.18,-0.11 0,-0.07 0.08,-0.1 0.09,-0.1 0.329,-0.06 0.399,-0.12 0.648,-0.79 l 0.966,-2.71 -2.75,-2.73 c -0.119,-0.12 -0.179,-0.18 -0.179,-0.31 0,-0.17 0.14,-0.29 0.299,-0.29 0.159,0 0.249,0.11 0.329,0.21 z"
         inkscape:connector-curvature="0"
         style="fill:#000000;stroke-width:0" /><path
         id="path3509"
         d="m 79.995,533.17 10e-4,0 0,0 0,0 0.001,0 0,0.01 0.001,0 0,0 10e-4,0 0,0 0.001,0.01 0.002,0 0.001,0 0.001,0.01 10e-4,0 0.001,0.01 0.001,0 10e-4,0.01 0.002,0 0.002,0.01 0.002,0.01 0.001,0 0.001,0.01 10e-4,0 0.001,0.01 0.001,0 10e-4,0 0.001,0.01 0,0 0.001,0 0,0 0,0 0,0.01 0,0 10e-4,0 0,0 0,0 0,0 0,0 0,0 0,0 c 0,0.04 -0.028,0.1 -0.111,0.1 -0.14,0 -0.719,-0.06 -0.893,-0.07 -0.056,-0.01 -0.153,-0.01 -0.153,-0.16 0,-0.1 0.097,-0.1 0.181,-0.1 0.335,0 0.335,-0.05 0.335,-0.1 0,-0.05 -0.014,-0.09 -0.028,-0.16 l -0.984,-3.94 c -0.034,-0.13 -0.034,-0.14 -0.034,-0.16 0,-0.1 0.083,-0.22 0.237,-0.22 0.188,0 0.279,0.14 0.32,0.29 0.014,0.03 0.314,1.26 0.342,1.36 0.495,-0.05 0.893,-0.21 0.893,-0.58 0,-0.03 0,-0.07 -0.014,-0.13 -0.028,-0.11 -0.028,-0.14 -0.028,-0.22 0,-0.5 0.404,-0.72 0.739,-0.72 0.677,0 0.886,1.06 0.886,1.07 0,0.09 -0.091,0.09 -0.112,0.09 -0.097,0 -0.104,-0.04 -0.139,-0.17 -0.084,-0.3 -0.272,-0.79 -0.614,-0.79 -0.188,0 -0.244,0.17 -0.244,0.36 0,0.12 0,0.13 0.042,0.31 0.007,0.02 0.035,0.14 0.035,0.22 0,0.62 -0.837,0.72 -1.13,0.74 0.202,0.12 0.46,0.35 0.579,0.46 0.355,0.33 0.704,0.66 1.095,0.66 0.083,0 0.174,-0.02 0.23,-0.09 -0.3,-0.05 -0.363,-0.29 -0.363,-0.39 0,-0.15 0.119,-0.26 0.279,-0.26 0.188,0 0.398,0.15 0.398,0.45 0,0.23 -0.168,0.48 -0.537,0.48 -0.398,0 -0.761,-0.28 -1.116,-0.61 -0.293,-0.28 -0.523,-0.49 -0.809,-0.61 z"
         inkscape:connector-curvature="0"
         style="fill:#000000;stroke-width:0" /></g></g><g
     style="display:none"
     inkscape:label="y labels"
     id="layer1"
     inkscape:groupmode="layer"><g
       id="g76"
       transform="matrix(1.25,0,0,1.25,0,5e-6)"><path
         d="m 58.293,192.734 0,-116.574"
         style="fill:none;stroke:#000000;stroke-width:0.80000001;stroke-linecap:butt;stroke-linejoin:miter;stroke-miterlimit:4;stroke-opacity:1;stroke-dasharray:none"
         id="path78"
         inkscape:connector-curvature="0" /></g><g
       id="g80"
       transform="matrix(1.25,0,0,1.25,0,5e-6)"><path
         d="m 42.863,76.445 30.86,0"
         style="fill:none;stroke:#000000;stroke-width:0.80000001;stroke-linecap:butt;stroke-linejoin:miter;stroke-miterlimit:4;stroke-opacity:1;stroke-dasharray:none"
         id="path82"
         inkscape:connector-curvature="0" /></g><g
       id="g84"
       transform="matrix(1.25,0,0,1.25,0,5e-6)"><path
         d="m 42.863,192.445 30.86,0"
         style="fill:none;stroke:#000000;stroke-width:0.80000001;stroke-linecap:butt;stroke-linejoin:miter;stroke-miterlimit:4;stroke-opacity:1;stroke-dasharray:none"
         id="path86"
         inkscape:connector-curvature="0" /></g><g
       id="g88"
       transform="matrix(1.25,0,0,1.25,0,5e-6)"><path
         d="m 42.863,134.445 30.86,0"
         style="fill:none;stroke:#000000;stroke-width:0.80000001;stroke-linecap:butt;stroke-linejoin:miter;stroke-miterlimit:4;stroke-opacity:1;stroke-dasharray:none"
         id="path90"
         inkscape:connector-curvature="0" /></g><path
       d="m 15.125,149.974 3.027,0 c 2.485,0 4.969,1.835 4.969,3.89 0,1.406 -1.191,2.676 -3.461,2.676 l -5.558,0 c -0.34,0 -0.497,0 -0.497,-0.34 0,-0.18 0.157,-0.18 0.43,-0.18 1.09,0 1.09,-0.136 1.09,-0.339 0,-0.036 0,-0.149 -0.07,-0.411 l -2.426,-9.687 c -0.16,-0.625 -0.195,-0.805 -1.453,-0.805 -0.352,0 -0.524,0 -0.524,-0.328 0,-0.195 0.16,-0.195 0.262,-0.195 0.34,0 0.703,0.035 1.043,0.035 l 2.113,0 c 0.34,0 0.715,-0.035 1.055,-0.035 0.145,0 0.352,0 0.352,0.34 0,0.183 -0.172,0.183 -0.434,0.183 -1.086,0 -1.098,0.125 -1.098,0.305 0,0.09 0.012,0.215 0.032,0.309 l 1.148,4.582 z m 1.305,5.343 c 0.156,0.668 0.226,0.703 0.929,0.703 l 1.782,0 c 1.347,0 2.461,-0.433 2.461,-1.781 0,-0.465 -0.227,-1.996 -1.055,-2.824 -0.309,-0.32 -1.168,-1.012 -2.813,-1.012 l -2.531,0 1.227,4.914 z"
       style="fill:#ff2a2a;fill-opacity:1;fill-rule:nonzero;stroke:none"
       id="path92"
       inkscape:connector-curvature="0"
       transform="matrix(1.25,0,0,-1.25,0,328.06263)" /><path
       d="m 31.629,151.493 c 0.363,0 0.508,0 0.508,0.34 0,0.184 -0.145,0.184 -0.465,0.184 l -1.461,0 c 0.34,1.847 0.59,3.128 0.734,3.695 0.114,0.433 0.489,0.851 0.953,0.851 0.375,0 0.762,-0.16 0.942,-0.328 -0.703,-0.07 -0.918,-0.59 -0.918,-0.898 0,-0.363 0.273,-0.578 0.613,-0.578 0.352,0 0.895,0.308 0.895,0.988 0,0.762 -0.758,1.18 -1.543,1.18 -0.782,0 -1.532,-0.578 -1.891,-1.282 -0.332,-0.636 -0.5,-1.281 -0.922,-3.628 l -1.203,0 c -0.34,0 -0.519,0 -0.519,-0.333 0,-0.191 0.101,-0.191 0.464,-0.191 l 1.157,0 c -0.328,-1.68 -1.067,-5.738 -1.473,-7.668 -0.309,-1.566 -0.578,-2.883 -1.477,-2.883 -0.054,0 -0.578,0 -0.906,0.34 0.918,0.082 0.918,0.863 0.918,0.887 0,0.363 -0.273,0.578 -0.613,0.578 -0.363,0 -0.895,-0.305 -0.895,-0.988 0,-0.782 0.793,-1.18 1.496,-1.18 1.829,0 2.586,3.301 2.782,4.199 0.328,1.383 1.211,6.172 1.304,6.715 l 1.52,0 z"
       style="fill:#ff2a2a;fill-opacity:1;fill-rule:nonzero;stroke:none"
       id="path94"
       inkscape:connector-curvature="0"
       transform="matrix(1.25,0,0,-1.25,0,328.06263)" /><path
       d="m 37.703,143.7 c -0.09,-0.305 -0.09,-0.34 -0.34,-0.691 -0.394,-0.5 -1.179,-1.27 -2.031,-1.27 -0.734,0 -1.144,0.668 -1.144,1.723 0,0.988 0.554,3.008 0.894,3.765 0.613,1.262 1.453,1.907 2.156,1.907 1.192,0 1.418,-1.473 1.418,-1.621 0,-0.024 -0.043,-0.25 -0.066,-0.286 L 37.703,143.7 z m 1.16,4.606 c -0.207,0.464 -0.683,1.179 -1.625,1.179 -2.031,0 -4.23,-2.621 -4.23,-5.285 0,-1.781 1.043,-2.824 2.269,-2.824 0.996,0 1.836,0.769 2.336,1.371 0.184,-1.066 1.032,-1.371 1.567,-1.371 0.543,0 0.976,0.328 1.304,0.973 0.282,0.613 0.532,1.703 0.532,1.781 0,0.094 -0.067,0.16 -0.18,0.16 -0.16,0 -0.184,-0.09 -0.25,-0.363 -0.274,-1.055 -0.613,-2.188 -1.352,-2.188 -0.519,0 -0.554,0.465 -0.554,0.828 0,0.407 0.058,0.61 0.215,1.317 0.125,0.441 0.214,0.836 0.363,1.359 0.66,2.699 0.828,3.348 0.828,3.461 0,0.25 -0.203,0.441 -0.465,0.441 -0.578,0 -0.726,-0.625 -0.758,-0.839 z"
       style="fill:#ff2a2a;fill-opacity:1;fill-rule:nonzero;stroke:none"
       id="path96"
       inkscape:connector-curvature="0"
       transform="matrix(1.25,0,0,-1.25,0,328.06263)" /><path
       d="m 52.898,143.145 c 0,-1.472 -1.191,-2.664 -2.664,-2.664 -1.468,0 -2.664,1.192 -2.664,2.664 0,1.473 1.196,2.664 2.664,2.664 1.473,0 2.664,-1.191 2.664,-2.664 z"
       style="fill:#ff2a2a;fill-opacity:1;fill-rule:nonzero;stroke:none"
       id="path98"
       inkscape:connector-curvature="0"
       transform="matrix(1.25,0,0,-1.25,0,328.06263)" /><g
       id="g100"
       transform="matrix(1.25,0,0,1.25,0,5e-6)"><path
         d="m 52.898,119.305 c 0,1.472 -1.191,2.664 -2.664,2.664 -1.468,0 -2.664,-1.192 -2.664,-2.664 0,-1.473 1.196,-2.664 2.664,-2.664 1.473,0 2.664,1.191 2.664,2.664 z"
         style="fill:none;stroke:#000000;stroke-width:0.0481271;stroke-linecap:butt;stroke-linejoin:miter;stroke-miterlimit:4;stroke-opacity:0.99549501;stroke-dasharray:0.0481271, 0.144381;stroke-dashoffset:0"
         id="path102"
         inkscape:connector-curvature="0" /></g><path
       d="m 52.613,128.005 c 0,-1.473 -1.191,-2.664 -2.664,-2.664 -1.469,0 -2.664,1.191 -2.664,2.664 0,1.469 1.195,2.664 2.664,2.664 1.473,0 2.664,-1.195 2.664,-2.664 z"
       style="fill:#000000;fill-opacity:1;fill-rule:nonzero;stroke:none"
       id="path104"
       inkscape:connector-curvature="0"
       transform="matrix(1.25,0,0,-1.25,0,328.06263)" /><g
       id="g106"
       transform="matrix(1.25,0,0,1.25,0,5e-6)"><path
         d="m 52.613,134.445 c 0,1.473 -1.191,2.664 -2.664,2.664 -1.469,0 -2.664,-1.191 -2.664,-2.664 0,-1.468 1.195,-2.664 2.664,-2.664 1.473,0 2.664,1.196 2.664,2.664 z"
         style="fill:none;stroke:#000000;stroke-width:0.0481271;stroke-linecap:butt;stroke-linejoin:miter;stroke-miterlimit:4;stroke-opacity:0.99549501;stroke-dasharray:0.0481271, 0.144381;stroke-dashoffset:0"
         id="path108"
         inkscape:connector-curvature="0" /></g><path
       d="m 8.125,187.919 c 0.301,0 0.422,0 0.422,0.281 0,0.149 -0.121,0.149 -0.383,0.149 l -1.211,0 c 0.281,1.527 0.488,2.589 0.609,3.058 0.094,0.356 0.403,0.703 0.79,0.703 0.308,0 0.628,-0.133 0.777,-0.273 -0.582,-0.055 -0.758,-0.488 -0.758,-0.742 0,-0.297 0.223,-0.477 0.504,-0.477 0.293,0 0.742,0.254 0.742,0.816 0,0.629 -0.629,0.973 -1.277,0.973 -0.645,0 -1.266,-0.476 -1.563,-1.058 -0.273,-0.524 -0.414,-1.059 -0.761,-3 l -0.993,0 c -0.281,0 -0.433,0 -0.433,-0.27 0,-0.16 0.086,-0.16 0.387,-0.16 l 0.957,0 C 5.66,186.532 5.051,183.173 4.715,181.579 4.461,180.286 4.234,179.2 3.496,179.2 c -0.047,0 -0.48,0 -0.75,0.281 0.758,0.067 0.758,0.711 0.758,0.731 0,0.301 -0.227,0.476 -0.508,0.476 -0.297,0 -0.738,-0.25 -0.738,-0.812 0,-0.649 0.656,-0.977 1.238,-0.977 1.508,0 2.137,2.727 2.297,3.469 0.269,1.145 1,5.102 1.078,5.551 l 1.254,0 z"
       style="fill:#000000;fill-opacity:1;fill-rule:nonzero;stroke:none"
       id="path116"
       inkscape:connector-curvature="0"
       transform="matrix(1.25,0,0,-1.25,0,328.06263)" /><path
       d="m 13.148,181.477 c -0.074,-0.253 -0.074,-0.281 -0.281,-0.57 -0.328,-0.414 -0.976,-1.051 -1.679,-1.051 -0.61,0 -0.946,0.551 -0.946,1.426 0,0.813 0.457,2.485 0.738,3.11 0.508,1.042 1.204,1.578 1.782,1.578 0.984,0 1.172,-1.219 1.172,-1.344 0,-0.016 -0.036,-0.203 -0.055,-0.234 l -0.731,-2.915 z m 0.957,3.805 c -0.171,0.387 -0.562,0.977 -1.343,0.977 -1.676,0 -3.496,-2.164 -3.496,-4.367 0,-1.473 0.863,-2.336 1.875,-2.336 0.824,0 1.519,0.636 1.933,1.132 0.149,-0.879 0.852,-1.132 1.293,-1.132 0.449,0 0.805,0.273 1.078,0.804 0.235,0.508 0.442,1.407 0.442,1.473 0,0.074 -0.059,0.133 -0.153,0.133 -0.129,0 -0.148,-0.074 -0.207,-0.301 -0.222,-0.871 -0.504,-1.809 -1.113,-1.809 -0.434,0 -0.461,0.383 -0.461,0.684 0,0.336 0.047,0.508 0.18,1.086 0.101,0.367 0.176,0.695 0.301,1.125 0.543,2.234 0.683,2.766 0.683,2.859 0,0.207 -0.168,0.367 -0.387,0.367 -0.476,0 -0.597,-0.515 -0.625,-0.695 z"
       style="fill:#000000;fill-opacity:1;fill-rule:nonzero;stroke:none"
       id="path118"
       inkscape:connector-curvature="0"
       transform="matrix(1.25,0,0,-1.25,0,328.06263)" /><path
       d="m 21.164,178.309 c 0,0.02 0,0.047 -0.035,0.094 -0.684,0.692 -2.512,2.598 -2.512,7.239 0,4.64 1.789,6.523 2.52,7.265 0,0.016 0.027,0.047 0.027,0.094 0,0.047 -0.035,0.074 -0.102,0.074 -0.16,0 -1.425,-1.098 -2.156,-2.738 -0.742,-1.649 -0.945,-3.254 -0.945,-4.688 0,-1.07 0.101,-2.879 0.992,-4.8 0.711,-1.547 1.93,-2.625 2.109,-2.625 0.075,0 0.102,0.027 0.102,0.085 z"
       style="fill:#000000;fill-opacity:1;fill-rule:nonzero;stroke:none"
       id="path120"
       inkscape:connector-curvature="0"
       transform="matrix(1.25,0,0,-1.25,0,328.06263)" /><path
       d="m 26.48,191.2 c -0.375,1.059 -1.546,1.059 -1.734,1.059 -0.094,0 -0.254,0 -0.254,-0.149 0,-0.125 0.086,-0.133 0.16,-0.152 0.223,-0.027 0.403,-0.055 0.637,-0.488 0.149,-0.289 1.68,-4.735 1.68,-4.762 0,-0.008 -0.012,-0.027 -0.133,-0.149 l -3.863,-3.91 c -0.176,-0.179 -0.301,-0.3 -0.301,-0.488 0,-0.207 0.18,-0.383 0.414,-0.383 0.066,0 0.226,0.028 0.32,0.114 0.235,0.222 2.36,2.828 3.711,4.433 0.395,-1.164 0.863,-2.531 1.321,-3.777 0.078,-0.227 0.152,-0.434 0.359,-0.629 0.148,-0.133 0.187,-0.133 0.598,-0.133 l 0.281,0 c 0.058,0 0.168,0 0.168,0.121 0,0.059 -0.016,0.078 -0.074,0.133 -0.141,0.168 -0.243,0.43 -0.301,0.609 L 26.48,191.2 z"
       style="fill:#000000;fill-opacity:1;fill-rule:nonzero;stroke:none"
       id="path122"
       inkscape:connector-curvature="0"
       transform="matrix(1.25,0,0,-1.25,0,328.06263)" /><path
       d="m 34.59,179.438 c 0,0.075 -0.067,0.129 -0.152,0.129 -0.129,0 -0.149,-0.047 -0.223,-0.297 -0.387,-1.351 -0.996,-1.812 -1.481,-1.812 -0.179,0 -0.394,0.047 -0.394,0.488 0,0.403 0.176,0.856 0.348,1.293 l 1.039,2.766 c 0.046,0.125 0.148,0.387 0.148,0.676 0,0.621 -0.449,1.183 -1.18,1.183 -1.359,0 -1.914,-2.156 -1.914,-2.269 0,-0.067 0.059,-0.141 0.16,-0.141 0.141,0 0.153,0.066 0.207,0.27 0.368,1.25 0.93,1.847 1.508,1.847 0.133,0 0.387,-0.019 0.387,-0.496 0,-0.383 -0.199,-0.871 -0.309,-1.199 l -1.043,-2.766 c -0.093,-0.234 -0.175,-0.48 -0.175,-0.742 0,-0.676 0.457,-1.207 1.172,-1.207 1.367,0 1.902,2.172 1.902,2.277 z m -0.121,7.153 c 0,0.215 -0.18,0.488 -0.508,0.488 -0.336,0 -0.723,-0.328 -0.723,-0.715 0,-0.375 0.309,-0.484 0.489,-0.484 0.402,0 0.742,0.383 0.742,0.711 z"
       style="fill:#000000;fill-opacity:1;fill-rule:nonzero;stroke:none"
       id="path124"
       inkscape:connector-curvature="0"
       transform="matrix(1.25,0,0,-1.25,0,328.06263)" /><path
       d="m 39.555,185.642 c 0,1.066 -0.102,2.886 -0.993,4.796 -0.71,1.547 -1.929,2.637 -2.109,2.637 -0.047,0 -0.101,-0.019 -0.101,-0.094 0,-0.027 0.007,-0.039 0.027,-0.074 0.711,-0.742 2.519,-2.625 2.519,-7.258 0,-4.632 -1.796,-6.523 -2.519,-7.265 -0.02,-0.028 -0.027,-0.047 -0.027,-0.075 0,-0.074 0.054,-0.085 0.101,-0.085 0.16,0 1.426,1.097 2.156,2.73 0.743,1.648 0.946,3.262 0.946,4.688 z"
       style="fill:#000000;fill-opacity:1;fill-rule:nonzero;stroke:none"
       id="path126"
       inkscape:connector-curvature="0"
       transform="matrix(1.25,0,0,-1.25,0,328.06263)" /><path
       d="m 5.867,74.341 c 0.301,0 0.422,0 0.422,0.281 0,0.152 -0.121,0.152 -0.383,0.152 l -1.211,0 c 0.282,1.528 0.489,2.586 0.61,3.055 0.093,0.355 0.406,0.703 0.789,0.703 0.308,0 0.629,-0.129 0.777,-0.269 -0.582,-0.059 -0.758,-0.489 -0.758,-0.743 0,-0.3 0.223,-0.476 0.504,-0.476 0.293,0 0.742,0.25 0.742,0.812 0,0.629 -0.629,0.977 -1.273,0.977 -0.648,0 -1.266,-0.477 -1.566,-1.059 -0.274,-0.527 -0.415,-1.058 -0.762,-3 l -0.992,0 c -0.282,0 -0.43,0 -0.43,-0.273 0,-0.16 0.082,-0.16 0.383,-0.16 l 0.957,0 C 3.402,72.954 2.793,69.599 2.457,68.005 2.203,66.712 1.977,65.622 1.238,65.622 c -0.047,0 -0.48,0 -0.75,0.281 0.758,0.067 0.758,0.715 0.758,0.735 0,0.296 -0.223,0.476 -0.504,0.476 C 0.441,67.114 0,66.86 0,66.298 c 0,-0.645 0.656,-0.973 1.238,-0.973 1.508,0 2.137,2.727 2.297,3.469 0.27,1.14 1.004,5.098 1.078,5.547 l 1.254,0 z"
       style="fill:#000000;fill-opacity:1;fill-rule:nonzero;stroke:none"
       id="path128"
       inkscape:connector-curvature="0"
       transform="matrix(1.25,0,0,-1.25,0,328.06263)" /><path
       d="m 10.891,67.903 c -0.075,-0.254 -0.075,-0.281 -0.282,-0.574 -0.328,-0.41 -0.976,-1.051 -1.679,-1.051 -0.61,0 -0.946,0.555 -0.946,1.426 0,0.816 0.461,2.484 0.743,3.113 0.503,1.039 1.199,1.575 1.781,1.575 0.984,0 1.172,-1.219 1.172,-1.34 0,-0.02 -0.039,-0.207 -0.059,-0.235 l -0.73,-2.914 z m 0.957,3.805 c -0.168,0.383 -0.563,0.976 -1.34,0.976 -1.68,0 -3.5,-2.167 -3.5,-4.371 0,-1.472 0.863,-2.332 1.875,-2.332 0.828,0 1.519,0.637 1.933,1.133 0.149,-0.883 0.852,-1.133 1.293,-1.133 0.45,0 0.805,0.27 1.079,0.805 0.234,0.508 0.441,1.406 0.441,1.473 0,0.074 -0.059,0.129 -0.152,0.129 -0.129,0 -0.149,-0.075 -0.204,-0.297 -0.226,-0.875 -0.507,-1.813 -1.117,-1.813 -0.429,0 -0.461,0.387 -0.461,0.688 0,0.336 0.047,0.504 0.18,1.086 0.102,0.367 0.18,0.695 0.301,1.125 0.543,2.23 0.683,2.765 0.683,2.859 0,0.207 -0.168,0.367 -0.382,0.367 -0.481,0 -0.602,-0.515 -0.629,-0.695 z"
       style="fill:#000000;fill-opacity:1;fill-rule:nonzero;stroke:none"
       id="path130"
       inkscape:connector-curvature="0"
       transform="matrix(1.25,0,0,-1.25,0,328.06263)" /><path
       d="m 18.91,64.731 c 0,0.02 0,0.047 -0.039,0.094 -0.683,0.695 -2.512,2.598 -2.512,7.238 0,4.641 1.789,6.528 2.52,7.266 0,0.02 0.031,0.047 0.031,0.094 0,0.047 -0.039,0.074 -0.105,0.074 -0.16,0 -1.426,-1.094 -2.157,-2.734 -0.738,-1.653 -0.945,-3.254 -0.945,-4.688 0,-1.07 0.102,-2.879 0.992,-4.801 0.715,-1.547 1.934,-2.625 2.11,-2.625 0.074,0 0.105,0.028 0.105,0.082 z"
       style="fill:#000000;fill-opacity:1;fill-rule:nonzero;stroke:none"
       id="path132"
       inkscape:connector-curvature="0"
       transform="matrix(1.25,0,0,-1.25,0,328.06263)" /><path
       d="m 24.223,77.622 c -0.375,1.062 -1.547,1.062 -1.735,1.062 -0.093,0 -0.254,0 -0.254,-0.152 0,-0.121 0.086,-0.129 0.161,-0.148 0.226,-0.028 0.402,-0.059 0.636,-0.489 0.153,-0.289 1.68,-4.734 1.68,-4.761 0,-0.012 -0.012,-0.028 -0.133,-0.153 l -3.863,-3.906 c -0.176,-0.18 -0.297,-0.301 -0.297,-0.488 0,-0.207 0.176,-0.387 0.41,-0.387 0.067,0 0.227,0.031 0.32,0.113 0.235,0.227 2.364,2.832 3.711,4.434 0.395,-1.16 0.864,-2.531 1.325,-3.777 0.074,-0.223 0.148,-0.43 0.355,-0.629 0.149,-0.129 0.188,-0.129 0.598,-0.129 l 0.281,0 c 0.059,0 0.172,0 0.172,0.121 0,0.055 -0.02,0.074 -0.078,0.133 -0.141,0.168 -0.242,0.429 -0.297,0.609 l -2.992,8.547 z"
       style="fill:#000000;fill-opacity:1;fill-rule:nonzero;stroke:none"
       id="path134"
       inkscape:connector-curvature="0"
       transform="matrix(1.25,0,0,-1.25,0,328.06263)" /><path
       d="m 33.324,68.45 c 0.059,0.234 0.059,0.442 0.059,0.504 0,0.863 -0.637,1.332 -1.305,1.332 -1.5,0 -2.305,-2.164 -2.305,-2.269 0,-0.075 0.055,-0.141 0.149,-0.141 0.121,0 0.133,0.066 0.207,0.219 0.601,1.441 1.34,1.902 1.902,1.902 0.309,0 0.481,-0.168 0.481,-0.684 0,-0.359 -0.047,-0.507 -0.106,-0.781 l -1.414,-5.605 c -0.281,-1.098 -0.984,-1.93 -1.801,-1.93 -0.054,0 -0.367,0 -0.656,0.148 0.356,0.075 0.649,0.356 0.649,0.715 0,0.242 -0.18,0.477 -0.508,0.477 -0.395,0 -0.75,-0.328 -0.75,-0.778 0,-0.609 0.656,-0.863 1.265,-0.863 1.032,0 2.383,0.758 2.758,2.25 l 1.375,5.504 z m 0.61,4.567 c 0,0.363 -0.309,0.484 -0.485,0.484 -0.406,0 -0.75,-0.383 -0.75,-0.711 0,-0.227 0.188,-0.488 0.504,-0.488 0.348,0 0.731,0.32 0.731,0.715 z"
       style="fill:#000000;fill-opacity:1;fill-rule:nonzero;stroke:none"
       id="path136"
       inkscape:connector-curvature="0"
       transform="matrix(1.25,0,0,-1.25,0,328.06263)" /><path
       d="m 39.191,72.063 c 0,1.071 -0.101,2.887 -0.992,4.801 -0.711,1.547 -1.929,2.633 -2.109,2.633 -0.047,0 -0.102,-0.016 -0.102,-0.094 0,-0.027 0.008,-0.035 0.028,-0.074 0.711,-0.738 2.519,-2.625 2.519,-7.254 0,-4.633 -1.797,-6.527 -2.519,-7.266 -0.02,-0.031 -0.028,-0.046 -0.028,-0.078 0,-0.074 0.055,-0.082 0.102,-0.082 0.16,0 1.426,1.098 2.156,2.727 0.742,1.652 0.945,3.262 0.945,4.687 z"
       style="fill:#000000;fill-opacity:1;fill-rule:nonzero;stroke:none"
       id="path138"
       inkscape:connector-curvature="0"
       transform="matrix(1.25,0,0,-1.25,0,328.06263)" /><path
       d="m 52.613,70.005 c 0,-1.473 -1.191,-2.664 -2.664,-2.664 -1.469,0 -2.664,1.191 -2.664,2.664 0,1.469 1.195,2.664 2.664,2.664 1.473,0 2.664,-1.195 2.664,-2.664 z"
       style="fill:#000000;fill-opacity:1;fill-rule:nonzero;stroke:none"
       id="path140"
       inkscape:connector-curvature="0"
       transform="matrix(1.25,0,0,-1.25,0,328.06263)" /><g
       id="g142"
       transform="matrix(1.25,0,0,1.25,0,5e-6)"><path
         d="m 52.613,192.445 c 0,1.473 -1.191,2.664 -2.664,2.664 -1.469,0 -2.664,-1.191 -2.664,-2.664 0,-1.468 1.195,-2.664 2.664,-2.664 1.473,0 2.664,1.196 2.664,2.664 z"
         style="fill:none;stroke:#000000;stroke-width:0.0481271;stroke-linecap:butt;stroke-linejoin:miter;stroke-miterlimit:4;stroke-opacity:0.99549501;stroke-dasharray:0.0481271, 0.144381;stroke-dashoffset:0"
         id="path144"
         inkscape:connector-curvature="0" /></g><path
       d="m 52.613,186.005 c 0,-1.473 -1.191,-2.664 -2.664,-2.664 -1.469,0 -2.664,1.191 -2.664,2.664 0,1.469 1.195,2.664 2.664,2.664 1.473,0 2.664,-1.195 2.664,-2.664 z"
       style="fill:#000000;fill-opacity:1;fill-rule:nonzero;stroke:none"
       id="path146"
       inkscape:connector-curvature="0"
       transform="matrix(1.25,0,0,-1.25,0,328.06263)" /><g
       id="g148"
       transform="matrix(1.25,0,0,1.25,0,5e-6)"><path
         d="m 52.613,76.445 c 0,1.473 -1.191,2.664 -2.664,2.664 -1.469,0 -2.664,-1.191 -2.664,-2.664 0,-1.468 1.195,-2.664 2.664,-2.664 1.473,0 2.664,1.196 2.664,2.664 z"
         style="fill:none;stroke:#000000;stroke-width:0.0481271;stroke-linecap:butt;stroke-linejoin:miter;stroke-miterlimit:4;stroke-opacity:0.99549501;stroke-dasharray:0.0481271, 0.144381;stroke-dashoffset:0"
         id="path150"
         inkscape:connector-curvature="0" /></g><path
       d="m 19.305,122.661 c 0.023,0.066 0.324,0.672 0.765,1.051 0.309,0.285 0.719,0.484 1.188,0.484 0.484,0 0.648,-0.363 0.648,-0.84 0,-0.687 -0.492,-2.058 -0.734,-2.699 -0.106,-0.289 -0.164,-0.449 -0.164,-0.66 0,-0.543 0.371,-0.977 0.945,-0.977 1.117,0 1.535,1.766 1.535,1.84 0,0.059 -0.047,0.106 -0.121,0.106 -0.105,0 -0.113,-0.039 -0.176,-0.242 -0.277,-0.985 -0.734,-1.461 -1.203,-1.461 -0.121,0 -0.308,0.007 -0.308,0.394 0,0.301 0.129,0.656 0.203,0.832 0.234,0.656 0.742,1.996 0.742,2.684 0,0.719 -0.414,1.258 -1.332,1.258 -1.066,0 -1.633,-0.75 -1.844,-1.051 -0.039,0.679 -0.531,1.051 -1.058,1.051 -0.387,0 -0.645,-0.227 -0.848,-0.637 -0.219,-0.43 -0.387,-1.149 -0.387,-1.195 0,-0.051 0.047,-0.114 0.129,-0.114 0.098,0 0.113,0.016 0.184,0.297 0.187,0.723 0.406,1.414 0.883,1.414 0.281,0 0.378,-0.199 0.378,-0.554 0,-0.262 -0.121,-0.731 -0.203,-1.102 l -0.339,-1.293 c -0.047,-0.234 -0.184,-0.773 -0.243,-0.992 -0.086,-0.309 -0.215,-0.871 -0.215,-0.93 0,-0.168 0.129,-0.305 0.313,-0.305 0.145,0 0.309,0.079 0.406,0.25 0.024,0.063 0.137,0.485 0.192,0.727 l 0.265,1.074 0.399,1.59 z"
       style="fill:#000000;fill-opacity:1;fill-rule:nonzero;stroke:none"
       id="path152"
       inkscape:connector-curvature="0"
       transform="matrix(1.25,0,0,-1.25,0,328.06263)" /><path
       d="m 15.125,127.622 3.027,0 c 2.485,0 4.969,1.84 4.969,3.891 0,1.406 -1.191,2.679 -3.461,2.679 l -5.558,0 c -0.34,0 -0.497,0 -0.497,-0.343 0,-0.18 0.157,-0.18 0.43,-0.18 1.09,0 1.09,-0.137 1.09,-0.34 0,-0.035 0,-0.148 -0.07,-0.41 l -2.426,-9.688 c -0.16,-0.621 -0.195,-0.804 -1.453,-0.804 -0.352,0 -0.524,0 -0.524,-0.328 0,-0.192 0.16,-0.192 0.262,-0.192 0.34,0 0.703,0.031 1.043,0.031 l 2.113,0 c 0.34,0 0.715,-0.031 1.055,-0.031 0.145,0 0.352,0 0.352,0.34 0,0.18 -0.172,0.18 -0.434,0.18 -1.086,0 -1.098,0.125 -1.098,0.308 0,0.09 0.012,0.215 0.032,0.305 l 1.148,4.582 z m 1.305,5.344 c 0.156,0.668 0.226,0.703 0.929,0.703 l 1.782,0 c 1.347,0 2.461,-0.43 2.461,-1.781 0,-0.465 -0.227,-1.996 -1.055,-2.825 -0.309,-0.316 -1.168,-1.007 -2.813,-1.007 l -2.531,0 1.227,4.91 z"
       style="fill:#000000;fill-opacity:1;fill-rule:nonzero;stroke:none"
       id="path154"
       inkscape:connector-curvature="0"
       transform="matrix(1.25,0,0,-1.25,0,328.06263)" /><path
       d="m 31.629,129.142 c 0.363,0 0.508,0 0.508,0.339 0,0.184 -0.145,0.184 -0.465,0.184 l -1.461,0 c 0.34,1.848 0.59,3.129 0.734,3.699 0.114,0.43 0.489,0.848 0.953,0.848 0.375,0 0.762,-0.156 0.942,-0.328 -0.703,-0.067 -0.918,-0.59 -0.918,-0.895 0,-0.363 0.273,-0.578 0.613,-0.578 0.352,0 0.895,0.305 0.895,0.984 0,0.762 -0.758,1.18 -1.543,1.18 -0.782,0 -1.532,-0.578 -1.891,-1.281 -0.332,-0.633 -0.5,-1.281 -0.922,-3.629 l -1.203,0 c -0.34,0 -0.519,0 -0.519,-0.328 0,-0.195 0.101,-0.195 0.464,-0.195 l 1.157,0 c -0.328,-1.676 -1.067,-5.739 -1.473,-7.668 -0.309,-1.567 -0.578,-2.879 -1.477,-2.879 -0.054,0 -0.578,0 -0.906,0.339 0.918,0.079 0.918,0.86 0.918,0.883 0,0.364 -0.273,0.578 -0.613,0.578 -0.363,0 -0.895,-0.304 -0.895,-0.984 0,-0.785 0.793,-1.18 1.496,-1.18 1.829,0 2.586,3.301 2.782,4.196 0.328,1.382 1.211,6.172 1.304,6.715 l 1.52,0 z"
       style="fill:#000000;fill-opacity:1;fill-rule:nonzero;stroke:none"
       id="path156"
       inkscape:connector-curvature="0"
       transform="matrix(1.25,0,0,-1.25,0,328.06263)" /><path
       d="m 37.703,121.349 c -0.09,-0.305 -0.09,-0.34 -0.34,-0.692 -0.394,-0.5 -1.179,-1.269 -2.031,-1.269 -0.734,0 -1.144,0.668 -1.144,1.722 0,0.989 0.554,3.008 0.894,3.77 0.613,1.258 1.453,1.902 2.156,1.902 1.192,0 1.418,-1.473 1.418,-1.621 0,-0.023 -0.043,-0.25 -0.066,-0.281 l -0.887,-3.531 z m 1.16,4.605 c -0.207,0.465 -0.683,1.18 -1.625,1.18 -2.031,0 -4.23,-2.617 -4.23,-5.285 0,-1.782 1.043,-2.825 2.269,-2.825 0.996,0 1.836,0.774 2.336,1.371 0.184,-1.066 1.032,-1.371 1.567,-1.371 0.543,0 0.976,0.328 1.304,0.977 0.282,0.613 0.532,1.699 0.532,1.781 0,0.09 -0.067,0.156 -0.18,0.156 -0.16,0 -0.184,-0.089 -0.25,-0.363 -0.274,-1.055 -0.613,-2.187 -1.352,-2.187 -0.519,0 -0.554,0.464 -0.554,0.828 0,0.41 0.058,0.613 0.215,1.316 0.125,0.442 0.214,0.84 0.363,1.36 0.66,2.699 0.828,3.347 0.828,3.46 0,0.25 -0.203,0.442 -0.465,0.442 -0.578,0 -0.726,-0.621 -0.758,-0.84 z"
       style="fill:#000000;fill-opacity:1;fill-rule:nonzero;stroke:none"
       id="path158"
       inkscape:connector-curvature="0"
       transform="matrix(1.25,0,0,-1.25,0,328.06263)" /><g
       id="g60"
       transform="matrix(1.25,0,0,1.25,0,5e-6)"><path
         d="m 158.809,192.445 -109.145,0"
         style="fill:none;stroke:#000000;stroke-width:0.80000001;stroke-linecap:butt;stroke-linejoin:miter;stroke-miterlimit:4;stroke-opacity:1;stroke-dasharray:0.8, 2.4;stroke-dashoffset:0"
         id="path62"
         inkscape:connector-curvature="0" /></g><g
       id="g64"
       transform="matrix(1.25,0,0,1.25,0,5e-6)"><path
         d="m 158.234,119.305 -108,0"
         style="fill:none;stroke:#ff0000;stroke-width:0.80000001;stroke-linecap:butt;stroke-linejoin:miter;stroke-miterlimit:4;stroke-opacity:1;stroke-dasharray:0.8, 2.4;stroke-dashoffset:0"
         id="path66"
         inkscape:connector-curvature="0" /></g><g
       id="g68"
       transform="matrix(1.25,0,0,1.25,0,5e-6)"><path
         d="m 158.809,76.445 -109.145,0"
         style="fill:none;stroke:#000000;stroke-width:0.80000001;stroke-linecap:butt;stroke-linejoin:miter;stroke-miterlimit:4;stroke-opacity:1;stroke-dasharray:0.8, 2.4;stroke-dashoffset:0"
         id="path70"
         inkscape:connector-curvature="0" /></g></g></svg>