<?xml version="1.0" encoding="UTF-8" standalone="no"?>
<!-- Created with Inkscape (http://www.inkscape.org/) -->

<svg
   xmlns:dc="http://purl.org/dc/elements/1.1/"
   xmlns:cc="http://creativecommons.org/ns#"
   xmlns:rdf="http://www.w3.org/1999/02/22-rdf-syntax-ns#"
   xmlns:svg="http://www.w3.org/2000/svg"
   xmlns="http://www.w3.org/2000/svg"
   version="1.2"
   width="457.89084"
   height="449.69293"
   id="svg2"
   xml:space="preserve"><metadata
     id="metadata8"><rdf:RDF><cc:Work
         rdf:about=""><dc:format>image/svg+xml</dc:format><dc:type
           rdf:resource="http://purl.org/dc/dcmitype/StillImage" /><dc:title></dc:title></cc:Work></rdf:RDF></metadata><defs
     id="defs6" /><g
     transform="translate(10.898641,1e-5)"
     id="layer1"
     style="display:none"><path
       d="m 47.242,152.921 30.238,0 0,-30.234 -30.238,0 0,30.234 z"
       transform="matrix(1.25,0,0,-1.25,0,443.18729)"
       id="path14"
       style="fill:#ffd5d5;fill-opacity:1;fill-rule:nonzero;stroke:none" /><path
       d="m 113.875,267.085 30.238,0 0,-30.238 -30.238,0 0,30.238 z"
       transform="matrix(1.25,0,0,-1.25,0,443.18729)"
       id="path16"
       style="fill:#ffd5d5;fill-opacity:1;fill-rule:nonzero;stroke:none" /><path
       d="m 136.812,228.284 30.238,0 0,-30.238 -30.238,0 0,30.238 z"
       transform="matrix(1.25,0,0,-1.25,0,443.18729)"
       id="path18"
       style="fill:#ffd5d5;fill-opacity:1;fill-rule:nonzero;stroke:none" /><path
       d="m 181.633,276.687 30.238,0 0,-30.238 -30.238,0 0,30.238 z"
       transform="matrix(1.25,0,0,-1.25,0,443.18729)"
       id="path20"
       style="fill:#ffd5d5;fill-opacity:1;fill-rule:nonzero;stroke:none" /><path
       d="m 14.695,329.593 30.238,0 0,-30.238 -30.238,0 0,30.238 z"
       transform="matrix(1.25,0,0,-1.25,0,443.18729)"
       id="path22"
       style="fill:#ffd5d5;fill-opacity:1;fill-rule:nonzero;stroke:none" /></g><g
     id="layer6"
     style="display:none"><path
       d="m 56.106945,409.2648 41.088865,-68.91571 40.35556,69.94556"
       transform="translate(10.898641,1.25e-5)"
       id="path3624"
       style="fill:none;stroke:#000000;stroke-width:1px;stroke-linecap:butt;stroke-linejoin:miter;stroke-opacity:1;display:inline" /><path
       d="m 221.30704,408.93284 32.19076,-57.96066 33.28968,59.39079"
       id="path3744"
       style="fill:none;stroke:#000000;stroke-width:1px;stroke-linecap:butt;stroke-linejoin:miter;stroke-opacity:1;display:inline" /><path
       d="M 90.296141,410.52033 234.90742,155.77316 c 47.74896,85.76888 98.73201,169.55152 150.14415,253.1387"
       id="path3746"
       style="fill:none;stroke:#000000;stroke-width:1px;stroke-linecap:butt;stroke-linejoin:miter;stroke-opacity:1;display:inline" /><path
       d="m 204.87532,408.74854 63.22921,-112.21963 65.79497,113.0835"
       id="path3748"
       style="fill:none;stroke:#000000;stroke-width:1px;stroke-linecap:butt;stroke-linejoin:miter;stroke-opacity:1;display:inline" /><path
       d="m 302.81148,409.88747 33.01516,-60.24318 37.50998,61.4239"
       id="path3750"
       style="fill:none;stroke:#000000;stroke-width:1px;stroke-linecap:butt;stroke-linejoin:miter;stroke-opacity:1;display:inline" /></g><g
     transform="matrix(1.25,0,0,-1.25,10.898641,443.1873)"
     id="g10"
     style="display:inline"><g
       transform="matrix(1,0,0,-1,0,354.54984)"
       id="g28"><path
         d="m 25.352,327.723 329.339,0"
         id="path30"
         style="fill:none;stroke:#000000;stroke-width:0.42107201;stroke-linecap:butt;stroke-linejoin:miter;stroke-miterlimit:4;stroke-opacity:1;stroke-dasharray:none" /></g><g
       transform="matrix(1,0,0,-1,0,354.54984)"
       id="g32"><path
         d="m 29.863,332.234 0,-329.336"
         id="path34"
         style="fill:none;stroke:#000000;stroke-width:0.42107201;stroke-linecap:butt;stroke-linejoin:miter;stroke-miterlimit:4;stroke-opacity:1;stroke-dasharray:none" /></g><g
       transform="matrix(1,0,0,-1,0,354.54984)"
       id="g40"><path
         d="m 25.352,327.723 329.339,0"
         id="path42"
         style="fill:none;stroke:#000000;stroke-width:1.60000002;stroke-linecap:butt;stroke-linejoin:miter;stroke-miterlimit:4;stroke-opacity:1;stroke-dasharray:none" /></g><g
       transform="matrix(-1,0,0,1,0,354.54984)"
       id="g44"><path
         d="m -338.691,-327.723 6.402,-6.402 -22.402,6.402 22.402,6.399 -6.402,-6.399 z"
         id="path46"
         style="fill:#000000;fill-opacity:1;fill-rule:evenodd;stroke:#000000;stroke-width:1.60000002;stroke-linecap:butt;stroke-linejoin:miter;stroke-miterlimit:4;stroke-opacity:1;stroke-dasharray:none" /></g><g
       transform="matrix(1,0,0,-1,0,354.54984)"
       id="g48"><path
         d="m 29.863,332.234 0,-329.336"
         id="path50"
         style="fill:none;stroke:#000000;stroke-width:1.60000002;stroke-linecap:butt;stroke-linejoin:miter;stroke-miterlimit:4;stroke-opacity:1;stroke-dasharray:none" /></g><g
       transform="matrix(0,-1,-1,0,0,354.54984)"
       id="g52"><path
         d="m 18.898,-29.863 6.399,-6.399 -22.399,6.399 22.399,6.398 -6.399,-6.398 z"
         id="path54"
         style="fill:#000000;fill-opacity:1;fill-rule:evenodd;stroke:#000000;stroke-width:1.60000002;stroke-linecap:butt;stroke-linejoin:miter;stroke-miterlimit:4;stroke-opacity:1;stroke-dasharray:none" /></g><g
       transform="matrix(0.70710678,-0.70710678,-0.70710678,-0.70710678,186.8603,279.37429)"
       id="g3279"
       style="display:inline"><path
         d="M 67.421244,290.16476 283.31229,74.273707"
         id="path3281"
         style="fill:none;stroke:#ffbfbf;stroke-width:3.60918999;stroke-linecap:butt;stroke-linejoin:miter;stroke-miterlimit:4;stroke-opacity:1;stroke-dasharray:none" /></g></g><g
     id="layer5"
     style="display:none"><path
       d="m 90.296141,410.52033 129.602469,-0.17906 33.59919,-59.36909 33.28968,59.15605 16.25874,-0.006 13.65423,-29.47927 17.43379,29.67369 51.38681,0.47314"
       id="path3921"
       style="fill:none;stroke:#ff00ff;stroke-width:10;stroke-linecap:round;stroke-linejoin:round;stroke-miterlimit:4;stroke-opacity:1;stroke-dasharray:none" /><path
       d="m 55.771149,411.18428 34.524992,-0.66395 29.213459,-49.13172 29.17515,48.90605 57.36427,-0.13768 61.53406,-109.15175 49.11737,79.63771 19.12619,-30.99865 37.50998,61.4239 12.41382,-0.54785"
       id="path3151"
       style="fill:none;stroke:#ff6600;stroke-width:10;stroke-linecap:round;stroke-linejoin:round;stroke-miterlimit:4;stroke-opacity:1;stroke-dasharray:none" /></g><g
     id="layer7"
     style="display:none"><path
       d="m 47.803841,410.52034 19.254325,0 41.164414,-71.70576 11.28702,22.57403 115.52595,-204.4942 150.71489,253.62593 41.82836,-0.66394"
       id="path4545"
       style="fill:none;stroke:#00ffff;stroke-width:10;stroke-linecap:butt;stroke-linejoin:round;stroke-miterlimit:4;stroke-opacity:1;stroke-dasharray:none" /></g><g
     id="layer10"><path
       d="m 185.91331,270.9325 -117.060294,0"
       id="path5253"
       style="fill:none;stroke:#000000;stroke-width:1px;stroke-linecap:butt;stroke-linejoin:miter;stroke-opacity:1" /><path
       d="m 200.81552,176.73125 0,78.36303"
       id="path5255"
       style="fill:none;stroke:#000000;stroke-width:1px;stroke-linecap:butt;stroke-linejoin:miter;stroke-opacity:1" /><path
       d="m 200.81552,176.73125 77.58497,0 2.73559,0.733"
       id="path5257"
       style="fill:none;stroke:#000000;stroke-width:1px;stroke-linecap:butt;stroke-linejoin:miter;stroke-opacity:1" /><path
       d="m 256.83614,202.04326 0,-85.81263 83.30071,0"
       id="path5259"
       style="fill:none;stroke:#000000;stroke-width:1px;stroke-linecap:butt;stroke-linejoin:miter;stroke-opacity:1" /><path
       d="m 329.10412,128.2325 -156.96048,0 0,160.78641"
       id="path5261"
       style="fill:none;stroke:#000000;stroke-width:1px;stroke-linecap:butt;stroke-linejoin:miter;stroke-opacity:1" /><path
       d="m 86.164266,50.0975 324.152034,0"
       id="path5263"
       style="fill:none;stroke:#000000;stroke-width:1px;stroke-linecap:butt;stroke-linejoin:miter;stroke-opacity:1" /></g><g
     transform="translate(10.898641,1e-5)"
     id="layer3"
     style="display:inline"><path
       d="m 68.853016,270.9325 0,116.34986"
       transform="translate(-10.898641,-1e-5)"
       id="path5289"
       style="fill:none;stroke:#000000;stroke-width:1px;stroke-linecap:butt;stroke-linejoin:miter;stroke-opacity:1" /><path
       d="m 86.164266,50.0975 0,326.56179"
       transform="translate(-10.898641,-1e-5)"
       id="path5291"
       style="fill:none;stroke:#000000;stroke-width:1px;stroke-linecap:butt;stroke-linejoin:miter;stroke-opacity:1" /><g
       transform="matrix(1.25,0,0,1.25,0,-1e-5)"
       id="g3253"
       style="display:inline"><path
         d="M 29.863,327.723 336.645,20.941"
         id="path3255"
         style="fill:none;stroke:#ffbfbf;stroke-width:3.60918999;stroke-linecap:butt;stroke-linejoin:miter;stroke-miterlimit:4;stroke-opacity:1;stroke-dasharray:none" /></g><g
       transform="matrix(1.25,0,0,1.25,0,-1e-5)"
       id="g3257"
       style="display:inline"><path
         d="m 201.262,92.984 0,0.059 -0.059,0.359 -0.121,0.602 -0.059,0.363 0,0.121 -0.062,0.117 -0.121,0.301 -0.18,0.301 -0.238,0.422 -0.301,0.363 -0.121,0.18 -0.059,0.058 -0.183,0.122 -0.36,0.3 -0.359,0.243 -0.184,0.117 -0.058,0 -0.18,0.062 -0.422,0.18 -0.48,0.121 -0.422,0.059 -0.301,0.062 -0.301,0 -0.359,-0.062 -0.602,-0.122 -0.363,-0.058 -0.121,0 -0.117,-0.059 -0.301,-0.121 -0.301,-0.179 -0.422,-0.243 -0.363,-0.3 -0.18,-0.122 -0.058,-0.058 -0.121,-0.18 -0.301,-0.363 -0.242,-0.359 -0.117,-0.18 0,-0.063 -0.063,-0.179 -0.18,-0.422 -0.121,-0.481 -0.058,-0.422 -0.063,-0.3 0,-0.301 0.063,-0.36 0.121,-0.601 0.058,-0.363 0,-0.118 0.059,-0.121 0.121,-0.3 0.18,-0.301 0.242,-0.422 0.301,-0.359 0.121,-0.184 0.058,-0.059 0.18,-0.121 0.363,-0.301 0.36,-0.238 0.18,-0.121 0.062,0 0.18,-0.062 0.422,-0.18 0.48,-0.121 0.422,-0.059 0.301,-0.058 0.3,0 0.36,0.058 0.601,0.121 0.364,0.059 0.117,0 0.121,0.062 0.301,0.118 0.301,0.183 0.421,0.238 0.36,0.301 0.183,0.121 0.059,0.059 0.121,0.184 0.301,0.359 0.238,0.359 0.121,0.184 0,0.059 0.059,0.179 0.183,0.422 0.118,0.481 0.062,0.421 0.059,0.301 0,0.242"
         id="path3259"
         style="fill:#ffa1a1;fill-opacity:1;fill-rule:nonzero;stroke:#000000;stroke-width:0.80000001;stroke-linecap:butt;stroke-linejoin:bevel;stroke-miterlimit:4;stroke-opacity:1;stroke-dasharray:none" /></g><g
       transform="matrix(1.25,0,0,1.25,0,-1e-5)"
       id="g3261"
       style="display:inline"><path
         d="m 156.445,141.387 0,0.058 -0.062,0.36 -0.121,0.601 -0.059,0.364 0,0.121 -0.058,0.117 -0.122,0.301 -0.179,0.3 -0.242,0.422 -0.301,0.36 -0.121,0.183 -0.059,0.059 -0.18,0.121 -0.363,0.301 -0.359,0.238 -0.18,0.121 -0.062,0 -0.18,0.063 -0.422,0.179 -0.48,0.121 -0.422,0.059 -0.301,0.059 -0.301,0 -0.359,-0.059 -0.602,-0.121 -0.363,-0.059 -0.117,0 -0.121,-0.062 -0.301,-0.117 -0.301,-0.184 -0.422,-0.238 -0.359,-0.301 -0.184,-0.121 -0.058,-0.059 -0.122,-0.183 -0.3,-0.36 -0.239,-0.359 -0.121,-0.18 0,-0.062 -0.062,-0.18 -0.18,-0.422 -0.121,-0.48 -0.059,-0.422 -0.058,-0.301 0,-0.301 0.058,-0.359 0.122,-0.602 0.058,-0.363 0,-0.117 0.063,-0.121 0.117,-0.301 0.183,-0.301 0.239,-0.422 0.3,-0.359 0.122,-0.184 0.058,-0.058 0.184,-0.121 0.359,-0.301 0.36,-0.238 0.183,-0.122 0.059,0 0.179,-0.062 0.422,-0.18 0.481,-0.121 0.422,-0.058 0.3,-0.059 0.301,0 0.36,0.059 0.601,0.121 0.363,0.058 0.122,0 0.117,0.063 0.3,0.117 0.301,0.184 0.422,0.238 0.363,0.301 0.18,0.121 0.059,0.058 0.121,0.184 0.301,0.359 0.242,0.36 0.117,0.183 0,0.059 0.062,0.18 0.18,0.421 0.121,0.481 0.059,0.422 0.062,0.301 0,0.242"
         id="path3263"
         style="fill:#ffa1a1;fill-opacity:1;fill-rule:nonzero;stroke:#000000;stroke-width:0.80000001;stroke-linecap:butt;stroke-linejoin:bevel;stroke-miterlimit:4;stroke-opacity:1;stroke-dasharray:none" /></g><g
       transform="matrix(1.25,0,0,1.25,0,-1e-5)"
       id="g3265"
       style="display:inline"><path
         d="m 133.508,102.586 0,0.059 -0.063,0.363 -0.121,0.601 -0.058,0.36 0,0.121 -0.059,0.121 -0.121,0.301 -0.18,0.297 -0.242,0.421 -0.301,0.364 -0.121,0.179 -0.058,0.059 -0.18,0.121 -0.363,0.301 -0.36,0.242 -0.179,0.117 -0.063,0 -0.18,0.063 -0.421,0.179 -0.481,0.122 -0.422,0.058 -0.301,0.063 -0.3,0 -0.36,-0.063 -0.601,-0.121 -0.364,-0.059 -0.117,0 -0.121,-0.058 -0.301,-0.121 -0.3,-0.18 -0.422,-0.242 -0.36,-0.301 -0.183,-0.121 -0.059,-0.059 -0.121,-0.179 -0.301,-0.364 -0.238,-0.359 -0.121,-0.18 0,-0.062 -0.063,-0.18 -0.179,-0.422 -0.121,-0.48 -0.059,-0.422 -0.059,-0.301 0,-0.301 0.059,-0.359 0.121,-0.602 0.059,-0.359 0,-0.121 0.062,-0.121 0.117,-0.301 0.184,-0.301 0.238,-0.421 0.301,-0.36 0.121,-0.18 0.059,-0.062 0.183,-0.121 0.36,-0.301 0.359,-0.238 0.184,-0.121 0.058,0 0.18,-0.059 0.422,-0.184 0.48,-0.117 0.422,-0.062 0.301,-0.059 0.301,0 0.359,0.059 0.602,0.121 0.363,0.058 0.121,0 0.117,0.063 0.301,0.121 0.301,0.18 0.422,0.238 0.363,0.301 0.18,0.121 0.058,0.062 0.121,0.18 0.301,0.36 0.242,0.363 0.117,0.179 0,0.059 0.063,0.18 0.18,0.422 0.121,0.48 0.058,0.422 0.063,0.301 0,0.242"
         id="path3267"
         style="fill:#ffa1a1;fill-opacity:1;fill-rule:nonzero;stroke:#000000;stroke-width:0.80000001;stroke-linecap:butt;stroke-linejoin:bevel;stroke-miterlimit:4;stroke-opacity:1;stroke-dasharray:none" /></g><g
       transform="matrix(1.25,0,0,1.25,38,-1e-5)"
       id="g3269"
       style="display:inline"><path
         d="m 34.324,40.078 0,0.059 -0.058,0.359 -0.121,0.602 -0.059,0.363 0,0.121 -0.063,0.117 -0.117,0.301 -0.183,0.301 -0.239,0.422 -0.3,0.363 -0.122,0.18 -0.058,0.058 -0.184,0.121 -0.359,0.301 -0.359,0.242 -0.184,0.117 -0.059,0 -0.179,0.063 -0.422,0.18 -0.481,0.121 -0.422,0.058 -0.3,0.063 -0.301,0 -0.359,-0.063 -0.602,-0.121 -0.363,-0.058 -0.121,0 -0.118,-0.059 -0.3,-0.121 -0.301,-0.18 -0.422,-0.242 -0.363,-0.301 -0.18,-0.121 -0.059,-0.058 -0.121,-0.18 -0.3,-0.363 -0.243,-0.36 -0.117,-0.179 0,-0.063 -0.062,-0.18 -0.18,-0.421 -0.121,-0.481 -0.059,-0.422 -0.062,-0.301 0,-0.3 0.062,-0.36 0.121,-0.601 0.059,-0.364 0,-0.117 0.059,-0.121 0.121,-0.301 0.179,-0.3 0.243,-0.422 0.3,-0.36 0.121,-0.183 0.059,-0.059 0.18,-0.121 0.363,-0.301 0.359,-0.238 0.18,-0.121 0.063,0 0.179,-0.063 0.422,-0.179 0.481,-0.121 0.421,-0.059 0.301,-0.059 0.301,0 0.359,0.059 0.602,0.121 0.363,0.059 0.117,0 0.122,0.062 0.3,0.117 0.301,0.184 0.422,0.238 0.359,0.301 0.184,0.121 0.058,0.059 0.122,0.183 0.3,0.36 0.239,0.359 0.121,0.184 0,0.058 0.062,0.18 0.18,0.422 0.121,0.48 0.059,0.422 0.058,0.301 0,0.242"
         id="path3271"
         style="fill:#ffa1a1;fill-opacity:1;fill-rule:nonzero;stroke:#000000;stroke-width:0.80000001;stroke-linecap:butt;stroke-linejoin:bevel;stroke-miterlimit:4;stroke-opacity:1;stroke-dasharray:none" /></g><g
       transform="matrix(1.25,0,0,1.25,-20,-1e-5)"
       id="g3273"
       style="display:inline"><path
         d="m 66.875,216.746 0,0.059 -0.063,0.363 -0.121,0.602 -0.058,0.359 0,0.121 -0.059,0.121 -0.121,0.301 -0.18,0.301 -0.242,0.418 -0.301,0.363 -0.121,0.18 -0.058,0.058 -0.18,0.121 -0.363,0.301 -0.539,0.363 -0.063,0 -0.179,0.059 -0.422,0.18 -0.481,0.121 -0.422,0.058 -0.3,0.063 -0.301,0 -0.36,-0.063 -0.601,-0.117 -0.363,-0.062 -0.118,0 -0.121,-0.059 -0.3,-0.121 -0.301,-0.18 -0.422,-0.242 -0.36,-0.301 -0.183,-0.121 -0.059,-0.058 -0.121,-0.18 -0.301,-0.363 -0.238,-0.36 -0.121,-0.179 0,-0.063 -0.059,-0.18 -0.183,-0.421 -0.117,-0.481 -0.063,-0.422 -0.058,-0.301 0,-0.3 0.058,-0.36 0.121,-0.601 0.059,-0.36 0,-0.121 0.062,-0.121 0.121,-0.301 0.18,-0.3 0.238,-0.422 0.301,-0.36 0.121,-0.179 0.059,-0.063 0.183,-0.117 0.36,-0.301 0.359,-0.242 0.184,-0.121 0.058,0 0.18,-0.059 0.422,-0.179 0.48,-0.122 0.422,-0.062 0.301,-0.059 0.301,0 0.359,0.059 0.602,0.121 0.363,0.063 0.121,0 0.117,0.058 0.301,0.121 0.301,0.18 0.422,0.242 0.363,0.301 0.18,0.117 0.058,0.063 0.121,0.179 0.301,0.36 0.242,0.363 0.118,0.18 0,0.058 0.062,0.18 0.18,0.422 0.121,0.48 0.058,0.422 0.063,0.301 0,0.242"
         id="path3275"
         style="fill:#ffa1a1;fill-opacity:1;fill-rule:nonzero;stroke:#000000;stroke-width:0.80000001;stroke-linecap:butt;stroke-linejoin:bevel;stroke-miterlimit:4;stroke-opacity:1;stroke-dasharray:none" /></g><g
       transform="matrix(0,-1.25,-1.25,0,22.58625,421.91854)"
       id="g3341"
       style="display:inline"><path
         d="m 153.703,0.569 6.735,0 c 4.421,0 7.14,3.313 7.14,8.766 0,5.422 -2.703,8.734 -7.14,8.734 l -6.735,0 0,-17.5 z m 2.235,1.969 0,13.563 4.124,0 c 3.454,0 5.282,-2.329 5.282,-6.797 0,-4.422 -1.828,-6.766 -5.282,-6.766 l -4.124,0 z"
         id="path66"
         style="fill:#000000;fill-opacity:1;fill-rule:nonzero;stroke:none" /><path
         d="m 181.203,6.179 c 0,1.922 -0.141,3.078 -0.5,4.015 -0.828,2.063 -2.734,3.313 -5.094,3.313 -3.5,0 -5.765,-2.688 -5.765,-6.813 0,-4.14 2.187,-6.672 5.718,-6.672 2.876,0 4.876,1.625 5.376,4.36 l -2.016,0 c -0.547,-1.656 -1.672,-2.516 -3.281,-2.516 -1.282,0 -2.36,0.578 -3.032,1.625 -0.484,0.719 -0.64,1.453 -0.671,2.688 l 9.265,0 z m -9.219,1.64 c 0.172,2.328 1.594,3.844 3.61,3.844 1.953,0 3.468,-1.641 3.468,-3.703 0,-0.047 0,-0.094 -0.015,-0.141 l -7.063,0 z"
         id="path68"
         style="fill:#000000;fill-opacity:1;fill-rule:nonzero;stroke:none" /><path
         d="m 195.078,1.741 c -0.219,-0.047 -0.312,-0.047 -0.437,-0.047 -0.688,0 -1.079,0.36 -1.079,0.985 l 0,7.39 c 0,2.235 -1.624,3.438 -4.734,3.438 -1.812,0 -3.328,-0.531 -4.172,-1.469 -0.578,-0.641 -0.812,-1.359 -0.859,-2.609 l 2.015,0 c 0.172,1.531 1.079,2.234 2.954,2.234 1.796,0 2.812,-0.672 2.812,-1.875 l 0,-0.531 c 0,-0.844 -0.516,-1.203 -2.094,-1.391 -2.828,-0.359 -3.265,-0.453 -4.031,-0.765 -1.469,-0.61 -2.203,-1.735 -2.203,-3.36 0,-2.281 1.578,-3.719 4.125,-3.719 1.578,0 2.844,0.547 4.266,1.844 0.14,-1.265 0.765,-1.844 2.062,-1.844 0.406,0 0.719,0.047 1.375,0.204 l 0,1.515 z m -3.5,2.781 c 0,-0.671 -0.203,-1.078 -0.797,-1.625 -0.812,-0.75 -1.797,-1.125 -2.984,-1.125 -1.547,0 -2.469,0.735 -2.469,2.016 0,1.313 0.891,1.984 3.031,2.297 2.11,0.297 2.532,0.391 3.219,0.703 l 0,-2.266 z"
         id="path70"
         style="fill:#000000;fill-opacity:1;fill-rule:nonzero;stroke:none" /><path
         d="m 201.672,13.147 -2.063,0 0,3.454 -1.984,0 0,-3.454 -1.703,0 0,-1.64 1.703,0 0,-9.5 c 0,-1.266 0.859,-1.985 2.422,-1.985 0.469,0 0.953,0.047 1.625,0.157 l 0,1.687 c -0.266,-0.078 -0.578,-0.094 -0.953,-0.094 -0.875,0 -1.11,0.235 -1.11,1.125 l 0,8.61 2.063,0 0,1.64 z"
         id="path72"
         style="fill:#000000;fill-opacity:1;fill-rule:nonzero;stroke:none" /><path
         d="m 203.938,18.069 0,-17.5 1.984,0 0,6.938 c 0,2.562 1.344,4.25 3.406,4.25 0.656,0 1.297,-0.219 1.781,-0.578 0.579,-0.407 0.813,-1.016 0.813,-1.891 l 0,-8.719 1.984,0 0,9.5 c 0,2.11 -1.5,3.438 -3.953,3.438 -1.781,0 -2.859,-0.547 -4.031,-2.094 l 0,6.656 -1.984,0 z"
         id="path74"
         style="fill:#000000;fill-opacity:1;fill-rule:nonzero;stroke:none" /></g><g
       transform="matrix(0,1.25,1.25,0,-21.26875,420.60104)"
       id="g5265"
       style="display:inline"><path
         d="m 17.5,177.456 0,7.906 c 0,1.657 -0.453,2.875 -1.469,3.813 -0.906,0.859 -2.156,1.344 -3.515,1.344 -2.125,0 -3.391,-0.969 -4.25,-3.188 -0.75,1.578 -2.047,2.422 -3.828,2.422 -1.266,0 -2.391,-0.484 -3.204,-1.391 C 0.391,187.44 0,186.253 0,184.565 l 0,-7.109 17.5,0 z m -9.953,2.234 -5.578,0 0,4.329 c 0,1.25 0.172,1.937 0.625,2.531 0.484,0.625 1.203,0.969 2.156,0.969 0.938,0 1.688,-0.344 2.172,-0.969 0.453,-0.594 0.625,-1.281 0.625,-2.531 l 0,-4.329 z m 7.984,0 -6.015,0 0,5.454 c 0,1.078 0.25,1.796 0.828,2.328 0.562,0.531 1.328,0.812 2.187,0.812 0.844,0 1.61,-0.281 2.157,-0.812 0.578,-0.532 0.843,-1.25 0.843,-2.328 l 0,-5.454 z"
         id="path5267"
         style="fill:#000000;fill-opacity:1;fill-rule:nonzero;stroke:none" /><path
         d="m 4.922,195.167 0,-1.984 12.578,0 0,1.984 -12.578,0 z m -4.922,0 0,-2.016 2.531,0 0,2.016 -2.531,0 z"
         id="path5269"
         style="fill:#000000;fill-opacity:1;fill-rule:nonzero;stroke:none" /><path
         d="m 4.922,198.558 12.578,0 0,2.015 -6.531,0 c -1.797,0 -2.969,0.453 -3.672,1.422 -0.453,0.625 -0.594,1.219 -0.625,2.61 l -2.031,0 c -0.047,-0.329 -0.079,-0.5 -0.079,-0.766 0,-1.297 0.766,-2.281 2.641,-3.438 l -2.281,0 0,-1.843 z"
         id="path5271"
         style="fill:#000000;fill-opacity:1;fill-rule:nonzero;stroke:none" /><path
         d="m 4.922,211.948 0,-2.062 -3.453,0 0,-1.985 3.453,0 0,-1.703 1.64,0 0,1.703 9.5,0 c 1.266,0 1.985,0.86 1.985,2.422 0,0.469 -0.047,0.953 -0.156,1.625 l -1.688,0 c 0.078,-0.265 0.094,-0.578 0.094,-0.953 0,-0.875 -0.235,-1.109 -1.125,-1.109 l -8.61,0 0,2.062 -1.64,0 z"
         id="path5273"
         style="fill:#000000;fill-opacity:1;fill-rule:nonzero;stroke:none" /><path
         d="m 0,214.214 17.5,0 0,1.984 -6.938,0 c -2.562,0 -4.25,1.344 -4.25,3.407 0,0.656 0.219,1.296 0.579,1.781 0.406,0.578 1.015,0.812 1.89,0.812 l 8.719,0 0,1.985 -9.5,0 c -2.109,0 -3.438,-1.5 -3.438,-3.953 0,-1.782 0.547,-2.86 2.094,-4.032 l -6.656,0 0,-1.984 z"
         id="path5275"
         style="fill:#000000;fill-opacity:1;fill-rule:nonzero;stroke:none" /></g></g><g
     transform="translate(10.898641,1e-5)"
     id="layer2"
     style="display:none"><g
       transform="matrix(1.25,0,0,1.25,0,-1e-5)"
       id="g76"><path
         d="m 197.488,102.418 0,0.062 -0.058,0.36 -0.121,0.601 -0.059,0.36 0,0.121 -0.062,0.121 -0.118,0.301 -0.183,0.301 -0.239,0.421 -0.3,0.36 -0.121,0.179 -0.059,0.063 -0.184,0.121 -0.359,0.301 -0.359,0.238 -0.184,0.121 -0.059,0 -0.179,0.059 -0.422,0.183 -0.481,0.118 -0.421,0.062 -0.301,0.059 -0.301,0 -0.359,-0.059 -0.602,-0.121 -0.363,-0.059 -0.117,0 -0.122,-0.062 -0.3,-0.121 -0.301,-0.18 -0.422,-0.238 -0.359,-0.301 -0.184,-0.121 -0.059,-0.063 -0.121,-0.179 -0.3,-0.36 -0.239,-0.363 -0.121,-0.18 0,-0.058 -0.062,-0.18 -0.18,-0.422 -0.121,-0.48 -0.059,-0.422 -0.058,-0.301 0,-0.301 0.058,-0.359 0.121,-0.602 0.059,-0.363 0,-0.121 0.063,-0.117 0.117,-0.301 0.183,-0.301 0.239,-0.422 0.3,-0.363 0.121,-0.18 0.059,-0.058 0.184,-0.121 0.359,-0.301 0.359,-0.242 0.184,-0.117 0.059,0 0.179,-0.063 0.422,-0.18 0.481,-0.121 0.422,-0.058 0.3,-0.063 0.301,0 0.359,0.063 0.602,0.121 0.363,0.058 0.117,0 0.122,0.059 0.3,0.121 0.301,0.18 0.422,0.242 0.359,0.301 0.184,0.121 0.059,0.058 0.121,0.18 0.3,0.363 0.239,0.36 0.121,0.179 0,0.063 0.062,0.18 0.18,0.422 0.121,0.48 0.059,0.422 0.058,0.301 0,0.238"
         id="path78"
         style="fill:#00ffff;fill-opacity:1;fill-rule:nonzero;stroke:#000000;stroke-width:0.80000001;stroke-linecap:butt;stroke-linejoin:bevel;stroke-miterlimit:4;stroke-opacity:1;stroke-dasharray:none" /></g><g
       transform="matrix(1.25,0,0,1.25,0,-1e-5)"
       id="g80"><path
         d="m 147.352,138.859 0,0.063 -0.063,0.359 -0.117,0.602 -0.063,0.359 0,0.121 -0.058,0.121 -0.121,0.301 -0.18,0.301 -0.242,0.422 -0.301,0.359 -0.121,0.18 -0.059,0.062 -0.179,0.121 -0.364,0.301 -0.359,0.239 -0.18,0.121 -0.062,0 -0.18,0.058 -0.422,0.18 -0.48,0.121 -0.418,0.062 -0.301,0.059 -0.301,0 -0.363,-0.059 -0.602,-0.121 -0.359,-0.062 -0.121,0 -0.121,-0.059 -0.301,-0.121 -0.301,-0.179 -0.422,-0.239 -0.359,-0.301 -0.18,-0.121 -0.062,-0.062 -0.117,-0.18 -0.301,-0.359 -0.242,-0.363 -0.121,-0.18 0,-0.059 -0.059,-0.179 -0.18,-0.422 -0.121,-0.481 -0.062,-0.422 -0.059,-0.3 0,-0.301 0.059,-0.363 0.121,-0.602 0.062,-0.359 0,-0.122 0.059,-0.121 0.121,-0.3 0.18,-0.301 0.242,-0.418 0.301,-0.363 0.117,-0.18 0.062,-0.059 0.18,-0.121 0.359,-0.301 0.364,-0.242 0.179,-0.121 0.059,0 0.184,-0.058 0.418,-0.18 0.484,-0.121 0.418,-0.059 0.301,-0.062 0.3,0 0.364,0.062 0.601,0.117 0.36,0.063 0.121,0 0.121,0.058 0.301,0.122 0.3,0.179 0.418,0.242 0.364,0.301 0.179,0.121 0.059,0.059 0.121,0.18 0.301,0.363 0.363,0.539 0,0.062 0.059,0.18 0.179,0.422 0.121,0.48 0.059,0.422 0.063,0.301 0,0.238"
         id="path82"
         style="fill:#00ffff;fill-opacity:1;fill-rule:nonzero;stroke:#000000;stroke-width:0.80000001;stroke-linecap:butt;stroke-linejoin:bevel;stroke-miterlimit:4;stroke-opacity:1;stroke-dasharray:none" /></g><g
       transform="matrix(1.25,0,0,1.25,0,-1e-5)"
       id="g84"><path
         d="m 126.047,111.594 0,0.058 -0.063,0.364 -0.117,0.601 -0.062,0.36 0,0.121 -0.059,0.121 -0.121,0.301 -0.18,0.3 -0.242,0.418 -0.301,0.364 -0.121,0.179 -0.058,0.059 -0.18,0.121 -0.363,0.301 -0.539,0.363 -0.063,0 -0.18,0.059 -0.421,0.179 -0.481,0.121 -0.422,0.059 -0.301,0.062 -0.3,0 -0.36,-0.062 -0.601,-0.117 -0.36,-0.063 -0.121,0 -0.121,-0.058 -0.301,-0.121 -0.3,-0.18 -0.422,-0.242 -0.36,-0.301 -0.179,-0.121 -0.063,-0.059 -0.121,-0.179 -0.301,-0.364 -0.238,-0.359 -0.121,-0.18 0,-0.062 -0.059,-0.18 -0.183,-0.422 -0.117,-0.48 -0.063,-0.422 -0.059,-0.301 0,-0.301 0.059,-0.359 0.121,-0.602 0.059,-0.359 0,-0.121 0.062,-0.121 0.121,-0.301 0.18,-0.301 0.238,-0.422 0.301,-0.359 0.121,-0.18 0.063,-0.062 0.179,-0.117 0.36,-0.301 0.363,-0.242 0.18,-0.122 0.058,0 0.18,-0.058 0.422,-0.18 0.48,-0.121 0.422,-0.062 0.301,-0.059 0.301,0 0.363,0.059 0.602,0.121 0.359,0.062 0.121,0 0.121,0.059 0.301,0.121 0.301,0.18 0.418,0.242 0.363,0.301 0.18,0.117 0.058,0.062 0.121,0.18 0.301,0.359 0.242,0.364 0.121,0.179 0,0.059 0.059,0.18 0.18,0.421 0.121,0.481 0.058,0.422 0.063,0.301 0,0.242"
         id="path86"
         style="fill:#00ffff;fill-opacity:1;fill-rule:nonzero;stroke:#000000;stroke-width:0.80000001;stroke-linecap:butt;stroke-linejoin:bevel;stroke-miterlimit:4;stroke-opacity:1;stroke-dasharray:none" /></g><g
       transform="matrix(1.25,0,0,1.25,0,-1e-5)"
       id="g88"><path
         d="m 34.324,31.848 0,0.062 -0.058,0.36 -0.121,0.601 -0.059,0.363 0,0.118 -0.063,0.121 -0.117,0.3 -0.183,0.301 -0.239,0.422 -0.3,0.359 -0.122,0.184 -0.058,0.059 -0.184,0.121 -0.359,0.301 -0.359,0.238 -0.184,0.121 -0.059,0 -0.179,0.062 -0.422,0.18 -0.481,0.121 -0.422,0.059 -0.3,0.058 -0.301,0 -0.359,-0.058 -0.602,-0.121 -0.363,-0.059 -0.121,0 -0.118,-0.062 -0.3,-0.118 -0.301,-0.183 -0.422,-0.238 -0.363,-0.301 -0.18,-0.121 -0.059,-0.059 -0.121,-0.184 -0.3,-0.359 -0.243,-0.359 -0.117,-0.184 0,-0.058 -0.062,-0.18 -0.18,-0.422 -0.121,-0.481 -0.059,-0.421 -0.062,-0.301 0,-0.301 0.062,-0.359 0.121,-0.602 0.059,-0.363 0,-0.121 0.059,-0.117 0.121,-0.301 0.179,-0.301 0.243,-0.422 0.3,-0.363 0.121,-0.18 0.059,-0.058 0.18,-0.122 0.363,-0.3 0.359,-0.242 0.18,-0.118 0.063,0 0.179,-0.062 0.422,-0.18 0.481,-0.121 0.421,-0.059 0.301,-0.062 0.301,0 0.359,0.062 0.602,0.122 0.363,0.058 0.117,0 0.122,0.059 0.3,0.121 0.301,0.18 0.422,0.242 0.359,0.3 0.184,0.122 0.058,0.058 0.122,0.18 0.3,0.363 0.239,0.359 0.121,0.18 0,0.063 0.062,0.179 0.18,0.422 0.121,0.481 0.059,0.422 0.058,0.3 0,0.239"
         id="path90"
         style="fill:#00ffff;fill-opacity:1;fill-rule:nonzero;stroke:#000000;stroke-width:0.80000001;stroke-linecap:butt;stroke-linejoin:bevel;stroke-miterlimit:4;stroke-opacity:1;stroke-dasharray:none" /></g><g
       transform="matrix(1.25,0,0,1.25,0,-1e-5)"
       id="g92"><path
         d="m 66.875,231.266 0,0.062 -0.063,0.36 -0.121,0.601 -0.058,0.363 0,0.118 -0.059,0.121 -0.121,0.3 -0.18,0.301 -0.242,0.422 -0.301,0.359 -0.121,0.184 -0.058,0.059 -0.18,0.121 -0.363,0.301 -0.36,0.238 -0.179,0.121 -0.063,0 -0.179,0.062 -0.422,0.18 -0.481,0.121 -0.422,0.059 -0.3,0.058 -0.301,0 -0.36,-0.058 -0.601,-0.121 -0.363,-0.059 -0.118,0 -0.121,-0.062 -0.3,-0.118 -0.301,-0.183 -0.422,-0.238 -0.36,-0.301 -0.183,-0.121 -0.059,-0.059 -0.121,-0.184 -0.301,-0.359 -0.238,-0.359 -0.121,-0.184 0,-0.059 -0.059,-0.179 -0.183,-0.422 -0.117,-0.481 -0.063,-0.421 -0.058,-0.301 0,-0.301 0.058,-0.359 0.121,-0.602 0.059,-0.363 0,-0.121 0.062,-0.117 0.121,-0.301 0.18,-0.301 0.238,-0.422 0.301,-0.363 0.121,-0.18 0.059,-0.058 0.183,-0.122 0.36,-0.3 0.359,-0.243 0.184,-0.117 0.058,0 0.18,-0.062 0.422,-0.18 0.48,-0.121 0.422,-0.059 0.301,-0.058 0.301,0 0.359,0.058 0.602,0.122 0.363,0.058 0.121,0 0.117,0.063 0.301,0.117 0.301,0.179 0.422,0.243 0.363,0.3 0.18,0.122 0.058,0.058 0.121,0.18 0.301,0.363 0.242,0.359 0.118,0.18 0,0.063 0.062,0.179 0.18,0.422 0.121,0.481 0.058,0.422 0.063,0.3 0,0.239"
         id="path94"
         style="fill:#00ffff;fill-opacity:1;fill-rule:nonzero;stroke:#000000;stroke-width:0.80000001;stroke-linecap:butt;stroke-linejoin:bevel;stroke-miterlimit:4;stroke-opacity:1;stroke-dasharray:none" /></g><g
       transform="matrix(1.25,0,0,1.25,0,-1e-5)"
       id="g24"><path
         d="M 29.863,327.723 336.645,20.941"
         id="path26"
         style="fill:none;stroke:#ffbfbf;stroke-width:3.60918999;stroke-linecap:butt;stroke-linejoin:miter;stroke-miterlimit:4;stroke-opacity:1;stroke-dasharray:none" /></g></g><g
     transform="translate(10.898641,1e-5)"
     id="layer4"
     style="display:none"><g
       transform="translate(356.04895,214.09393)"
       id="g3560"><flowRoot
         transform="translate(266.24084,51.123554)"
         id="flowRoot3562"
         xml:space="preserve"
         style="font-size:40px;font-style:normal;font-weight:normal;line-height:125%;letter-spacing:0px;word-spacing:0px;fill:#000000;fill-opacity:1;stroke:none;font-family:Sans"><flowRegion
           id="flowRegion3564"><rect
             width="84.984604"
             height="49.79567"
             x="-312.05286"
             y="139.76569"
             id="rect3566" /></flowRegion><flowPara
           id="flowPara3568">/2</flowPara></flowRoot><g
         transform="translate(-61.746628,90.025974)"
         id="g3570"><g
           transform="matrix(0,1.25,1.25,0,-285.99342,116.48114)"
           id="g3572"
           style="display:inline"><path
             d="m 17.5,177.456 0,7.906 c 0,1.657 -0.453,2.875 -1.469,3.813 -0.906,0.859 -2.156,1.344 -3.515,1.344 -2.125,0 -3.391,-0.969 -4.25,-3.188 -0.75,1.578 -2.047,2.422 -3.828,2.422 -1.266,0 -2.391,-0.484 -3.204,-1.391 C 0.391,187.44 0,186.253 0,184.565 l 0,-7.109 17.5,0 z m -9.953,2.234 -5.578,0 0,4.329 c 0,1.25 0.172,1.937 0.625,2.531 0.484,0.625 1.203,0.969 2.156,0.969 0.938,0 1.688,-0.344 2.172,-0.969 0.453,-0.594 0.625,-1.281 0.625,-2.531 l 0,-4.329 z m 7.984,0 -6.015,0 0,5.454 c 0,1.078 0.25,1.796 0.828,2.328 0.562,0.531 1.328,0.812 2.187,0.812 0.844,0 1.61,-0.281 2.157,-0.812 0.578,-0.532 0.843,-1.25 0.843,-2.328 l 0,-5.454 z"
             id="path3574"
             style="fill:#000000;fill-opacity:1;fill-rule:nonzero;stroke:none" /><path
             d="m 4.922,195.167 0,-1.984 12.578,0 0,1.984 -12.578,0 z m -4.922,0 0,-2.016 2.531,0 0,2.016 -2.531,0 z"
             id="path3576"
             style="fill:#000000;fill-opacity:1;fill-rule:nonzero;stroke:none" /><path
             d="m 4.922,198.558 12.578,0 0,2.015 -6.531,0 c -1.797,0 -2.969,0.453 -3.672,1.422 -0.453,0.625 -0.594,1.219 -0.625,2.61 l -2.031,0 c -0.047,-0.329 -0.079,-0.5 -0.079,-0.766 0,-1.297 0.766,-2.281 2.641,-3.438 l -2.281,0 0,-1.843 z"
             id="path3578"
             style="fill:#000000;fill-opacity:1;fill-rule:nonzero;stroke:none" /><path
             d="m 4.922,211.948 0,-2.062 -3.453,0 0,-1.985 3.453,0 0,-1.703 1.64,0 0,1.703 9.5,0 c 1.266,0 1.985,0.86 1.985,2.422 0,0.469 -0.047,0.953 -0.156,1.625 l -1.688,0 c 0.078,-0.265 0.094,-0.578 0.094,-0.953 0,-0.875 -0.235,-1.109 -1.125,-1.109 l -8.61,0 0,2.062 -1.64,0 z"
             id="path3580"
             style="fill:#000000;fill-opacity:1;fill-rule:nonzero;stroke:none" /><path
             d="m 0,214.214 17.5,0 0,1.984 -6.938,0 c -2.562,0 -4.25,1.344 -4.25,3.407 0,0.656 0.219,1.296 0.579,1.781 0.406,0.578 1.015,0.812 1.89,0.812 l 8.719,0 0,1.985 -9.5,0 c -2.109,0 -3.438,-1.5 -3.438,-3.953 0,-1.782 0.547,-2.86 2.094,-4.032 l -6.656,0 0,-1.984 z"
             id="path3582"
             style="fill:#000000;fill-opacity:1;fill-rule:nonzero;stroke:none" /></g><g
           transform="matrix(1.25,0,0,-1.25,-361.0661,139.06739)"
           id="g3584"
           style="display:inline"><path
             d="m 153.703,0.569 6.735,0 c 4.421,0 7.14,3.313 7.14,8.766 0,5.422 -2.703,8.734 -7.14,8.734 l -6.735,0 0,-17.5 z m 2.235,1.969 0,13.563 4.124,0 c 3.454,0 5.282,-2.329 5.282,-6.797 0,-4.422 -1.828,-6.766 -5.282,-6.766 l -4.124,0 z"
             id="path3586"
             style="fill:#000000;fill-opacity:1;fill-rule:nonzero;stroke:none" /><path
             d="m 181.203,6.179 c 0,1.922 -0.141,3.078 -0.5,4.015 -0.828,2.063 -2.734,3.313 -5.094,3.313 -3.5,0 -5.765,-2.688 -5.765,-6.813 0,-4.14 2.187,-6.672 5.718,-6.672 2.876,0 4.876,1.625 5.376,4.36 l -2.016,0 c -0.547,-1.656 -1.672,-2.516 -3.281,-2.516 -1.282,0 -2.36,0.578 -3.032,1.625 -0.484,0.719 -0.64,1.453 -0.671,2.688 l 9.265,0 z m -9.219,1.64 c 0.172,2.328 1.594,3.844 3.61,3.844 1.953,0 3.468,-1.641 3.468,-3.703 0,-0.047 0,-0.094 -0.015,-0.141 l -7.063,0 z"
             id="path3588"
             style="fill:#000000;fill-opacity:1;fill-rule:nonzero;stroke:none" /><path
             d="m 195.078,1.741 c -0.219,-0.047 -0.312,-0.047 -0.437,-0.047 -0.688,0 -1.079,0.36 -1.079,0.985 l 0,7.39 c 0,2.235 -1.624,3.438 -4.734,3.438 -1.812,0 -3.328,-0.531 -4.172,-1.469 -0.578,-0.641 -0.812,-1.359 -0.859,-2.609 l 2.015,0 c 0.172,1.531 1.079,2.234 2.954,2.234 1.796,0 2.812,-0.672 2.812,-1.875 l 0,-0.531 c 0,-0.844 -0.516,-1.203 -2.094,-1.391 -2.828,-0.359 -3.265,-0.453 -4.031,-0.765 -1.469,-0.61 -2.203,-1.735 -2.203,-3.36 0,-2.281 1.578,-3.719 4.125,-3.719 1.578,0 2.844,0.547 4.266,1.844 0.14,-1.265 0.765,-1.844 2.062,-1.844 0.406,0 0.719,0.047 1.375,0.204 l 0,1.515 z m -3.5,2.781 c 0,-0.671 -0.203,-1.078 -0.797,-1.625 -0.812,-0.75 -1.797,-1.125 -2.984,-1.125 -1.547,0 -2.469,0.735 -2.469,2.016 0,1.313 0.891,1.984 3.031,2.297 2.11,0.297 2.532,0.391 3.219,0.703 l 0,-2.266 z"
             id="path3590"
             style="fill:#000000;fill-opacity:1;fill-rule:nonzero;stroke:none" /><path
             d="m 201.672,13.147 -2.063,0 0,3.454 -1.984,0 0,-3.454 -1.703,0 0,-1.64 1.703,0 0,-9.5 c 0,-1.266 0.859,-1.985 2.422,-1.985 0.469,0 0.953,0.047 1.625,0.157 l 0,1.687 c -0.266,-0.078 -0.578,-0.094 -0.953,-0.094 -0.875,0 -1.11,0.235 -1.11,1.125 l 0,8.61 2.063,0 0,1.64 z"
             id="path3592"
             style="fill:#000000;fill-opacity:1;fill-rule:nonzero;stroke:none" /><path
             d="m 203.938,18.069 0,-17.5 1.984,0 0,6.938 c 0,2.562 1.344,4.25 3.406,4.25 0.656,0 1.297,-0.219 1.781,-0.578 0.579,-0.407 0.813,-1.016 0.813,-1.891 l 0,-8.719 1.984,0 0,9.5 c 0,2.11 -1.5,3.438 -3.953,3.438 -1.781,0 -2.859,-0.547 -4.031,-2.094 l 0,6.656 -1.984,0 z"
             id="path3594"
             style="fill:#000000;fill-opacity:1;fill-rule:nonzero;stroke:none" /></g><flowRoot
           transform="matrix(0.65528865,0,0,0.81467531,87.5916,-94.915424)"
           id="flowRoot3596"
           xml:space="preserve"
           style="font-size:40px;font-style:normal;font-weight:normal;line-height:125%;letter-spacing:0px;word-spacing:0px;fill:#000000;fill-opacity:1;stroke:none;font-family:Sans"><flowRegion
             id="flowRegion3598"><rect
               width="55.771149"
               height="54.443264"
               x="-270.88843"
               y="245.99644"
               id="rect3600" /></flowRegion><flowPara
             id="flowPara3602">+</flowPara></flowRoot><flowRoot
           transform="translate(87.640381,-87.789139)"
           id="flowRoot3604"
           xml:space="preserve"
           style="font-size:40px;font-style:normal;font-weight:normal;line-height:125%;letter-spacing:0px;word-spacing:0px;fill:#000000;fill-opacity:1;stroke:none;font-family:Sans"><flowRegion
             id="flowRegion3606"><rect
               width="49.131725"
               height="60.418743"
               x="-275.53604"
               y="188.23347"
               id="rect3608" /></flowRegion><flowPara
             id="flowPara3610">(</flowPara></flowRoot><flowRoot
           transform="matrix(-1,0,0,-1,-262.34239,343.31017)"
           id="flowRoot3612"
           xml:space="preserve"
           style="font-size:40px;font-style:normal;font-weight:normal;line-height:125%;letter-spacing:0px;word-spacing:0px;fill:#000000;fill-opacity:1;stroke:none;font-family:Sans"><flowRegion
             id="flowRegion3614"><rect
               width="49.131725"
               height="60.418743"
               x="-275.53604"
               y="188.23347"
               id="rect3616" /></flowRegion><flowPara
             id="flowPara3618">(</flowPara></flowRoot></g></g><g
       transform="matrix(0.88388348,0.88388348,-0.88388348,0.88388348,233.57537,93.969423)"
       id="g3283"
       style="display:inline"><path
         d="m 201.262,92.984 0,0.059 -0.059,0.359 -0.121,0.602 -0.059,0.363 0,0.121 -0.062,0.117 -0.121,0.301 -0.18,0.301 -0.238,0.422 -0.301,0.363 -0.121,0.18 -0.059,0.058 -0.183,0.122 -0.36,0.3 -0.359,0.243 -0.184,0.117 -0.058,0 -0.18,0.062 -0.422,0.18 -0.48,0.121 -0.422,0.059 -0.301,0.062 -0.301,0 -0.359,-0.062 -0.602,-0.122 -0.363,-0.058 -0.121,0 -0.117,-0.059 -0.301,-0.121 -0.301,-0.179 -0.422,-0.243 -0.363,-0.3 -0.18,-0.122 -0.058,-0.058 -0.121,-0.18 -0.301,-0.363 -0.242,-0.359 -0.117,-0.18 0,-0.063 -0.063,-0.179 -0.18,-0.422 -0.121,-0.481 -0.058,-0.422 -0.063,-0.3 0,-0.301 0.063,-0.36 0.121,-0.601 0.058,-0.363 0,-0.118 0.059,-0.121 0.121,-0.3 0.18,-0.301 0.242,-0.422 0.301,-0.359 0.121,-0.184 0.058,-0.059 0.18,-0.121 0.363,-0.301 0.36,-0.238 0.18,-0.121 0.062,0 0.18,-0.062 0.422,-0.18 0.48,-0.121 0.422,-0.059 0.301,-0.058 0.3,0 0.36,0.058 0.601,0.121 0.364,0.059 0.117,0 0.121,0.062 0.301,0.118 0.301,0.183 0.421,0.238 0.36,0.301 0.183,0.121 0.059,0.059 0.121,0.184 0.301,0.359 0.238,0.359 0.121,0.184 0,0.059 0.059,0.179 0.183,0.422 0.118,0.481 0.062,0.421 0.059,0.301 0,0.242"
         id="path3285"
         style="fill:#ffa1a1;fill-opacity:1;fill-rule:nonzero;stroke:#000000;stroke-width:0.80000001;stroke-linecap:butt;stroke-linejoin:bevel;stroke-miterlimit:4;stroke-opacity:1;stroke-dasharray:none" /></g><g
       transform="matrix(0.88388348,0.88388348,-0.88388348,0.88388348,233.57537,93.969423)"
       id="g3287"
       style="display:inline"><path
         d="m 156.445,141.387 0,0.058 -0.062,0.36 -0.121,0.601 -0.059,0.364 0,0.121 -0.058,0.117 -0.122,0.301 -0.179,0.3 -0.242,0.422 -0.301,0.36 -0.121,0.183 -0.059,0.059 -0.18,0.121 -0.363,0.301 -0.359,0.238 -0.18,0.121 -0.062,0 -0.18,0.063 -0.422,0.179 -0.48,0.121 -0.422,0.059 -0.301,0.059 -0.301,0 -0.359,-0.059 -0.602,-0.121 -0.363,-0.059 -0.117,0 -0.121,-0.062 -0.301,-0.117 -0.301,-0.184 -0.422,-0.238 -0.359,-0.301 -0.184,-0.121 -0.058,-0.059 -0.122,-0.183 -0.3,-0.36 -0.239,-0.359 -0.121,-0.18 0,-0.062 -0.062,-0.18 -0.18,-0.422 -0.121,-0.48 -0.059,-0.422 -0.058,-0.301 0,-0.301 0.058,-0.359 0.122,-0.602 0.058,-0.363 0,-0.117 0.063,-0.121 0.117,-0.301 0.183,-0.301 0.239,-0.422 0.3,-0.359 0.122,-0.184 0.058,-0.058 0.184,-0.121 0.359,-0.301 0.36,-0.238 0.183,-0.122 0.059,0 0.179,-0.062 0.422,-0.18 0.481,-0.121 0.422,-0.058 0.3,-0.059 0.301,0 0.36,0.059 0.601,0.121 0.363,0.058 0.122,0 0.117,0.063 0.3,0.117 0.301,0.184 0.422,0.238 0.363,0.301 0.18,0.121 0.059,0.058 0.121,0.184 0.301,0.359 0.242,0.36 0.117,0.183 0,0.059 0.062,0.18 0.18,0.421 0.121,0.481 0.059,0.422 0.062,0.301 0,0.242"
         id="path3289"
         style="fill:#ffa1a1;fill-opacity:1;fill-rule:nonzero;stroke:#000000;stroke-width:0.80000001;stroke-linecap:butt;stroke-linejoin:bevel;stroke-miterlimit:4;stroke-opacity:1;stroke-dasharray:none" /></g><g
       transform="matrix(0.88388348,0.88388348,-0.88388348,0.88388348,233.57537,93.969423)"
       id="g3291"
       style="display:inline"><path
         d="m 133.508,102.586 0,0.059 -0.063,0.363 -0.121,0.601 -0.058,0.36 0,0.121 -0.059,0.121 -0.121,0.301 -0.18,0.297 -0.242,0.421 -0.301,0.364 -0.121,0.179 -0.058,0.059 -0.18,0.121 -0.363,0.301 -0.36,0.242 -0.179,0.117 -0.063,0 -0.18,0.063 -0.421,0.179 -0.481,0.122 -0.422,0.058 -0.301,0.063 -0.3,0 -0.36,-0.063 -0.601,-0.121 -0.364,-0.059 -0.117,0 -0.121,-0.058 -0.301,-0.121 -0.3,-0.18 -0.422,-0.242 -0.36,-0.301 -0.183,-0.121 -0.059,-0.059 -0.121,-0.179 -0.301,-0.364 -0.238,-0.359 -0.121,-0.18 0,-0.062 -0.063,-0.18 -0.179,-0.422 -0.121,-0.48 -0.059,-0.422 -0.059,-0.301 0,-0.301 0.059,-0.359 0.121,-0.602 0.059,-0.359 0,-0.121 0.062,-0.121 0.117,-0.301 0.184,-0.301 0.238,-0.421 0.301,-0.36 0.121,-0.18 0.059,-0.062 0.183,-0.121 0.36,-0.301 0.359,-0.238 0.184,-0.121 0.058,0 0.18,-0.059 0.422,-0.184 0.48,-0.117 0.422,-0.062 0.301,-0.059 0.301,0 0.359,0.059 0.602,0.121 0.363,0.058 0.121,0 0.117,0.063 0.301,0.121 0.301,0.18 0.422,0.238 0.363,0.301 0.18,0.121 0.058,0.062 0.121,0.18 0.301,0.36 0.242,0.363 0.117,0.179 0,0.059 0.063,0.18 0.18,0.422 0.121,0.48 0.058,0.422 0.063,0.301 0,0.242"
         id="path3293"
         style="fill:#ffa1a1;fill-opacity:1;fill-rule:nonzero;stroke:#000000;stroke-width:0.80000001;stroke-linecap:butt;stroke-linejoin:bevel;stroke-miterlimit:4;stroke-opacity:1;stroke-dasharray:none" /></g><g
       transform="matrix(0.88388348,0.88388348,-0.88388348,0.88388348,233.57537,93.969423)"
       id="g3295"
       style="display:inline"><path
         d="m 34.324,40.078 0,0.059 -0.058,0.359 -0.121,0.602 -0.059,0.363 0,0.121 -0.063,0.117 -0.117,0.301 -0.183,0.301 -0.239,0.422 -0.3,0.363 -0.122,0.18 -0.058,0.058 -0.184,0.121 -0.359,0.301 -0.359,0.242 -0.184,0.117 -0.059,0 -0.179,0.063 -0.422,0.18 -0.481,0.121 -0.422,0.058 -0.3,0.063 -0.301,0 -0.359,-0.063 -0.602,-0.121 -0.363,-0.058 -0.121,0 -0.118,-0.059 -0.3,-0.121 -0.301,-0.18 -0.422,-0.242 -0.363,-0.301 -0.18,-0.121 -0.059,-0.058 -0.121,-0.18 -0.3,-0.363 -0.243,-0.36 -0.117,-0.179 0,-0.063 -0.062,-0.18 -0.18,-0.421 -0.121,-0.481 -0.059,-0.422 -0.062,-0.301 0,-0.3 0.062,-0.36 0.121,-0.601 0.059,-0.364 0,-0.117 0.059,-0.121 0.121,-0.301 0.179,-0.3 0.243,-0.422 0.3,-0.36 0.121,-0.183 0.059,-0.059 0.18,-0.121 0.363,-0.301 0.359,-0.238 0.18,-0.121 0.063,0 0.179,-0.063 0.422,-0.179 0.481,-0.121 0.421,-0.059 0.301,-0.059 0.301,0 0.359,0.059 0.602,0.121 0.363,0.059 0.117,0 0.122,0.062 0.3,0.117 0.301,0.184 0.422,0.238 0.359,0.301 0.184,0.121 0.058,0.059 0.122,0.183 0.3,0.36 0.239,0.359 0.121,0.184 0,0.058 0.062,0.18 0.18,0.422 0.121,0.48 0.059,0.422 0.058,0.301 0,0.242"
         id="path3297"
         style="fill:#ffa1a1;fill-opacity:1;fill-rule:nonzero;stroke:#000000;stroke-width:0.80000001;stroke-linecap:butt;stroke-linejoin:bevel;stroke-miterlimit:4;stroke-opacity:1;stroke-dasharray:none" /></g><g
       transform="matrix(0.88388348,0.88388348,-0.88388348,0.88388348,233.57537,93.969423)"
       id="g3299"
       style="display:inline"><path
         d="m 66.875,216.746 0,0.059 -0.063,0.363 -0.121,0.602 -0.058,0.359 0,0.121 -0.059,0.121 -0.121,0.301 -0.18,0.301 -0.242,0.418 -0.301,0.363 -0.121,0.18 -0.058,0.058 -0.18,0.121 -0.363,0.301 -0.539,0.363 -0.063,0 -0.179,0.059 -0.422,0.18 -0.481,0.121 -0.422,0.058 -0.3,0.063 -0.301,0 -0.36,-0.063 -0.601,-0.117 -0.363,-0.062 -0.118,0 -0.121,-0.059 -0.3,-0.121 -0.301,-0.18 -0.422,-0.242 -0.36,-0.301 -0.183,-0.121 -0.059,-0.058 -0.121,-0.18 -0.301,-0.363 -0.238,-0.36 -0.121,-0.179 0,-0.063 -0.059,-0.18 -0.183,-0.421 -0.117,-0.481 -0.063,-0.422 -0.058,-0.301 0,-0.3 0.058,-0.36 0.121,-0.601 0.059,-0.36 0,-0.121 0.062,-0.121 0.121,-0.301 0.18,-0.3 0.238,-0.422 0.301,-0.36 0.121,-0.179 0.059,-0.063 0.183,-0.117 0.36,-0.301 0.359,-0.242 0.184,-0.121 0.058,0 0.18,-0.059 0.422,-0.179 0.48,-0.122 0.422,-0.062 0.301,-0.059 0.301,0 0.359,0.059 0.602,0.121 0.363,0.063 0.121,0 0.117,0.058 0.301,0.121 0.301,0.18 0.422,0.242 0.363,0.301 0.18,0.117 0.058,0.063 0.121,0.179 0.301,0.36 0.242,0.363 0.118,0.18 0,0.058 0.062,0.18 0.18,0.422 0.121,0.48 0.058,0.422 0.063,0.301 0,0.242"
         id="path3301"
         style="fill:#ffa1a1;fill-opacity:1;fill-rule:nonzero;stroke:#000000;stroke-width:0.80000001;stroke-linecap:butt;stroke-linejoin:bevel;stroke-miterlimit:4;stroke-opacity:1;stroke-dasharray:none" /></g><flowRoot
       id="flowRoot3487"
       xml:space="preserve"
       style="font-size:40px;font-style:normal;font-weight:normal;line-height:125%;letter-spacing:0px;word-spacing:0px;fill:#000000;fill-opacity:1;stroke:none;font-family:Sans"><flowRegion
         id="flowRegion3489"><rect
           width="36.516823"
           height="64.402397"
           x="-213.12546"
           y="189.56136"
           id="rect3491" /></flowRegion><flowPara
         id="flowPara3493" /></flowRoot><flowRoot
       transform="matrix(0,-1,1,0,-159.74908,-185.31371)"
       id="flowRoot3471"
       xml:space="preserve"
       style="font-size:40px;font-style:normal;font-weight:normal;line-height:125%;letter-spacing:0px;word-spacing:0px;fill:#000000;fill-opacity:1;stroke:none;font-family:Sans"><flowRegion
         id="flowRegion3473"><rect
           width="84.984604"
           height="49.79567"
           x="-312.05286"
           y="139.76569"
           id="rect3475" /></flowRegion><flowPara
         id="flowPara3477">/2</flowPara></flowRoot><g
       transform="matrix(1.25,0,0,-1.25,-4.36552,428.66718)"
       id="g3403"
       style="display:inline"><path
         d="m 17.5,177.456 0,7.906 c 0,1.657 -0.453,2.875 -1.469,3.813 -0.906,0.859 -2.156,1.344 -3.515,1.344 -2.125,0 -3.391,-0.969 -4.25,-3.188 -0.75,1.578 -2.047,2.422 -3.828,2.422 -1.266,0 -2.391,-0.484 -3.204,-1.391 C 0.391,187.44 0,186.253 0,184.565 l 0,-7.109 17.5,0 z m -9.953,2.234 -5.578,0 0,4.329 c 0,1.25 0.172,1.937 0.625,2.531 0.484,0.625 1.203,0.969 2.156,0.969 0.938,0 1.688,-0.344 2.172,-0.969 0.453,-0.594 0.625,-1.281 0.625,-2.531 l 0,-4.329 z m 7.984,0 -6.015,0 0,5.454 c 0,1.078 0.25,1.796 0.828,2.328 0.562,0.531 1.328,0.812 2.187,0.812 0.844,0 1.61,-0.281 2.157,-0.812 0.578,-0.532 0.843,-1.25 0.843,-2.328 l 0,-5.454 z"
         id="path3405"
         style="fill:#000000;fill-opacity:1;fill-rule:nonzero;stroke:none" /><path
         d="m 4.922,195.167 0,-1.984 12.578,0 0,1.984 -12.578,0 z m -4.922,0 0,-2.016 2.531,0 0,2.016 -2.531,0 z"
         id="path3407"
         style="fill:#000000;fill-opacity:1;fill-rule:nonzero;stroke:none" /><path
         d="m 4.922,198.558 12.578,0 0,2.015 -6.531,0 c -1.797,0 -2.969,0.453 -3.672,1.422 -0.453,0.625 -0.594,1.219 -0.625,2.61 l -2.031,0 c -0.047,-0.329 -0.079,-0.5 -0.079,-0.766 0,-1.297 0.766,-2.281 2.641,-3.438 l -2.281,0 0,-1.843 z"
         id="path3409"
         style="fill:#000000;fill-opacity:1;fill-rule:nonzero;stroke:none" /><path
         d="m 4.922,211.948 0,-2.062 -3.453,0 0,-1.985 3.453,0 0,-1.703 1.64,0 0,1.703 9.5,0 c 1.266,0 1.985,0.86 1.985,2.422 0,0.469 -0.047,0.953 -0.156,1.625 l -1.688,0 c 0.078,-0.265 0.094,-0.578 0.094,-0.953 0,-0.875 -0.235,-1.109 -1.125,-1.109 l -8.61,0 0,2.062 -1.64,0 z"
         id="path3411"
         style="fill:#000000;fill-opacity:1;fill-rule:nonzero;stroke:none" /><path
         d="m 0,214.214 17.5,0 0,1.984 -6.938,0 c -2.562,0 -4.25,1.344 -4.25,3.407 0,0.656 0.219,1.296 0.579,1.781 0.406,0.578 1.015,0.812 1.89,0.812 l 8.719,0 0,1.985 -9.5,0 c -2.109,0 -3.438,-1.5 -3.438,-3.953 0,-1.782 0.547,-2.86 2.094,-4.032 l -6.656,0 0,-1.984 z"
         id="path3413"
         style="fill:#000000;fill-opacity:1;fill-rule:nonzero;stroke:none" /></g><g
       transform="matrix(0,-1.25,-1.25,0,18.22073,503.73986)"
       id="g3439"
       style="display:inline"><path
         d="m 153.703,0.569 6.735,0 c 4.421,0 7.14,3.313 7.14,8.766 0,5.422 -2.703,8.734 -7.14,8.734 l -6.735,0 0,-17.5 z m 2.235,1.969 0,13.563 4.124,0 c 3.454,0 5.282,-2.329 5.282,-6.797 0,-4.422 -1.828,-6.766 -5.282,-6.766 l -4.124,0 z"
         id="path3441"
         style="fill:#000000;fill-opacity:1;fill-rule:nonzero;stroke:none" /><path
         d="m 181.203,6.179 c 0,1.922 -0.141,3.078 -0.5,4.015 -0.828,2.063 -2.734,3.313 -5.094,3.313 -3.5,0 -5.765,-2.688 -5.765,-6.813 0,-4.14 2.187,-6.672 5.718,-6.672 2.876,0 4.876,1.625 5.376,4.36 l -2.016,0 c -0.547,-1.656 -1.672,-2.516 -3.281,-2.516 -1.282,0 -2.36,0.578 -3.032,1.625 -0.484,0.719 -0.64,1.453 -0.671,2.688 l 9.265,0 z m -9.219,1.64 c 0.172,2.328 1.594,3.844 3.61,3.844 1.953,0 3.468,-1.641 3.468,-3.703 0,-0.047 0,-0.094 -0.015,-0.141 l -7.063,0 z"
         id="path3443"
         style="fill:#000000;fill-opacity:1;fill-rule:nonzero;stroke:none" /><path
         d="m 195.078,1.741 c -0.219,-0.047 -0.312,-0.047 -0.437,-0.047 -0.688,0 -1.079,0.36 -1.079,0.985 l 0,7.39 c 0,2.235 -1.624,3.438 -4.734,3.438 -1.812,0 -3.328,-0.531 -4.172,-1.469 -0.578,-0.641 -0.812,-1.359 -0.859,-2.609 l 2.015,0 c 0.172,1.531 1.079,2.234 2.954,2.234 1.796,0 2.812,-0.672 2.812,-1.875 l 0,-0.531 c 0,-0.844 -0.516,-1.203 -2.094,-1.391 -2.828,-0.359 -3.265,-0.453 -4.031,-0.765 -1.469,-0.61 -2.203,-1.735 -2.203,-3.36 0,-2.281 1.578,-3.719 4.125,-3.719 1.578,0 2.844,0.547 4.266,1.844 0.14,-1.265 0.765,-1.844 2.062,-1.844 0.406,0 0.719,0.047 1.375,0.204 l 0,1.515 z m -3.5,2.781 c 0,-0.671 -0.203,-1.078 -0.797,-1.625 -0.812,-0.75 -1.797,-1.125 -2.984,-1.125 -1.547,0 -2.469,0.735 -2.469,2.016 0,1.313 0.891,1.984 3.031,2.297 2.11,0.297 2.532,0.391 3.219,0.703 l 0,-2.266 z"
         id="path3445"
         style="fill:#000000;fill-opacity:1;fill-rule:nonzero;stroke:none" /><path
         d="m 201.672,13.147 -2.063,0 0,3.454 -1.984,0 0,-3.454 -1.703,0 0,-1.64 1.703,0 0,-9.5 c 0,-1.266 0.859,-1.985 2.422,-1.985 0.469,0 0.953,0.047 1.625,0.157 l 0,1.687 c -0.266,-0.078 -0.578,-0.094 -0.953,-0.094 -0.875,0 -1.11,0.235 -1.11,1.125 l 0,8.61 2.063,0 0,1.64 z"
         id="path3447"
         style="fill:#000000;fill-opacity:1;fill-rule:nonzero;stroke:none" /><path
         d="m 203.938,18.069 0,-17.5 1.984,0 0,6.938 c 0,2.562 1.344,4.25 3.406,4.25 0.656,0 1.297,-0.219 1.781,-0.578 0.579,-0.407 0.813,-1.016 0.813,-1.891 l 0,-8.719 1.984,0 0,9.5 c 0,2.11 -1.5,3.438 -3.953,3.438 -1.781,0 -2.859,-0.547 -4.031,-2.094 l 0,6.656 -1.984,0 z"
         id="path3449"
         style="fill:#000000;fill-opacity:1;fill-rule:nonzero;stroke:none" /></g><flowRoot
       transform="matrix(0,-0.65528865,0.81467531,0,-215.76208,51.04128)"
       id="flowRoot3463"
       xml:space="preserve"
       style="font-size:40px;font-style:normal;font-variant:normal;font-weight:normal;font-stretch:normal;text-align:start;line-height:125%;letter-spacing:0px;word-spacing:0px;writing-mode:lr-tb;text-anchor:start;fill:#000000;fill-opacity:1;stroke:none;font-family:Sans;-inkscape-font-specification:Sans"><flowRegion
         id="flowRegion3465"><rect
           width="55.771149"
           height="54.443264"
           x="-270.88843"
           y="245.99644"
           id="rect3467"
           style="font-size:40px;font-style:normal;font-variant:normal;font-weight:normal;font-stretch:normal;text-align:start;line-height:125%;writing-mode:lr-tb;text-anchor:start;font-family:Sans;-inkscape-font-specification:Sans" /></flowRegion><flowPara
         id="flowPara3620">-</flowPara></flowRoot><flowRoot
       transform="matrix(0,-1,1,0,-208.63579,55.033377)"
       id="flowRoot3479"
       xml:space="preserve"
       style="font-size:40px;font-style:normal;font-weight:normal;line-height:125%;letter-spacing:0px;word-spacing:0px;fill:#000000;fill-opacity:1;stroke:none;font-family:Sans"><flowRegion
         id="flowRegion3481"><rect
           width="49.131725"
           height="60.418743"
           x="-275.53604"
           y="188.23347"
           id="rect3483" /></flowRegion><flowPara
         id="flowPara3485">(</flowPara></flowRoot><flowRoot
       transform="matrix(0,1,-1,0,222.46351,405.01615)"
       id="flowRoot3495"
       xml:space="preserve"
       style="font-size:40px;font-style:normal;font-weight:normal;line-height:125%;letter-spacing:0px;word-spacing:0px;fill:#000000;fill-opacity:1;stroke:none;font-family:Sans"><flowRegion
         id="flowRegion3497"><rect
           width="49.131725"
           height="60.418743"
           x="-275.53604"
           y="188.23347"
           id="rect3499" /></flowRegion><flowPara
         id="flowPara3501">(</flowPara></flowRoot></g></svg>